fira-math-light.sfdir
StartChar: exclam
Encoding: 33 33 0
Width: 240
Flags: W
HStem: -11 95<106.5 134> 665 20G<88 150 150 150>
VStem: 72 96<23.5 50> 90.5 57.5
LayerCount: 2
Fore
SplineSet
150 685 m 1xd0
 146 218 l 1
 93 218 l 1
 88 685 l 1
 150 685 l 1xd0
120 84 m 0xe0
 148 84 168 63 168 37 c 0
 168 10 148 -11 120 -11 c 0
 93 -11 72 10 72 37 c 0
 72 63 93 84 120 84 c 0xe0
EndSplineSet
EndChar
StartChar: uni0022
Encoding: 34 34 2
Width: 362
Flags: W
HStem: 434 251<80 80 80 124 238 282 238 238>
VStem: 75.5 53 233.5 53
LayerCount: 2
Fore
SplineSet
80 434 m 1
 71 685 l 1
 133 685 l 1
 124 434 l 1
 80 434 l 1
238 434 m 1
 229 685 l 1
 291 685 l 1
 282 434 l 1
 238 434 l 1
EndSplineSet
EndChar
StartChar: uni0024
Encoding: 36 36 4
Width: 526
Flags: W
HStem: -11 50<238 238> 625 49<238 238>
VStem: 65 60<479 548 479 555.5> 238 51<-151 -11 -11 -11 674 819> 412 60<135 220>
LayerCount: 2
Fore
SplineSet
472 182 m 0
 472 79 401 5 289 -9 c 1
 289 -151 l 1
 238 -151 l 1
 238 -11 l 1
 154 -8 90 23 39 72 c 1
 74 109 l 1
 119 67 173 39 250 39 c 0
 344 39 412 90 412 180 c 0
 412 260 373 292 254 329 c 0
 122 371 65 417 65 511 c 0
 65 600 134 666 238 674 c 1
 238 819 l 1
 289 819 l 1
 289 674 l 1
 360 668 406 642 451 601 c 1
 416 564 l 1
 369 608 323 625 261 625 c 0
 181 625 125 583 125 513 c 0
 125 445 160 415 279 379 c 0
 399 341 472 299 472 182 c 0
EndSplineSet
EndChar
StartChar: percent
Encoding: 37 37 4
Width: 793
Flags: W
HStem: -11 42<555 626 555 635.5> 272 42<555 626> 351 42<167.5 238.5 167.5 248> 634 42<167.5 238.5>
VStem: 53 54<482 545 482 562.5> 298 54<482 545> 441 54<120 183 120 201> 686 54<120.5 183.5>
LayerCount: 2
Fore
SplineSet
610 703 m 1
 653 676 l 1
 189 -24 l 1
 147 4 l 1
 610 703 l 1
203 676 m 0
 291 676 352 613 352 514 c 0
 352 415 293 351 203 351 c 0
 115 351 53 414 53 513 c 0
 53 612 113 676 203 676 c 0
203 634 m 0
 132 634 107 577 107 513 c 0
 107 451 132 393 203 393 c 0
 274 393 298 450 298 514 c 0
 298 576 274 634 203 634 c 0
590 314 m 0
 678 314 740 252 740 153 c 0
 740 53 681 -11 590 -11 c 0
 503 -11 441 52 441 151 c 0
 441 251 500 314 590 314 c 0
590 272 m 0
 520 272 495 215 495 151 c 0
 495 89 520 31 590 31 c 0
 662 31 686 88 686 153 c 0
 686 214 662 272 590 272 c 0
EndSplineSet
EndChar
StartChar: uni0026
Encoding: 38 38 6
Width: 722
Flags: W
HStem: -11 48<260 346.5 260 352> 651 45<266.5 332>
VStem: 90 60<132 207.5 132 216> 133 58<520 574 520 587> 410 57<516 579.5>
LayerCount: 2
Fore
SplineSet
301 696 m 0xe8
 399 696 467 634 467 548 c 0
 467 467 409 417 314 364 c 1
 519 172 l 1
 547 229 569 289 585 362 c 1
 640 346 l 1
 618 262 590 195 555 137 c 1
 679 23 l 1
 636 -11 l 1
 524 94 l 1
 471 31 404 -11 300 -11 c 0
 181 -11 90 61 90 171 c 0xe8
 90 261 145 318 234 370 c 1
 169 432 133 474 133 544 c 0xd8
 133 630 198 696 301 696 c 0xe8
301 651 m 0xd8
 232 651 191 603 191 545 c 0
 191 495 210 463 280 396 c 1
 366 443 410 486 410 546 c 0
 410 613 363 651 301 651 c 0xd8
269 338 m 1xe8
 191 291 150 242 150 173 c 0
 150 91 215 37 305 37 c 0
 388 37 442 71 488 127 c 1
 269 338 l 1xe8
EndSplineSet
EndChar
StartChar: quotesingle
Encoding: 39 39 6
Width: 204
Flags: W
HStem: 665 20G<71 133 133 133>
VStem: 75.5 53
LayerCount: 2
Fore
SplineSet
80 434 m 1
 71 685 l 1
 133 685 l 1
 124 434 l 1
 80 434 l 1
EndSplineSet
EndChar
StartChar: parenleft
Encoding: 40 40 7
Width: 324
Flags: W
HStem: -137 974<233 233>
VStem: 54 60<241.5 459 241.5 466.5>
LayerCount: 2
Fore
SplineSet
233 837 m 1
 270 813 l 1
 181 681 114 568 114 350 c 0
 114 133 181 19 270 -113 c 1
 233 -137 l 1
 136 -1 54 117 54 350 c 0
 54 583 136 701 233 837 c 1
EndSplineSet
EndChar
StartChar: parenright
Encoding: 41 41 8
Width: 324
Flags: W
HStem: -137 974<91 91>
VStem: 210 60<241.5 459>
LayerCount: 2
Fore
SplineSet
91 837 m 1
 188 701 270 583 270 350 c 0
 270 117 188 -1 91 -137 c 1
 54 -113 l 1
 143 19 210 133 210 350 c 0
 210 568 143 681 54 813 c 1
 91 837 l 1
EndSplineSet
EndChar
StartChar: asterisk
Encoding: 42 42 9
Width: 436
Flags: W
HStem: 716 20G<189 246 246 246>
VStem: 193.5 48.5
LayerCount: 2
Fore
SplineSet
402 582 m 1
 250 542 l 1
 349 420 l 1
 303 386 l 1
 218 518 l 1
 133 386 l 1
 87 419 l 1
 186 541 l 1
 34 582 l 1
 51 634 l 1
 198 577 l 1
 189 736 l 1
 246 736 l 1
 238 577 l 1
 384 634 l 1
 402 582 l 1
EndSplineSet
EndChar
StartChar: comma
Encoding: 44 44 11
Width: 207
Flags: W
HStem: -4 21G<78 78>
VStem: 55 96<28.5 50 28.5 50>
LayerCount: 2
Fore
SplineSet
103 84 m 0
 132 84 151 63 151 37 c 0
 151 20 145 2 136 -18 c 2
 80 -151 l 1
 38 -151 l 1
 78 -4 l 1
 64 4 55 19 55 37 c 0
 55 63 76 84 103 84 c 0
EndSplineSet
EndChar
StartChar: uni002D
Encoding: 45 45 13
Width: 401
Flags: W
HStem: 288 50<68 333 68 333>
VStem: 68 265<288 338 288 338>
LayerCount: 2
Fore
SplineSet
68 288 m 1
 68 338 l 1
 333 338 l 1
 333 288 l 1
 68 288 l 1
EndSplineSet
EndChar
StartChar: uni002E
Encoding: 46 46 14
Width: 207
Flags: W
HStem: -11 95<89.5 117.5>
VStem: 55 96<23.5 50>
LayerCount: 2
Fore
SplineSet
103 84 m 0
 132 84 151 63 151 37 c 0
 151 10 132 -11 103 -11 c 0
 76 -11 55 10 55 37 c 0
 55 63 76 84 103 84 c 0
EndSplineSet
EndChar
StartChar: uni002F
Encoding: 47 47 15
Width: 520
Flags: W
HStem: -100 903<169 351>
VStem: 119 282
LayerCount: 2
Fore
SplineSet
351 803 m 1
 401 790 l 1
 169 -100 l 1
 119 -87 l 1
 351 803 l 1
EndSplineSet
EndChar
StartChar: zero
Encoding: 48 48 15
Width: 550
Flags: W
HStem: -11 48<227 323 227 343> 628 48<227.5 323>
VStem: 66 60<230.5 435.5 230.5 445.5> 423 61<229.5 434.5>
LayerCount: 2
Fore
SplineSet
275 676 m 0
 412 676 484 558 484 332 c 0
 484 107 411 -11 275 -11 c 0
 138 -11 66 108 66 333 c 0
 66 558 138 676 275 676 c 0
275 628 m 0
 180 628 126 538 126 333 c 0
 126 128 179 37 275 37 c 0
 371 37 423 127 423 332 c 0
 423 537 371 628 275 628 c 0
EndSplineSet
EndChar
StartChar: five
Encoding: 53 53 20
Width: 487
Flags: W
HStem: -11 49<189.5 269 189.5 287.5> 374 47<226 276.5> 617 48<135 405 135 135>
VStem: 79 56<390 617 390 665 390 665> 375 61<160.5 270.5>
LayerCount: 2
Fore
SplineSet
414 665 m 1
 405 617 l 1
 135 617 l 1
 135 390 l 1
 167 408 203 421 249 421 c 0
 363 421 436 343 436 214 c 0
 436 83 353 -11 222 -11 c 0
 141 -11 82 19 34 69 c 1
 70 104 l 1
 112 60 157 38 222 38 c 0
 316 38 375 106 375 215 c 0
 375 326 317 374 236 374 c 0
 191 374 162 363 125 342 c 1
 79 342 l 1
 79 665 l 1
 414 665 l 1
EndSplineSet
EndChar
StartChar: six
Encoding: 54 54 21
Width: 524
Flags: W
HStem: -11 48<224 322 224 333> 385 48<260 324> 628 48<249.5 324>
VStem: 66 59 414 59<168 280>
LayerCount: 2
Fore
SplineSet
296 433 m 0
 392 433 473 366 473 224 c 0
 473 78 389 -11 277 -11 c 0
 122 -11 66 125 66 300 c 0
 66 532 157 676 306 676 c 0
 357 676 395 661 430 637 c 1
 405 597 l 1
 374 617 343 628 305 628 c 0
 194 628 129 506 125 335 c 1
 167 396 224 433 296 433 c 0
277 37 m 0
 367 37 414 114 414 222 c 0
 414 338 360 385 288 385 c 0
 219 385 163 341 125 275 c 1
 129 127 171 37 277 37 c 0
EndSplineSet
EndChar
StartChar: seven
Encoding: 55 55 22
Width: 437
Flags: W
HStem: -8 21G<139 139> 616 49<30 341 30 401>
VStem: 30 371<620 665 620 665 620 665>
LayerCount: 2
Fore
SplineSet
401 665 m 1
 401 620 l 1
 139 -8 l 1
 85 10 l 1
 341 616 l 1
 30 616 l 1
 30 665 l 1
 401 665 l 1
EndSplineSet
EndChar
StartChar: uni0038
Encoding: 56 56 24
Width: 538
Flags: W
HStem: -11 49<222 314.5 222 331> 630 46<232 307.5>
VStem: 53 61<128.5 212 128.5 216> 82 58<476.5 548 476.5 563.5> 399 58<478 547.5> 424 61<130 213.5>
LayerCount: 2
Fore
SplineSet
337 352 m 1xe4
 436 312 485 262 485 173 c 0
 485 62 395 -11 267 -11 c 0
 137 -11 53 64 53 172 c 0xe4
 53 260 105 321 196 357 c 1
 118 392 82 436 82 510 c 0
 82 617 173 676 269 676 c 0
 364 676 457 621 457 511 c 0xd8
 457 440 418 394 337 352 c 1xe4
140 509 m 0xd8
 140 444 174 413 263 380 c 2
 294 369 l 1
 367 408 399 447 399 509 c 0
 399 586 346 630 269 630 c 0
 195 630 140 587 140 509 c 0xd8
268 38 m 0xe4
 361 38 424 87 424 173 c 0
 424 254 381 287 276 326 c 2
 242 339 l 1
 153 304 114 252 114 172 c 0
 114 85 176 38 268 38 c 0xe4
EndSplineSet
EndChar
StartChar: nine
Encoding: 57 57 24
Width: 518
Flags: W
HStem: 248 48<204.5 268.5> 628 48<212.5 307>
VStem: 53 60<404.5 512 404.5 526> 398 59
LayerCount: 2
Fore
SplineSet
255 676 m 0
 393 676 457 573 457 408 c 0
 457 145 343 48 123 -19 c 1
 108 26 l 1
 281 79 388 164 398 341 c 1
 359 284 303 248 234 248 c 0
 131 248 53 328 53 458 c 0
 53 594 141 676 255 676 c 0
244 296 m 0
 310 296 357 334 398 396 c 1
 399 553 357 628 257 628 c 0
 168 628 113 567 113 457 c 0
 113 352 165 296 244 296 c 0
EndSplineSet
EndChar
StartChar: uni003A
Encoding: 58 58 26
Width: 207
Flags: W
HStem: -11 95<89.5 117.5> 380 95<89.5 117.5>
VStem: 55 96<23.5 50 414 440.5>
LayerCount: 2
Fore
SplineSet
103 475 m 0
 132 475 151 454 151 427 c 0
 151 401 132 380 103 380 c 0
 76 380 55 401 55 427 c 0
 55 454 76 475 103 475 c 0
103 84 m 0
 132 84 151 63 151 37 c 0
 151 10 132 -11 103 -11 c 0
 76 -11 55 10 55 37 c 0
 55 63 76 84 103 84 c 0
EndSplineSet
EndChar
StartChar: semicolon
Encoding: 59 59 26
Width: 207
Flags: W
HStem: -4 21G<78 78> 380 95<89.5 117.5>
VStem: 55 96<28.5 50 28.5 50 414 440.5>
LayerCount: 2
Fore
SplineSet
103 475 m 0
 132 475 151 454 151 427 c 0
 151 401 132 380 103 380 c 0
 76 380 55 401 55 427 c 0
 55 454 76 475 103 475 c 0
103 84 m 0
 132 84 151 63 151 37 c 0
 151 20 145 2 136 -18 c 2
 80 -151 l 1
 38 -151 l 1
 78 -4 l 1
 64 4 55 19 55 37 c 0
 55 63 76 84 103 84 c 0
EndSplineSet
EndChar
StartChar: uni003D
Encoding: 61 61 29
Width: 493
Flags: W
HStem: 218 51<69 424 69 424> 393 51<69 424 69 424>
VStem: 69 355<218 269 218 269 393 444 218 444>
LayerCount: 2
Fore
SplineSet
69 393 m 1
 69 444 l 1
 424 444 l 1
 424 393 l 1
 69 393 l 1
69 218 m 1
 69 269 l 1
 424 269 l 1
 424 218 l 1
 69 218 l 1
EndSplineSet
EndChar
StartChar: greater
Encoding: 62 62 29
Width: 497
Flags: W
HStem: 509 20G<85 85>
VStem: 381 52<333 333>
LayerCount: 2
Fore
SplineSet
85 529 m 1
 433 360 l 1
 433 306 l 1
 85 135 l 1
 64 183 l 1
 381 333 l 1
 64 480 l 1
 85 529 l 1
EndSplineSet
EndChar
StartChar: uni003F
Encoding: 63 63 31
Width: 447
Flags: W
HStem: -11 95<184 212> 646 50<201 266>
VStem: 150 96<23.5 50> 167 57<218 273 218 277 218 361> 346 61<486 577.5>
LayerCount: 2
Fore
SplineSet
234 696 m 0xd8
 345 696 407 628 407 550 c 0
 407 397 224 417 224 273 c 2
 224 218 l 1
 167 218 l 1
 167 277 l 2
 167 445 346 425 346 547 c 0
 346 608 301 646 231 646 c 0
 171 646 126 623 81 572 c 1
 41 604 l 1
 95 666 155 696 234 696 c 0xd8
198 84 m 0xe8
 226 84 246 63 246 37 c 0
 246 10 226 -11 198 -11 c 0
 170 -11 150 10 150 37 c 0
 150 63 170 84 198 84 c 0xe8
EndSplineSet
EndChar
StartChar: B
Encoding: 66 66 33
Width: 598
Flags: W
HStem: 0 50<171 298 171 298> 336 48<171 309 309 316 171 309> 635 50<171 264 264 270 171 171>
VStem: 111 60<50 336 384 635> 451 61<470 556> 482 62<139 242>
LayerCount: 2
Fore
SplineSet
386 363 m 1xf4
 469 354 544 308 544 190 c 0xf4
 544 59 448 0 298 0 c 2
 111 0 l 1
 111 685 l 1
 264 685 l 2
 420 685 512 630 512 514 c 0xf8
 512 426 458 376 386 363 c 1xf4
270 635 m 2
 171 635 l 1
 171 384 l 1
 309 384 l 2
 392 384 451 430 451 510 c 0xf8
 451 602 385 635 270 635 c 2
298 50 m 2xf4
 409 50 482 88 482 190 c 0
 482 294 409 336 316 336 c 2
 171 336 l 1
 171 50 l 1
 298 50 l 2xf4
EndSplineSet
EndChar
StartChar: D
Encoding: 68 68 35
Width: 632
Flags: W
HStem: 0 50<171 258> 635 50<171 247 247 255 171 171>
VStem: 111 60<50 635 50 685 50 685> 503 63<225 473.5>
LayerCount: 2
Fore
SplineSet
247 685 m 2
 406 685 566 630 566 348 c 0
 566 64 399 0 258 0 c 2
 111 0 l 1
 111 685 l 1
 247 685 l 2
255 635 m 2
 171 635 l 1
 171 50 l 1
 262 50 l 2
 380 50 503 102 503 348 c 0
 503 599 375 635 255 635 c 2
EndSplineSet
EndChar
StartChar: uni0046
Encoding: 70 70 38
Width: 481
Flags: W
HStem: 0 21G<111 111 111 171> 318 50<171 408 171 408> 635 50<171 446 171 171>
VStem: 111 60<0 318 368 635>
LayerCount: 2
Fore
SplineSet
111 0 m 1
 111 685 l 1
 453 685 l 1
 446 635 l 1
 171 635 l 1
 171 368 l 1
 408 368 l 1
 408 318 l 1
 171 318 l 1
 171 0 l 1
 111 0 l 1
EndSplineSet
EndChar
StartChar: I
Encoding: 73 73 40
Width: 282
Flags: W
HStem: 0 21G<111 171 111 111> 665 20G<111 171 171 171>
VStem: 111 60<0 685 0 685>
LayerCount: 2
Fore
SplineSet
171 685 m 1
 171 0 l 1
 111 0 l 1
 111 685 l 1
 171 685 l 1
EndSplineSet
EndChar
StartChar: uni004A
Encoding: 74 74 42
Width: 291
Flags: W
HStem: 665 20G<125 185 185 185>
VStem: 125 60<95 685>
LayerCount: 2
Fore
SplineSet
185 685 m 1
 185 92 l 2
 185 -30 141 -76 29 -119 c 1
 13 -75 l 1
 104 -35 125 2 125 95 c 2
 125 685 l 1
 185 685 l 1
EndSplineSet
EndChar
StartChar: K
Encoding: 75 75 42
Width: 547
Flags: W
HStem: 0 21G<111 171 111 111 474 474 474 547> 665 20G<111 171 171 171 461 530 530 530>
VStem: 111 60<0 685 0 685>
LayerCount: 2
Fore
SplineSet
171 685 m 1
 171 0 l 1
 111 0 l 1
 111 685 l 1
 171 685 l 1
530 685 m 1
 246 370 l 1
 547 0 l 1
 474 0 l 1
 175 367 l 1
 461 685 l 1
 530 685 l 1
EndSplineSet
EndChar
StartChar: M
Encoding: 77 77 44
Width: 770
Flags: W
HStem: 0 21G<69 126 69 69 643 701 643 643> 626 59<179 179 586 586>
VStem: 69 632<0 0>
LayerCount: 2
Fore
SplineSet
635 685 m 1
 701 0 l 1
 643 0 l 1
 612 328 l 2
 601 438 590 564 586 626 c 1
 414 81 l 1
 357 81 l 1
 179 626 l 1
 176 558 165 435 156 330 c 2
 126 0 l 1
 69 0 l 1
 134 685 l 1
 217 685 l 1
 387 152 l 1
 551 685 l 1
 635 685 l 1
EndSplineSet
EndChar
StartChar: Q
Encoding: 81 81 48
Width: 690
Flags: W
HStem: -9 33 -9 49<281.5 406> 645 51<280.5 411>
VStem: 66 63<238.5 445 238.5 454> 562 63<247.5 446>
LayerCount: 2
Fore
SplineSet
452 24 m 1xb8
 527 23 596 1 649 -42 c 1xb8
 609 -93 l 1
 535 -27 467 -9 345 -9 c 0x78
 180 -9 66 113 66 341 c 0
 66 567 181 696 345 696 c 0
 512 696 625 573 625 342 c 0
 625 153 553 61 452 24 c 1xb8
129 341 m 0x78
 129 136 218 40 345 40 c 0
 479 40 562 136 562 342 c 0
 562 550 477 645 345 645 c 0
 216 645 129 549 129 341 c 0x78
EndSplineSet
EndChar
StartChar: S
Encoding: 83 83 50
Width: 539
Flags: W
HStem: -11 51<217 305 217 327> 645 51<227 300.5>
VStem: 66 61<494 565 494 576.5> 424 61<139 226.5>
LayerCount: 2
Fore
SplineSet
267 696 m 0
 356 696 410 668 464 620 c 1
 429 582 l 1
 378 626 332 645 269 645 c 0
 185 645 127 601 127 529 c 0
 127 459 164 427 287 390 c 0
 410 352 485 308 485 187 c 0
 485 70 396 -11 258 -11 c 0
 164 -11 95 22 39 75 c 1
 73 113 l 1
 124 69 177 40 257 40 c 0
 353 40 424 93 424 185 c 0
 424 268 383 302 261 340 c 0
 125 382 66 429 66 528 c 0
 66 625 147 696 267 696 c 0
EndSplineSet
EndChar
StartChar: uni0056
Encoding: 86 86 54
Width: 546
Flags: W
HStem: 0 21G<240 307 240 240> 0 62<274 274 274 307 240 274> 665 20G<16 81 81 81 468 530 530 530>
VStem: 16 514<685 685>
LayerCount: 2
Fore
SplineSet
530 685 m 1xb0
 307 0 l 1
 240 0 l 1
 16 685 l 1
 81 685 l 1
 274 62 l 1x70
 468 685 l 1
 530 685 l 1xb0
EndSplineSet
EndChar
StartChar: bracketleft
Encoding: 91 91 58
Width: 317
Flags: W
HStem: -112 48<139 251 139 251> 758 49<139 251 139 139>
VStem: 84 55<-64 758 -64 807 -64 807>
LayerCount: 2
Fore
SplineSet
251 807 m 1
 251 758 l 1
 139 758 l 1
 139 -64 l 1
 251 -64 l 1
 251 -112 l 1
 84 -112 l 1
 84 807 l 1
 251 807 l 1
EndSplineSet
EndChar
StartChar: backslash
Encoding: 92 92 59
Width: 520
Flags: W
HStem: -100 903<169 350>
VStem: 119 282
LayerCount: 2
Fore
SplineSet
169 803 m 1
 401 -87 l 1
 350 -100 l 1
 119 791 l 1
 169 803 l 1
EndSplineSet
EndChar
StartChar: uni005E
Encoding: 94 94 62
Width: 531
Flags: W
HStem: 527 305<56 290 56 290 241 474 241 409>
VStem: 56 418<527 527>
LayerCount: 2
Fore
SplineSet
290 832 m 1
 474 527 l 1
 409 527 l 1
 265 775 l 1
 122 527 l 1
 56 527 l 1
 241 832 l 1
 290 832 l 1
EndSplineSet
EndChar
StartChar: underscore
Encoding: 95 95 62
Width: 520
Flags: W
HStem: -122 51<29 492 29 492>
VStem: 29 463<-122 -71 -122 -71>
LayerCount: 2
Fore
SplineSet
29 -122 m 1
 29 -71 l 1
 492 -71 l 1
 492 -122 l 1
 29 -122 l 1
EndSplineSet
EndChar
StartChar: grave
Encoding: 96 96 63
Width: 274
Flags: W
HStem: 645 137
VStem: 30 214<679 730>
LayerCount: 2
Fore
SplineSet
56 782 m 1
 244 679 l 1
 226 645 l 1
 30 730 l 1
 56 782 l 1
EndSplineSet
EndChar
StartChar: b
Encoding: 98 98 65
Width: 574
Flags: W
HStem: -11 48<279 347 271.5 375> 0 21G<105 155 105 105> 486 48<286 352.5> 716 20G<105 105> 723 20G<163 163>
VStem: 105 58<119 396 451 736 736 736> 449 61<188 341>
LayerCount: 2
Fore
SplineSet
320 534 m 0xae
 439 534 510 438 510 264 c 0
 510 96 438 -11 312 -11 c 0
 246 -11 195 22 161 66 c 1xae
 155 0 l 1
 105 0 l 1
 105 736 l 1x76
 163 743 l 1
 163 451 l 1
 200 501 252 534 320 534 c 0xae
301 37 m 0
 393 37 449 112 449 264 c 0
 449 418 397 486 308 486 c 0
 240 486 198 446 163 396 c 1
 163 119 l 1
 196 71 242 37 301 37 c 0
EndSplineSet
EndChar
StartChar: d
Encoding: 100 100 67
Width: 579
Flags: W
HStem: -11 48<225 298> 0 21G<424 474 424 424> 486 48<233 304.5 205 311> 716 20G<474 474> 723 20G<416 416>
VStem: 64 62<187 260 187 339.5> 416 58<134 407 407 407 463 736 0 743 0 743>
LayerCount: 2
Fore
SplineSet
416 743 m 1xae
 474 736 l 1
 474 0 l 1
 424 0 l 1x76
 417 80 l 1
 386 28 336 -11 260 -11 c 0
 138 -11 64 93 64 259 c 0
 64 420 141 534 269 534 c 0
 340 534 386 500 416 463 c 1
 416 743 l 1xae
269 37 m 0xae
 338 37 380 72 416 134 c 1
 416 407 l 1
 385 451 343 486 279 486 c 0
 187 486 125 407 126 260 c 0
 126 114 181 37 269 37 c 0xae
EndSplineSet
EndChar
StartChar: i
Encoding: 105 105 72
Width: 267
Flags: W
HStem: 0 21G<105 163 105 105> 503 20G<105 163 163 163> 669 84<120 146.5>
VStem: 90 87<699.5 722.5> 105 58<0 523 0 523>
LayerCount: 2
Fore
SplineSet
133 753 m 0xf0
 160 753 177 734 177 711 c 0
 177 688 160 669 133 669 c 0
 107 669 90 688 90 711 c 0
 90 734 107 753 133 753 c 0xf0
163 523 m 1xe8
 163 0 l 1
 105 0 l 1
 105 523 l 1
 163 523 l 1xe8
EndSplineSet
Substitution2: "'dtls' subtable" dotlessi
EndChar
StartChar: j
Encoding: 106 106 73
Width: 268
Flags: W
HStem: -203 21G<23 23> 503 20G<106 164 164 164> 669 84<121 147.5>
VStem: 91 87<699.5 722.5> 106 58<17 19 19 523>
LayerCount: 2
Fore
SplineSet
134 753 m 0xf0
 161 753 178 734 178 711 c 0
 178 688 161 669 134 669 c 0
 108 669 91 688 91 711 c 0
 91 734 108 753 134 753 c 0xf0
164 523 m 1xe8
 164 19 l 2
 164 -121 118 -159 23 -203 c 1
 6 -161 l 1
 75 -127 106 -99 106 17 c 2
 106 523 l 1
 164 523 l 1xe8
EndSplineSet
EndChar
StartChar: uni006B
Encoding: 107 107 75
Width: 487
Flags: W
HStem: 0 21G<105 163 105 105 409 409 409 479> 503 20G<388 456 456 456> 716 20G<105 105> 723 20G<163 163>
VStem: 105 58<0 736 736 736>
LayerCount: 2
Fore
SplineSet
163 743 m 1xd8
 163 0 l 1
 105 0 l 1
 105 736 l 1xe8
 163 743 l 1xd8
456 523 m 1
 236 289 l 1
 479 0 l 1
 409 0 l 1
 169 286 l 1
 388 523 l 1
 456 523 l 1
EndSplineSet
EndChar
StartChar: r
Encoding: 114 114 81
Width: 372
Flags: W
HStem: 0 21G<105 163 105 105> 479 55<271 311> 503 20G<105 155 155 155> 508 20G<359 359>
VStem: 105 58<0 320 0 523>
LayerCount: 2
Fore
SplineSet
307 534 m 0xc8
 328 534 346 532 359 528 c 1x98
 348 473 l 1
 334 477 320 479 302 479 c 0xc8
 230 479 191 427 163 320 c 1
 163 0 l 1
 105 0 l 1
 105 523 l 1
 155 523 l 1xa8
 160 406 l 1
 187 492 235 534 307 534 c 0xc8
EndSplineSet
EndChar
StartChar: uni0076
Encoding: 118 118 86
Width: 470
Flags: W
HStem: 0 51<238 238 238 274 202 238> 503 20G<15 79 79 79 393 455 455 455>
VStem: 15 440<523 523>
LayerCount: 2
Fore
SplineSet
455 523 m 1
 274 0 l 1
 202 0 l 1
 15 523 l 1
 79 523 l 1
 238 51 l 1
 393 523 l 1
 455 523 l 1
EndSplineSet
EndChar
StartChar: x
Encoding: 120 120 87
Width: 459
Flags: W
HStem: 0 21G<10 77 10 10 378 448 378 378> 503 20G<34 102 102 102 359 425 425 425>
VStem: 10 438<0 0>
LayerCount: 2
Fore
SplineSet
264 280 m 1
 448 0 l 1
 378 0 l 1
 227 243 l 1
 77 0 l 1
 10 0 l 1
 194 278 l 1
 34 523 l 1
 102 523 l 1
 230 314 l 1
 359 523 l 1
 425 523 l 1
 264 280 l 1
EndSplineSet
EndChar
StartChar: uni007A
Encoding: 122 122 90
Width: 417
Flags: W
HStem: 0 50<96 380> 473 50<52 320 52 388>
VStem: 28 360
LayerCount: 2
Fore
SplineSet
388 523 m 1
 388 478 l 1
 96 50 l 1
 386 50 l 1
 380 0 l 1
 28 0 l 1
 28 45 l 1
 320 473 l 1
 52 473 l 1
 52 523 l 1
 388 523 l 1
EndSplineSet
EndChar
StartChar: uni007C
Encoding: 124 124 92
Width: 407
Flags: W
HStem: -100 904<176 230 176 230>
VStem: 176 54<-100 804 -100 804>
LayerCount: 2
Fore
SplineSet
230 804 m 1
 230 -100 l 1
 176 -100 l 1
 176 804 l 1
 230 804 l 1
EndSplineSet
EndChar
StartChar: uni007D
Encoding: 125 125 93
Width: 326
Flags: W
HStem: -129 45<64 95.5 64 112.5> 324 50<257 282> 783 45<64 95.5>
VStem: 151 55<-6 -4 -4 247 247 251 451 703>
LayerCount: 2
Fore
SplineSet
64 828 m 1
 161 828 206 791 206 703 c 2
 206 448 l 2
 206 394 232 374 282 374 c 1
 282 324 l 1
 232 324 206 305 206 251 c 2
 206 -4 l 2
 206 -92 161 -129 64 -129 c 1
 64 -84 l 1
 127 -84 151 -60 151 -6 c 2
 151 247 l 2
 151 317 177 336 227 349 c 1
 177 362 151 382 151 451 c 2
 151 705 l 2
 151 759 127 783 64 783 c 1
 64 828 l 1
EndSplineSet
EndChar
StartChar: asciitilde
Encoding: 126 126 93
Width: 472
Flags: W
HStem: 264 49<293 332 293 339.5> 322 49<141.5 180.5>
VStem: 51 369<295 337>
LayerCount: 2
Fore
SplineSet
312 264 m 0
 248 264 203 322 158 322 c 0
 125 322 106 300 88 275 c 1
 51 295 l 1
 75 333 105 371 162 371 c 0x60
 227 371 270 313 316 313 c 0
 348 313 366 332 384 357 c 1
 420 337 l 1
 397 299 367 264 312 264 c 0
EndSplineSet
EndChar
StartChar: exclamdown
Encoding: 161 161 95
Width: 240
Flags: W
HStem: -197 21G<90 152 90 90> 380 95<106 134>
VStem: 72 96<414 440.5> 92.5 57
LayerCount: 2
Fore
SplineSet
120 475 m 0xe0
 148 475 168 454 168 427 c 0
 168 401 148 380 120 380 c 0
 92 380 72 401 72 427 c 0
 72 454 92 475 120 475 c 0xe0
147 249 m 1xd0
 152 -197 l 1
 90 -197 l 1
 95 249 l 1
 147 249 l 1xd0
EndSplineSet
EndChar
StartChar: cent
Encoding: 162 162 96
Width: 469
Flags: W
HStem: -150 190<260 311 260 260> -10 50<260 260 311 311> 484 49<261 261> 484 196<261 311 261 312>
VStem: 64 62<184 334.5 184 337> 261 50<533 680>
LayerCount: 2
Fore
SplineSet
436 45 m 1x6c
 401 15 359 -5 311 -10 c 1x6c
 311 -150 l 1
 260 -150 l 1xac
 260 -10 l 1
 141 2 64 99 64 258 c 0
 64 416 141 521 261 533 c 1x6c
 261 680 l 1
 311 680 l 1x5c
 311 533 l 1
 358 529 396 513 433 481 c 1
 404 443 l 1
 370 470 336 484 288 484 c 0
 193 484 126 410 126 259 c 0
 126 109 192 40 287 40 c 0
 336 40 371 56 408 84 c 1
 436 45 l 1x6c
EndSplineSet
EndChar
StartChar: sterling
Encoding: 163 163 97
Width: 509
Flags: W
HStem: 0 51<125 446> 331 43<69 134 69 134 192 406> 627 49<270 335>
VStem: 134 58<170 171 171 331 374 499>
LayerCount: 2
Fore
SplineSet
192 171 m 2
 192 105 174 76 125 51 c 1
 453 51 l 1
 446 0 l 1
 51 0 l 1
 51 48 l 1
 114 76 134 100 134 170 c 2
 134 331 l 1
 69 331 l 1
 69 374 l 1
 134 374 l 1
 134 500 l 2
 134 599 193 676 306 676 c 0
 374 676 424 652 468 601 c 1
 429 570 l 1
 396 608 362 627 308 627 c 0
 232 627 192 576 192 499 c 2
 192 374 l 1
 406 374 l 1
 406 331 l 1
 192 331 l 1
 192 171 l 2
EndSplineSet
EndChar
StartChar: currency
Encoding: 164 164 98
Width: 560
Flags: W
HStem: 146 47<257.5 303> 489 46<257.5 303 257.5 326.5>
VStem: 90 56<317.5 364> 417 56<317 364.5 317 385>
LayerCount: 2
Fore
SplineSet
473 341 m 0
 473 293 459 249 432 215 c 1
 511 138 l 1
 475 102 l 1
 396 181 l 1
 365 159 326 146 280 146 c 0
 235 146 195 160 165 183 c 1
 84 102 l 1
 49 138 l 1
 130 217 l 1
 104 251 90 294 90 341 c 0
 90 387 104 430 129 463 c 1
 49 543 l 1
 85 579 l 1
 165 499 l 1
 196 522 235 535 280 535 c 0
 326 535 365 522 396 500 c 1
 476 579 l 1
 511 543 l 1
 433 465 l 1
 459 431 473 388 473 341 c 0
281 193 m 0
 372 193 417 253 417 341 c 0
 417 429 372 489 281 489 c 0
 192 489 146 429 146 341 c 0
 146 253 192 193 281 193 c 0
EndSplineSet
EndChar
StartChar: yen
Encoding: 165 165 99
Width: 512
Flags: W
HStem: 0 192<91 286 91 227> 149 43<91 227 91 227 286 422> 295 43<91 208 91 227 91 208 304 422>
VStem: 227 59<0 149 0 149 192 295>
LayerCount: 2
Fore
SplineSet
499 665 m 1x70
 304 338 l 1
 422 338 l 1
 422 295 l 1
 286 295 l 1
 286 192 l 1
 422 192 l 1
 422 149 l 1
 286 149 l 1x70
 286 0 l 1
 227 0 l 1xb0
 227 149 l 1
 91 149 l 1
 91 192 l 1
 227 192 l 1
 227 295 l 1
 91 295 l 1
 91 338 l 1
 208 338 l 1
 13 665 l 1
 79 665 l 1
 258 353 l 1
 436 665 l 1
 499 665 l 1x70
EndSplineSet
EndChar
StartChar: uni00A6
Encoding: 166 166 101
Width: 407
Flags: W
HStem: -100 904<176 230 176 230>
VStem: 176 54<-100 262 -100 262 443 804>
LayerCount: 2
Fore
SplineSet
230 804 m 1
 230 443 l 1
 176 443 l 1
 176 804 l 1
 230 804 l 1
230 262 m 1
 230 -100 l 1
 176 -100 l 1
 176 262 l 1
 230 262 l 1
EndSplineSet
EndChar
StartChar: dieresis
Encoding: 168 168 102
Width: 329
Flags: W
HStem: 663 79<58.5 81.5 247.5 270.5>
VStem: 30 80<691 713> 219 80<691 713>
LayerCount: 2
Fore
SplineSet
70 742 m 0
 93 742 110 724 110 702 c 0
 110 680 93 663 70 663 c 0
 47 663 30 680 30 702 c 0
 30 724 47 742 70 742 c 0
259 742 m 0
 282 742 299 724 299 702 c 0
 299 680 282 663 259 663 c 0
 236 663 219 680 219 702 c 0
 219 724 236 742 259 742 c 0
EndSplineSet
EndChar
StartChar: copyright
Encoding: 169 169 103
Width: 810
Flags: W
HStem: 134 39<333 478.5 333 488.5> 254 44<380.5 427.5 380.5 431.5> 573 43<384.5 424> 697 39<333 478.5>
VStem: 108 45<356.5 512.5 356.5 523> 259 51<388 488 388 497.5> 657 45<357.5 513>
LayerCount: 2
Fore
SplineSet
405 736 m 0
 572 736 702 612 702 435 c 0
 702 259 572 134 405 134 c 0
 238 134 108 258 108 435 c 0
 108 611 238 736 405 736 c 0
406 697 m 0
 260 697 153 590 153 435 c 0
 153 278 260 173 406 173 c 0
 551 173 657 280 657 435 c 0
 657 591 551 697 406 697 c 0
406 616 m 0
 451 616 480 603 509 581 c 1
 485 548 l 1
 462 565 440 573 408 573 c 0
 361 573 310 540 310 436 c 0
 310 340 352 298 409 298 c 0
 446 298 470 311 493 327 c 1
 515 294 l 1
 490 273 456 254 407 254 c 0
 320 254 259 319 259 436 c 0
 259 559 332 616 406 616 c 0
EndSplineSet
EndChar
StartChar: ordfeminine
Encoding: 170 170 104
Width: 500
Flags: W
HStem: 0 51<80 435 80 435> 274 45<195.5 237.5> 481 40<255 263 263 331> 639 46<222 272>
VStem: 79 60<370 424.5 370 434> 331 57<385 481 481 481 521 555 555 559>
LayerCount: 2
Fore
SplineSet
255 521 m 2
 331 521 l 1
 331 555 l 2
 331 614 306 639 238 639 c 0
 204 639 166 631 125 617 c 1
 110 659 l 1
 157 676 200 685 244 685 c 0
 344 685 388 642 388 559 c 2
 388 375 l 2
 388 332 400 321 421 313 c 1
 409 274 l 1
 371 281 348 298 340 337 c 1
 309 294 265 274 210 274 c 0
 128 274 79 321 79 392 c 0
 79 476 147 521 255 521 c 2
221 319 m 0
 271 319 307 343 331 385 c 1
 331 481 l 1
 263 481 l 2
 184 481 139 454 139 395 c 0
 139 345 170 319 221 319 c 0
80 51 m 1
 435 51 l 1
 435 0 l 1
 80 0 l 1
 80 51 l 1
EndSplineSet
EndChar
StartChar: uni00AB
Encoding: 171 171 106
Width: 555
Flags: W
HStem: 56 464<235 235 235 448>
VStem: 71 413<80 307 80 307>
LayerCount: 2
Fore
SplineSet
235 520 m 1
 271 495 l 1
 134 288 l 1
 271 80 l 1
 235 56 l 1
 71 268 l 1
 71 307 l 1
 235 520 l 1
448 520 m 1
 484 495 l 1
 347 288 l 1
 484 80 l 1
 448 56 l 1
 285 268 l 1
 285 307 l 1
 448 520 l 1
EndSplineSet
EndChar
StartChar: uni00AC
Encoding: 172 172 107
Width: 499
Flags: W
HStem: 296 51<69 375 69 430>
VStem: 375 55<168 296 296 296>
LayerCount: 2
Fore
SplineSet
430 347 m 1
 430 168 l 1
 375 168 l 1
 375 296 l 1
 69 296 l 1
 69 347 l 1
 430 347 l 1
EndSplineSet
EndChar
StartChar: uni00AD
Encoding: 173 173 107
Width: 401
Flags: W
HStem: 288 50<68 333 68 333>
VStem: 68 265<288 338 288 338>
LayerCount: 2
Fore
SplineSet
68 288 m 1
 68 338 l 1
 333 338 l 1
 333 288 l 1
 68 288 l 1
EndSplineSet
EndChar
StartChar: uni00AE
Encoding: 174 174 109
Width: 639
Flags: W
HStem: 257 36<263 376 263 387> 475 35<278 315 278 317> 601 35<278 278 278 305 305 311> 700 37<263 376.5>
VStem: 80 40<436.5 553 436.5 561.5> 236 42<364 475 364 510 510 601> 376 43<538.5 572.5> 520 40<439 556>
LayerCount: 2
Fore
SplineSet
319 737 m 0
 455 737 560 633 560 497 c 0
 560 364 455 257 319 257 c 0
 185 257 80 360 80 495 c 0
 80 628 185 737 319 737 c 0
319 293 m 0
 433 293 520 381 520 497 c 0
 520 615 434 700 319 700 c 0
 207 700 120 611 120 495 c 0
 120 378 207 293 319 293 c 0
419 555 m 0
 419 515 393 492 355 482 c 1
 429 364 l 1
 379 364 l 1
 315 475 l 1
 278 475 l 1
 278 364 l 1
 236 364 l 1
 236 636 l 1
 305 636 l 2
 382 636 419 609 419 555 c 0
278 601 m 1
 278 510 l 1
 317 510 l 2
 353 510 376 522 376 555 c 0
 376 590 353 601 311 601 c 2
 278 601 l 1
EndSplineSet
EndChar
StartChar: degree
Encoding: 176 176 110
Width: 521
Flags: W
HStem: 395 44<192 248 192 259.5> 652 44<192 248>
VStem: 69 51<512 580 512 593> 318 52<511.5 579>
LayerCount: 2
Fore
SplineSet
219 395 m 0
 143 395 69 450 69 546 c 0
 69 640 143 696 219 696 c 0
 300 696 370 640 370 545 c 0
 370 452 300 395 219 395 c 0
219 439 m 0
 277 439 318 478 318 545 c 0
 318 613 277 652 219 652 c 0
 165 652 120 614 120 546 c 0
 120 478 165 439 219 439 c 0
EndSplineSet
EndChar
StartChar: plusminus
Encoding: 177 177 111
Width: 493
Flags: W
HStem: 0 51<69 424 69 424> 316 50<70 220 70 220 274 424>
VStem: 220 54<164 316 164 316 366 518>
LayerCount: 2
Fore
SplineSet
274 518 m 1
 274 366 l 1
 424 366 l 1
 424 316 l 1
 274 316 l 1
 274 164 l 1
 220 164 l 1
 220 316 l 1
 70 316 l 1
 70 366 l 1
 220 366 l 1
 220 518 l 1
 274 518 l 1
69 0 m 1
 69 51 l 1
 424 51 l 1
 424 0 l 1
 69 0 l 1
EndSplineSet
EndChar
StartChar: uni00B2
Encoding: 178 178 112
Width: 400
Flags: W
HStem: 323 43<135 327> 700 43<173 216>
VStem: 269 53<594 650>
LayerCount: 2
Fore
SplineSet
197 743 m 0
 275 743 322 694 322 630 c 0
 322 553 277 504 135 366 c 1
 334 366 l 1
 327 323 l 1
 75 323 l 1
 75 364 l 1
 233 521 269 562 269 626 c 0
 269 674 239 700 193 700 c 0
 153 700 126 684 101 655 c 1
 66 681 l 1
 102 723 143 743 197 743 c 0
EndSplineSet
EndChar
StartChar: uni00B3
Encoding: 179 179 113
Width: 400
Flags: W
HStem: 315 42<172 219.5 172 236.5> 521 39<169 189 189 192 162 189> 703 41<178 219>
VStem: 273 52<613.5 656.5> 283 53<416 470>
LayerCount: 2
Fore
SplineSet
199 744 m 0xf0
 277 744 325 700 325 640 c 0xf0
 325 587 290 553 239 543 c 1
 293 540 336 505 336 440 c 0
 336 368 281 315 192 315 c 0
 138 315 96 335 63 371 c 1
 94 399 l 1
 124 368 155 357 189 357 c 0
 250 357 283 391 283 441 c 0
 283 499 247 521 192 521 c 2xe8
 162 521 l 1
 169 560 l 1
 189 560 l 2
 232 560 273 583 273 635 c 0
 273 678 242 703 196 703 c 0
 160 703 133 692 101 665 c 1
 74 696 l 1
 110 727 148 744 199 744 c 0xf0
EndSplineSet
EndChar
StartChar: acute
Encoding: 180 180 114
Width: 274
Flags: W
HStem: 645 137
VStem: 30 214<679 730>
LayerCount: 2
Fore
SplineSet
218 782 m 1
 244 730 l 1
 49 645 l 1
 30 679 l 1
 218 782 l 1
EndSplineSet
EndChar
StartChar: periodcentered
Encoding: 183 183 117
Width: 207
Flags: W
HStem: 271 95<89.5 117.5>
VStem: 55 96<305.5 332>
LayerCount: 2
Fore
SplineSet
103 366 m 0
 132 366 151 345 151 319 c 0
 151 292 132 271 103 271 c 0
 76 271 55 292 55 319 c 0
 55 345 76 366 103 366 c 0
EndSplineSet
EndChar
StartChar: cedilla
Encoding: 184 184 118
Width: 245
Flags: W
HStem: -227 42<96 124 96 138.5> -206 21G -96 32<75 123>
VStem: 80 43 164 51<-156 -125.5>
LayerCount: 2
Fore
SplineSet
123 16 m 1x78
 123 -64 l 1
 188 -69 215 -99 215 -140 c 0
 215 -197 167 -227 110 -227 c 0xb8
 75 -227 48 -218 30 -206 c 1x78
 48 -170 l 1
 64 -179 83 -185 109 -185 c 0xb8
 139 -185 164 -172 164 -140 c 0
 164 -111 138 -96 75 -96 c 1
 85 16 l 1
 123 16 l 1x78
EndSplineSet
EndChar
StartChar: uni00B9
Encoding: 185 185 119
Width: 400
Flags: W
HStem: 682 55<207 258> 717 20G<214 258 258 258>
VStem: 207 51<323 682 682 682>
LayerCount: 2
Fore
SplineSet
258 737 m 1x60
 258 323 l 1
 207 323 l 1
 207 682 l 1
 104 622 l 1
 81 658 l 1xa0
 214 737 l 1
 258 737 l 1x60
EndSplineSet
EndChar
StartChar: ordmasculine
Encoding: 186 186 120
Width: 500
Flags: W
HStem: 0 51<71 426 71 426> 274 46<211 287 211 304.5> 639 46<212 288.5>
VStem: 68 60<426.5 533 426.5 542.5> 370 60<427 534>
LayerCount: 2
Fore
SplineSet
249 685 m 0
 362 685 430 611 430 481 c 0
 430 353 361 274 248 274 c 0
 135 274 68 352 68 479 c 0
 68 606 137 685 249 685 c 0
250 639 m 0
 174 639 128 587 128 479 c 0
 128 374 173 320 249 320 c 0
 325 320 370 373 370 481 c 0
 370 587 327 639 250 639 c 0
71 0 m 1
 71 51 l 1
 426 51 l 1
 426 0 l 1
 71 0 l 1
EndSplineSet
EndChar
StartChar: guillemotright
Encoding: 187 187 121
Width: 546
Flags: W
HStem: 56 464<107 107 107 311>
VStem: 71 403<80 307 268 495>
LayerCount: 2
Fore
SplineSet
107 520 m 1
 271 307 l 1
 271 268 l 1
 107 56 l 1
 71 80 l 1
 209 288 l 1
 71 495 l 1
 107 520 l 1
311 520 m 1
 474 307 l 1
 474 268 l 1
 311 56 l 1
 275 80 l 1
 412 288 l 1
 275 495 l 1
 311 520 l 1
EndSplineSet
EndChar
StartChar: onequarter
Encoding: 188 188 122
Width: 914
Flags: W
HStem: 0 145<620 805 620 755> 103 42<620 755 620 755 805 861> 630 55<207 258> 665 20G<214 258 258 258> 727 20G<641 641>
VStem: 207 51<271 630 630 630> 755 50<0 103 0 103 0 145>
LayerCount: 2
Fore
SplineSet
641 747 m 1x5e
 681 728 l 1
 274 -71 l 1
 233 -51 l 1
 641 747 l 1x5e
258 271 m 1
 207 271 l 1
 207 630 l 1
 104 570 l 1
 81 606 l 1x6e
 214 685 l 1
 258 685 l 1
 258 271 l 1
861 145 m 1
 861 103 l 1
 805 103 l 1x5e
 805 0 l 1
 755 0 l 1x9e
 755 103 l 1
 566 103 l 1
 566 140 l 1
 696 421 l 1
 740 404 l 1
 620 145 l 1
 755 145 l 1
 760 260 l 1
 805 260 l 1
 805 145 l 1
 861 145 l 1
EndSplineSet
EndChar
StartChar: onehalf
Encoding: 189 189 123
Width: 914
Flags: W
HStem: 0 43<649 841> 377 43<687 730> 630 55<207 258> 665 20G<214 258 258 258> 727 20G<641 641>
VStem: 207 51<271 630 630 630> 783 53<271 327>
LayerCount: 2
Fore
SplineSet
641 747 m 1xde
 681 728 l 1
 274 -71 l 1
 233 -51 l 1
 641 747 l 1xde
258 685 m 1
 258 271 l 1
 207 271 l 1
 207 630 l 1
 104 570 l 1
 81 606 l 1xee
 214 685 l 1
 258 685 l 1
711 420 m 0
 789 420 836 371 836 307 c 0
 836 230 791 181 649 43 c 1
 848 43 l 1
 841 0 l 1
 589 0 l 1
 589 41 l 1
 747 198 783 239 783 303 c 0
 783 351 753 377 707 377 c 0
 667 377 640 361 615 332 c 1
 580 358 l 1
 616 400 657 420 711 420 c 0
EndSplineSet
EndChar
StartChar: threequarters
Encoding: 190 190 124
Width: 914
Flags: W
HStem: 0 145<620 805 620 755> 103 42<620 755 620 755 805 861> 263 42<172 219.5 172 236.5> 469 39<169 189 189 192 162 189> 651 41<178 219> 727 20G<641 641>
VStem: 273 52<561.5 604.5> 283 53<364 418> 755 50<0 103 0 103 0 145>
LayerCount: 2
Fore
SplineSet
641 747 m 1x7d80
 681 728 l 1
 274 -71 l 1
 233 -51 l 1
 641 747 l 1x7d80
336 388 m 0
 336 316 281 263 192 263 c 0
 138 263 96 283 63 319 c 1
 94 347 l 1
 124 316 155 305 189 305 c 0
 250 305 283 339 283 389 c 0
 283 447 247 469 192 469 c 2x7d80
 162 469 l 1
 169 508 l 1
 189 508 l 2
 232 508 273 531 273 583 c 0
 273 626 242 651 196 651 c 0
 160 651 133 640 101 613 c 1
 74 644 l 1
 110 675 148 692 199 692 c 0
 277 692 325 648 325 588 c 0x7e80
 325 535 290 501 239 491 c 1
 293 488 336 453 336 388 c 0
861 145 m 1
 861 103 l 1
 805 103 l 1x7d80
 805 0 l 1
 755 0 l 1xbd80
 755 103 l 1
 566 103 l 1
 566 140 l 1
 696 421 l 1
 740 404 l 1
 620 145 l 1
 755 145 l 1
 760 260 l 1
 805 260 l 1
 805 145 l 1
 861 145 l 1
EndSplineSet
EndChar
StartChar: questiondown
Encoding: 191 191 125
Width: 447
Flags: W
HStem: -206 49<181 246 181 252.5> 380 95<235.5 263.5>
VStem: 41 61<-90 -1.5 -90 12.5> 202 95<414 440.5> 223 57<204 249 122 249>
LayerCount: 2
Fore
SplineSet
250 380 m 0xf0
 221 380 202 401 202 427 c 0
 202 454 221 475 250 475 c 0
 277 475 297 454 297 427 c 0
 297 401 277 380 250 380 c 0xf0
213 -206 m 0
 103 -206 41 -137 41 -64 c 0
 41 89 223 72 223 204 c 2
 223 249 l 1
 280 249 l 1
 280 200 l 2xa8
 280 44 102 59 102 -62 c 0
 102 -118 146 -157 216 -157 c 0
 276 -157 321 -133 366 -82 c 1
 407 -114 l 1
 352 -176 292 -206 213 -206 c 0
EndSplineSet
EndChar
StartChar: Acircumflex
Encoding: 194 194 128
Width: 565
Flags: W
HStem: 0 21G<16 77 16 16 485 548 485 485> 187 51<154 409 154 425 137 409> 636 49<282 282>
VStem: 16 532<0 0>
LayerCount: 2
Fore
SplineSet
282 842 m 1
 160 762 l 1
 134 792 l 1
 264 894 l 1
 300 894 l 1
 429 792 l 1
 403 762 l 1
 282 842 l 1
485 0 m 1
 425 187 l 1
 137 187 l 1
 77 0 l 1
 16 0 l 1
 245 685 l 1
 320 685 l 1
 548 0 l 1
 485 0 l 1
154 238 m 1
 409 238 l 1
 282 636 l 1
 154 238 l 1
EndSplineSet
EndChar
StartChar: Atilde
Encoding: 195 195 129
Width: 565
Flags: W
HStem: 0 21G<16 77 16 16 485 548 485 485> 187 51<154 409 154 425 137 409> 636 49<282 282> 792 47<321.5 351.5 321.5 359> 838 46<212.5 241>
VStem: 16 532<0 0>
LayerCount: 2
Fore
SplineSet
224 838 m 0xec
 201 838 186 825 168 798 c 1
 132 816 l 1
 154 856 184 884 224 884 c 0xec
 271 884 302 839 341 839 c 0
 362 839 377 851 397 882 c 1
 433 864 l 1
 409 814 377 792 341 792 c 0xf4
 290 792 258 838 224 838 c 0xec
485 0 m 1xf4
 425 187 l 1
 137 187 l 1
 77 0 l 1
 16 0 l 1
 245 685 l 1
 320 685 l 1
 548 0 l 1
 485 0 l 1xf4
154 238 m 1
 409 238 l 1
 282 636 l 1
 154 238 l 1
EndSplineSet
EndChar
StartChar: uni00C4
Encoding: 196 196 131
Width: 565
Flags: W
HStem: 0 21G<16 77 16 16 485 548 485 485> 187 51<154 409 154 425 137 409> 636 49<282 282> 789 79<176.5 199.5 365.5 388.5>
VStem: 148 80<817 839> 337 80<817 839>
LayerCount: 2
Fore
SplineSet
188 789 m 0
 165 789 148 806 148 828 c 0
 148 850 165 868 188 868 c 0
 211 868 228 850 228 828 c 0
 228 806 211 789 188 789 c 0
377 789 m 0
 354 789 337 806 337 828 c 0
 337 850 354 868 377 868 c 0
 400 868 417 850 417 828 c 0
 417 806 400 789 377 789 c 0
485 0 m 1
 425 187 l 1
 137 187 l 1
 77 0 l 1
 16 0 l 1
 245 685 l 1
 320 685 l 1
 548 0 l 1
 485 0 l 1
154 238 m 1
 409 238 l 1
 282 636 l 1
 154 238 l 1
EndSplineSet
EndChar
StartChar: Aring
Encoding: 197 197 131
Width: 565
Flags: W
HStem: 0 21G<16 77 16 16 485 548 485 485> 187 51<154 409 154 425 137 409> 636 49<282 282> 759 36<265 300 265 312> 911 36<265 300.5>
VStem: 184 43<834.5 871 834.5 880> 338 43<834.5 871>
LayerCount: 2
Fore
SplineSet
283 759 m 0
 224 759 184 798 184 853 c 0
 184 907 224 947 283 947 c 0
 341 947 381 907 381 853 c 0
 381 798 341 759 283 759 c 0
283 911 m 0
 247 911 227 889 227 853 c 0
 227 816 247 795 283 795 c 0
 317 795 338 816 338 853 c 0
 338 889 318 911 283 911 c 0
485 0 m 1
 425 187 l 1
 137 187 l 1
 77 0 l 1
 16 0 l 1
 245 685 l 1
 320 685 l 1
 548 0 l 1
 485 0 l 1
154 238 m 1
 409 238 l 1
 282 636 l 1
 154 238 l 1
EndSplineSet
EndChar
StartChar: uni00C6
Encoding: 198 198 133
Width: 784
Flags: W
HStem: 0 50<509 737 509 737 461 737> 184 51<149 402 149 415 130 402> 330 49<437 682 437 437> 635 50<358 683 358 358>
VStem: 0 737<0 50>
LayerCount: 2
Fore
SplineSet
509 50 m 1
 737 50 l 1
 737 0 l 1
 461 0 l 1
 415 184 l 1
 130 184 l 1
 60 0 l 1
 0 0 l 1
 267 685 l 1
 690 685 l 1
 683 635 l 1
 358 635 l 1
 424 379 l 1
 682 379 l 1
 682 330 l 1
 437 330 l 1
 509 50 l 1
149 235 m 1
 402 235 l 1
 302 637 l 1
 149 235 l 1
EndSplineSet
EndChar
StartChar: Ccedilla
Encoding: 199 199 133
Width: 550
Flags: W
HStem: -227 42<332 360 332 374.5> -206 21G -96 32<311 359> -11 53<359 359> -10 52<319 319> 645 51<287.5 375>
VStem: 66 63<239 452 239 460> 315 44 400 51<-156 -125.5>
LayerCount: 2
Fore
SplineSet
359 -64 m 1x7780
 424 -69 451 -99 451 -140 c 0
 451 -197 403 -227 346 -227 c 0xb780
 311 -227 284 -218 266 -206 c 1x7780
 284 -170 l 1
 300 -179 319 -185 345 -185 c 0
 375 -185 400 -172 400 -140 c 0
 400 -111 374 -96 311 -96 c 1
 319 -10 l 1xaf80
 173 2 66 124 66 343 c 0
 66 577 191 696 343 696 c 0
 424 696 470 673 519 633 c 1
 487 593 l 1
 441 629 403 645 347 645 c 0
 228 645 129 561 129 343 c 0
 129 135 224 42 344 42 c 0
 415 42 456 67 496 99 c 1
 527 60 l 1
 489 24 435 -7 359 -11 c 1
 359 -64 l 1x7780
EndSplineSet
EndChar
StartChar: Ecircumflex
Encoding: 202 202 136
Width: 512
Flags: W
HStem: 0 50<171 466 171 466> 330 50<171 414 171 414> 635 50<171 452 171 171>
VStem: 111 60<50 330 380 635>
LayerCount: 2
Fore
SplineSet
167 762 m 1
 141 792 l 1
 271 894 l 1
 307 894 l 1
 436 792 l 1
 410 762 l 1
 289 842 l 1
 167 762 l 1
459 685 m 1
 452 635 l 1
 171 635 l 1
 171 380 l 1
 414 380 l 1
 414 330 l 1
 171 330 l 1
 171 50 l 1
 466 50 l 1
 466 0 l 1
 111 0 l 1
 111 685 l 1
 459 685 l 1
EndSplineSet
EndChar
StartChar: Edieresis
Encoding: 203 203 137
Width: 512
Flags: W
HStem: 0 50<171 466 171 466> 330 50<171 414 171 414> 635 50<171 452 171 171> 789 79<182.5 205.5 371.5 394.5>
VStem: 111 60<50 330 380 635> 154 80<817 839> 343 80<817 839>
LayerCount: 2
Fore
SplineSet
194 868 m 0xf6
 217 868 234 850 234 828 c 0
 234 806 217 789 194 789 c 0
 171 789 154 806 154 828 c 0
 154 850 171 868 194 868 c 0xf6
383 868 m 0
 406 868 423 850 423 828 c 0
 423 806 406 789 383 789 c 0
 360 789 343 806 343 828 c 0
 343 850 360 868 383 868 c 0
459 685 m 1
 452 635 l 1
 171 635 l 1
 171 380 l 1
 414 380 l 1
 414 330 l 1
 171 330 l 1
 171 50 l 1
 466 50 l 1
 466 0 l 1
 111 0 l 1
 111 685 l 1xe8
 459 685 l 1
EndSplineSet
EndChar
StartChar: Igrave
Encoding: 204 204 138
Width: 282
Flags: W
HStem: 0 21G<111 171 111 111> 665 20G<111 171 171 171>
VStem: 111 60<0 685 0 685>
LayerCount: 2
Fore
SplineSet
55 888 m 1
 243 792 l 1
 227 758 l 1
 29 836 l 1
 55 888 l 1
171 685 m 1
 171 0 l 1
 111 0 l 1
 111 685 l 1
 171 685 l 1
EndSplineSet
EndChar
StartChar: Iacute
Encoding: 205 205 139
Width: 282
Flags: W
HStem: 0 21G<111 171 111 111> 665 20G<111 171 171 171>
VStem: 111 60<0 685 0 685>
LayerCount: 2
Fore
SplineSet
221 888 m 1
 247 836 l 1
 49 758 l 1
 33 792 l 1
 221 888 l 1
171 685 m 1
 171 0 l 1
 111 0 l 1
 111 685 l 1
 171 685 l 1
EndSplineSet
EndChar
StartChar: Icircumflex
Encoding: 206 206 140
Width: 282
Flags: W
HStem: 0 21G<111 171 111 111> 665 20G<111 171 171 171>
VStem: 111 60<0 685 0 685>
LayerCount: 2
Fore
SplineSet
18 762 m 1
 -8 792 l 1
 122 894 l 1
 158 894 l 1
 287 792 l 1
 261 762 l 1
 140 842 l 1
 18 762 l 1
171 685 m 1
 171 0 l 1
 111 0 l 1
 111 685 l 1
 171 685 l 1
EndSplineSet
EndChar
StartChar: Ntilde
Encoding: 209 209 143
Width: 673
Flags: W
HStem: 0 21G<111 168 111 111 483 562 483 483> 0 66<513 513 513 562 483 513> 619 66<160 160> 665 20G<111 188 188 188 505 562 562 562> 792 47<384.5 414.5 384.5 422> 838 46<275.5 304>
VStem: 111 57<0 383 0 685> 505 57<269 685 0 685>
LayerCount: 2
Fore
SplineSet
404 792 m 0x9b
 353 792 321 838 287 838 c 0
 264 838 249 825 231 798 c 1
 195 816 l 1
 217 856 247 884 287 884 c 0x97
 334 884 365 839 404 839 c 0
 425 839 440 851 460 882 c 1
 496 864 l 1
 472 814 440 792 404 792 c 0x9b
562 685 m 1
 562 0 l 1
 483 0 l 1
 160 619 l 1xab
 163 572 168 506 168 383 c 2
 168 0 l 1
 111 0 l 1
 111 685 l 1
 188 685 l 1
 513 66 l 1x5b
 511 95 505 180 505 269 c 2
 505 685 l 1
 562 685 l 1
EndSplineSet
EndChar
StartChar: Ograve
Encoding: 210 210 144
Width: 691
Flags: W
HStem: -11 51<281.5 412 281.5 430> 645 51<280.5 411>
VStem: 66 63<238.5 445 238.5 454> 562 63<239 446>
LayerCount: 2
Fore
SplineSet
260 888 m 1
 448 792 l 1
 432 758 l 1
 234 836 l 1
 260 888 l 1
345 696 m 0
 512 696 625 573 625 342 c 0
 625 117 515 -11 345 -11 c 0
 180 -11 66 113 66 341 c 0
 66 567 181 696 345 696 c 0
345 645 m 0
 216 645 129 549 129 341 c 0
 129 136 218 40 345 40 c 0
 479 40 562 136 562 342 c 0
 562 550 477 645 345 645 c 0
EndSplineSet
EndChar
StartChar: Otilde
Encoding: 213 213 147
Width: 691
Flags: W
HStem: -11 51<281.5 412 281.5 430> 645 51<280.5 411> 792 47<384.5 414.5 384.5 422> 838 46<275.5 304>
VStem: 66 63<238.5 445 238.5 454> 562 63<239 446>
LayerCount: 2
Fore
SplineSet
404 792 m 0xec
 353 792 321 838 287 838 c 0
 264 838 249 825 231 798 c 1
 195 816 l 1
 217 856 247 884 287 884 c 0xdc
 334 884 365 839 404 839 c 0
 425 839 440 851 460 882 c 1
 496 864 l 1
 472 814 440 792 404 792 c 0xec
345 696 m 0
 512 696 625 573 625 342 c 0
 625 117 515 -11 345 -11 c 0
 180 -11 66 113 66 341 c 0
 66 567 181 696 345 696 c 0
345 645 m 0
 216 645 129 549 129 341 c 0
 129 136 218 40 345 40 c 0
 479 40 562 136 562 342 c 0
 562 550 477 645 345 645 c 0
EndSplineSet
EndChar
StartChar: Odieresis
Encoding: 214 214 148
Width: 691
Flags: W
HStem: -11 51<281.5 412 281.5 430> 645 51<280.5 411> 789 79<238.5 261.5 427.5 450.5>
VStem: 66 63<238.5 445 238.5 454> 210 80<817 839> 399 80<817 839> 562 63<239 446>
LayerCount: 2
Fore
SplineSet
250 868 m 0
 273 868 290 850 290 828 c 0
 290 806 273 789 250 789 c 0
 227 789 210 806 210 828 c 0
 210 850 227 868 250 868 c 0
439 868 m 0
 462 868 479 850 479 828 c 0
 479 806 462 789 439 789 c 0
 416 789 399 806 399 828 c 0
 399 850 416 868 439 868 c 0
345 696 m 0
 512 696 625 573 625 342 c 0
 625 117 515 -11 345 -11 c 0
 180 -11 66 113 66 341 c 0
 66 567 181 696 345 696 c 0
345 645 m 0
 216 645 129 549 129 341 c 0
 129 136 218 40 345 40 c 0
 479 40 562 136 562 342 c 0
 562 550 477 645 345 645 c 0
EndSplineSet
EndChar
StartChar: multiply
Encoding: 215 215 149
Width: 493
Flags: W
HStem: 144 327<122 122 122 371>
VStem: 85 324<180 180 180 434>
LayerCount: 2
Fore
SplineSet
371 471 m 1
 409 434 l 1
 284 308 l 1
 409 180 l 1
 371 144 l 1
 248 272 l 1
 122 144 l 1
 85 180 l 1
 208 306 l 1
 85 434 l 1
 122 471 l 1
 245 342 l 1
 371 471 l 1
EndSplineSet
EndChar
StartChar: uni00D8
Encoding: 216 216 151
Width: 691
Flags: W
HStem: -11 51<333.5 412 333.5 430> -1 21G<267 267> 645 51<280.5 356.5> 667 20G<421 421>
VStem: 66 63<268 445 268 454> 562 63<239 417>
LayerCount: 2
Fore
SplineSet
469 669 m 1x9c
 565 621 625 510 625 342 c 0
 625 117 515 -11 345 -11 c 0xac
 318 -11 292 -8 267 -1 c 1
 235 -120 l 1
 182 -105 l 1
 221 17 l 1
 125 66 66 176 66 341 c 0
 66 567 181 696 345 696 c 0x6c
 372 696 397 693 421 687 c 1
 456 810 l 1
 509 796 l 1
 469 669 l 1x9c
129 341 m 0xac
 129 195 172 107 241 66 c 1
 410 636 l 1
 390 642 368 645 345 645 c 0
 216 645 129 549 129 341 c 0xac
345 40 m 0
 479 40 562 136 562 342 c 0
 562 492 520 581 448 621 c 1
 279 49 l 1
 299 43 322 40 345 40 c 0
EndSplineSet
EndChar
StartChar: Uacute
Encoding: 218 218 152
Width: 652
Flags: W
HStem: -11 52<268.5 383.5 268.5 401> 665 20G<101 161 161 161 490 551 551 551>
VStem: 101 60<214 219 219 685> 490 61<219 685>
LayerCount: 2
Fore
SplineSet
407 888 m 1
 433 836 l 1
 235 758 l 1
 219 792 l 1
 407 888 l 1
551 685 m 1
 551 214 l 2
 551 82 476 -11 326 -11 c 0
 174 -11 101 82 101 214 c 2
 101 685 l 1
 161 685 l 1
 161 219 l 2
 161 108 211 41 326 41 c 0
 441 41 490 109 490 219 c 2
 490 685 l 1
 551 685 l 1
EndSplineSet
EndChar
StartChar: Udieresis
Encoding: 220 220 154
Width: 652
Flags: W
HStem: -11 52<268.5 383.5 268.5 401> 665 20G<101 161 161 161 490 551 551 551> 789 79<219.5 242.5 408.5 431.5>
VStem: 101 60<214 219 219 685> 191 80<817 839> 380 80<817 839> 490 61<219 685>
LayerCount: 2
Fore
SplineSet
231 868 m 0
 254 868 271 850 271 828 c 0
 271 806 254 789 231 789 c 0
 208 789 191 806 191 828 c 0
 191 850 208 868 231 868 c 0
420 868 m 0
 443 868 460 850 460 828 c 0
 460 806 443 789 420 789 c 0
 397 789 380 806 380 828 c 0
 380 850 397 868 420 868 c 0
551 685 m 1xf2
 551 214 l 2
 551 82 476 -11 326 -11 c 0
 174 -11 101 82 101 214 c 2
 101 685 l 1
 161 685 l 1
 161 219 l 2
 161 108 211 41 326 41 c 0
 441 41 490 109 490 219 c 2
 490 685 l 1
 551 685 l 1xf2
EndSplineSet
EndChar
StartChar: Yacute
Encoding: 221 221 155
Width: 523
Flags: W
HStem: 0 21G<232 292 232 232> 665 20G<13 80 80 80 445 509 509 509>
VStem: 232 60<0 267 267 267>
LayerCount: 2
Fore
SplineSet
342 888 m 1
 368 836 l 1
 170 758 l 1
 154 792 l 1
 342 888 l 1
509 685 m 1
 292 268 l 1
 292 0 l 1
 232 0 l 1
 232 267 l 1
 13 685 l 1
 80 685 l 1
 264 321 l 1
 445 685 l 1
 509 685 l 1
EndSplineSet
EndChar
StartChar: Thorn
Encoding: 222 222 156
Width: 574
Flags: W
HStem: 0 21G<111 171 111 111> 136 50<171 269 171 269> 513 50<171 271 171 272> 513 172<111 271 111 171>
VStem: 111 60<0 136 0 186 186 513 563 685> 462 63<288.5 414>
LayerCount: 2
Fore
SplineSet
272 563 m 2xec
 431 563 525 500 525 356 c 0
 525 196 418 136 269 136 c 2
 171 136 l 1
 171 0 l 1
 111 0 l 1
 111 685 l 1
 171 685 l 1xdc
 171 563 l 1
 272 563 l 2xec
269 186 m 2
 383 186 462 222 462 355 c 0
 462 473 391 513 271 513 c 2
 171 513 l 1
 171 186 l 1
 269 186 l 2
EndSplineSet
EndChar
StartChar: aring
Encoding: 229 229 163
Width: 536
Flags: W
HStem: -11 47<193.5 253> 272 42<273 282 282 373> 485 49<232.5 295.5> 633 36<241 276 241 288> 785 36<241 276.5>
VStem: 56 62<112 189.5 112 200> 160 43<708.5 745 708.5 754> 314 43<708.5 745> 373 58<128 272 272 272 314 365 365 368>
LayerCount: 2
Fore
SplineSet
259 633 m 0
 200 633 160 672 160 727 c 0
 160 781 200 821 259 821 c 0
 317 821 357 781 357 727 c 0
 357 672 317 633 259 633 c 0
259 785 m 0
 223 785 203 763 203 727 c 0
 203 690 223 669 259 669 c 0
 293 669 314 690 314 727 c 0
 314 763 294 785 259 785 c 0
431 116 m 2xfe80
 431 58 447 41 475 30 c 1
 462 -11 l 1
 416 -2 389 21 381 77 c 1
 344 17 288 -11 218 -11 c 0
 117 -11 56 52 56 145 c 0
 56 255 139 314 273 314 c 2
 373 314 l 1
 373 365 l 2
 373 448 339 485 252 485 c 0
 210 485 162 474 110 455 c 1
 95 499 l 1
 153 522 205 534 260 534 c 0
 379 534 431 475 431 368 c 2
 431 116 l 2xfe80
228 36 m 0
 294 36 340 69 373 128 c 1
 373 272 l 1
 282 272 l 2
 177 272 118 231 118 148 c 0
 118 76 159 36 228 36 c 0
EndSplineSet
EndChar
StartChar: ccedilla
Encoding: 231 231 165
Width: 469
Flags: W
HStem: -227 42<271 299 271 313.5> -206 21G -96 32<250 298> -11 51<298 298> -9 49<258 258> 484 50<240.5 312>
VStem: 64 62<184 334.5 184 342> 254 44 339 51<-156 -125.5>
LayerCount: 2
Fore
SplineSet
298 -64 m 1x7780
 363 -69 390 -99 390 -140 c 0
 390 -197 342 -227 285 -227 c 0xb780
 250 -227 223 -218 205 -206 c 1x7780
 223 -170 l 1
 239 -179 258 -185 284 -185 c 0
 314 -185 339 -172 339 -140 c 0
 339 -111 313 -96 250 -96 c 1
 258 -9 l 1xaf80
 140 4 64 100 64 258 c 0
 64 426 151 534 285 534 c 0
 344 534 389 519 433 481 c 1
 404 443 l 1
 370 470 336 484 288 484 c 0
 193 484 126 410 126 259 c 0
 126 109 192 40 287 40 c 0
 336 40 371 56 408 84 c 1
 436 45 l 1
 398 12 352 -8 298 -11 c 1
 298 -64 l 1x7780
EndSplineSet
EndChar
StartChar: uni00E8
Encoding: 232 232 167
Width: 535
Flags: W
HStem: -11 49<244 317.5 244 320.5> 239 45<126 420 126 475 126 420> 486 48<234 324.5>
VStem: 64 62<239 239 239 284 239 340.5> 420 57<284 299 299 356>
LayerCount: 2
Fore
SplineSet
387 679 m 1
 369 645 l 1
 173 730 l 1
 199 782 l 1
 387 679 l 1
477 281 m 0
 477 265 476 249 475 239 c 1
 126 239 l 1
 133 97 199 38 289 38 c 0
 346 38 384 56 430 90 c 1
 457 53 l 1
 408 13 355 -11 286 -11 c 0
 148 -11 64 89 64 257 c 0
 64 424 145 534 273 534 c 0
 409 534 477 435 477 281 c 0
420 284 m 1
 420 299 l 2
 420 413 374 486 275 486 c 0
 193 486 132 426 126 284 c 1
 420 284 l 1
EndSplineSet
EndChar
StartChar: ecircumflex
Encoding: 234 234 168
Width: 535
Flags: W
HStem: -11 49<244 317.5 244 320.5> 239 45<126 420 126 475 126 420> 486 48<234 324.5>
VStem: 64 62<239 239 239 284 239 340.5> 420 57<284 299 299 356>
LayerCount: 2
Fore
SplineSet
275 728 m 1
 154 643 l 1
 128 674 l 1
 257 779 l 1
 293 779 l 1
 423 674 l 1
 397 643 l 1
 275 728 l 1
477 281 m 0
 477 265 476 249 475 239 c 1
 126 239 l 1
 133 97 199 38 289 38 c 0
 346 38 384 56 430 90 c 1
 457 53 l 1
 408 13 355 -11 286 -11 c 0
 148 -11 64 89 64 257 c 0
 64 424 145 534 273 534 c 0
 409 534 477 435 477 281 c 0
420 284 m 1
 420 299 l 2
 420 413 374 486 275 486 c 0
 193 486 132 426 126 284 c 1
 420 284 l 1
EndSplineSet
EndChar
StartChar: edieresis
Encoding: 235 235 169
Width: 535
Flags: W
HStem: -11 49<244 317.5 244 320.5> 239 45<126 420 126 475 126 420> 486 48<234 324.5> 663 79<169.5 192.5 358.5 381.5>
VStem: 64 62<239 239 239 284 239 340.5> 141 80<691 713> 330 80<691 713> 420 57<284 299 299 356>
LayerCount: 2
Fore
SplineSet
181 663 m 0
 158 663 141 680 141 702 c 0
 141 724 158 742 181 742 c 0
 204 742 221 724 221 702 c 0
 221 680 204 663 181 663 c 0
370 663 m 0
 347 663 330 680 330 702 c 0
 330 724 347 742 370 742 c 0
 393 742 410 724 410 702 c 0
 410 680 393 663 370 663 c 0
477 281 m 0xf9
 477 265 476 249 475 239 c 1
 126 239 l 1
 133 97 199 38 289 38 c 0
 346 38 384 56 430 90 c 1
 457 53 l 1
 408 13 355 -11 286 -11 c 0
 148 -11 64 89 64 257 c 0
 64 424 145 534 273 534 c 0
 409 534 477 435 477 281 c 0xf9
420 284 m 1
 420 299 l 2
 420 413 374 486 275 486 c 0
 193 486 132 426 126 284 c 1
 420 284 l 1
EndSplineSet
EndChar
StartChar: uni00EC
Encoding: 236 236 171
Width: 267
Flags: W
HStem: 0 21G<105 163 105 105> 503 20G<105 163 163 163>
VStem: 105 58<0 523 0 523>
LayerCount: 2
Fore
SplineSet
57 782 m 1
 245 679 l 1
 227 645 l 1
 31 730 l 1
 57 782 l 1
163 523 m 1
 163 0 l 1
 105 0 l 1
 105 523 l 1
 163 523 l 1
EndSplineSet
EndChar
StartChar: iacute
Encoding: 237 237 171
Width: 267
Flags: W
HStem: 0 21G<105 163 105 105> 503 20G<105 163 163 163>
VStem: 105 58<0 523 0 523>
LayerCount: 2
Fore
SplineSet
209 782 m 1
 235 730 l 1
 40 645 l 1
 21 679 l 1
 209 782 l 1
163 523 m 1
 163 0 l 1
 105 0 l 1
 105 523 l 1
 163 523 l 1
EndSplineSet
EndChar
StartChar: icircumflex
Encoding: 238 238 172
Width: 267
Flags: W
HStem: 0 21G<105 163 105 105> 503 20G<105 163 163 163>
VStem: 105 58<0 523 0 523>
LayerCount: 2
Fore
SplineSet
12 643 m 1
 -14 674 l 1
 115 779 l 1
 151 779 l 1
 281 674 l 1
 255 643 l 1
 133 728 l 1
 12 643 l 1
163 523 m 1
 163 0 l 1
 105 0 l 1
 105 523 l 1
 163 523 l 1
EndSplineSet
EndChar
StartChar: idieresis
Encoding: 239 239 173
Width: 267
Flags: W
HStem: 0 21G<105 163 105 105> 503 20G<105 163 163 163> 663 79<27.5 50.5 216.5 239.5>
VStem: -1 80<691 713> 105 58<0 523 0 523> 188 80<691 713>
LayerCount: 2
Fore
SplineSet
39 742 m 0
 62 742 79 724 79 702 c 0
 79 680 62 663 39 663 c 0
 16 663 -1 680 -1 702 c 0
 -1 724 16 742 39 742 c 0
228 742 m 0
 251 742 268 724 268 702 c 0
 268 680 251 663 228 663 c 0
 205 663 188 680 188 702 c 0
 188 724 205 742 228 742 c 0
163 523 m 1xe8
 163 0 l 1
 105 0 l 1
 105 523 l 1
 163 523 l 1xe8
EndSplineSet
EndChar
StartChar: uni00F0
Encoding: 240 240 175
Width: 556
Flags: W
HStem: -11 48<226.5 320.5 226.5 336.5> 421 47<218 293.5 194.5 299.5> 550 20G<170 170> 669 20G<286 286> 678 20G<128 128> 724 20G<141 141>
VStem: 64 60<171 285.5 171 293> 428 59<201.5 292>
LayerCount: 2
Fore
SplineSet
324 664 m 1xf7
 436 579 487 464 487 280 c 0
 487 90 400 -11 273 -11 c 0
 147 -11 64 81 64 233 c 0
 64 353 130 468 259 468 c 0
 328 468 379 438 421 388 c 1
 407 488 367 565 289 628 c 1
 212 551 l 1
 170 570 l 1
 250 653 l 1
 212 673 171 690 128 698 c 1xef
 141 744 l 1
 192 734 240 716 286 689 c 1
 355 762 l 1
 390 731 l 1
 324 664 l 1xf7
273 37 m 0xef
 368 37 428 121 428 282 c 0
 428 302 427 316 426 330 c 1
 384 388 332 421 267 421 c 0
 169 421 124 337 124 234 c 0
 124 108 180 37 273 37 c 0xef
EndSplineSet
EndChar
StartChar: uni00F3
Encoding: 243 243 178
Width: 571
Flags: W
HStem: -11 49<235 335 235 354> 485 49<236.5 336.5>
VStem: 64 62<187.5 336 187.5 345> 446 61<188 336.5>
LayerCount: 2
Fore
SplineSet
361 782 m 1
 387 730 l 1
 192 645 l 1
 173 679 l 1
 361 782 l 1
286 534 m 0
 425 534 507 434 507 263 c 0
 507 94 423 -11 285 -11 c 0
 146 -11 64 93 64 261 c 0
 64 429 149 534 286 534 c 0
286 485 m 0
 187 485 126 411 126 261 c 0
 126 114 185 38 285 38 c 0
 385 38 446 113 446 263 c 0
 446 410 387 485 286 485 c 0
EndSplineSet
EndChar
StartChar: otilde
Encoding: 245 245 179
Width: 571
Flags: W
HStem: -11 49<235 335 235 354> 485 49<236.5 336.5> 666 47<324.5 354.5 324.5 362> 670 20G<135 135> 712 46<215.5 244> 718 20G<436 436>
VStem: 64 62<187.5 336 187.5 345> 446 61<188 336.5>
LayerCount: 2
Fore
SplineSet
344 666 m 0xe3
 293 666 261 712 227 712 c 0xdb
 204 712 189 699 171 672 c 1xd7
 135 690 l 1
 157 730 187 758 227 758 c 0xdb
 274 758 305 713 344 713 c 0
 365 713 380 725 400 756 c 1xe3
 436 738 l 1xd7
 412 688 380 666 344 666 c 0xe3
286 534 m 0xd7
 425 534 507 434 507 263 c 0
 507 94 423 -11 285 -11 c 0
 146 -11 64 93 64 261 c 0
 64 429 149 534 286 534 c 0xd7
286 485 m 0
 187 485 126 411 126 261 c 0
 126 114 185 38 285 38 c 0
 385 38 446 113 446 263 c 0
 446 410 387 485 286 485 c 0
EndSplineSet
EndChar
StartChar: uni00F7
Encoding: 247 247 182
Width: 493
Flags: W
HStem: 65 95<233 261> 306 51<69 424 69 424> 503 95<233 261>
VStem: 199 96<99.5 126 537 563.5>
LayerCount: 2
Fore
SplineSet
247 598 m 0
 275 598 295 577 295 550 c 0
 295 524 275 503 247 503 c 0
 219 503 199 524 199 550 c 0
 199 577 219 598 247 598 c 0
69 306 m 1
 69 357 l 1
 424 357 l 1
 424 306 l 1
 69 306 l 1
247 160 m 0
 275 160 295 139 295 113 c 0
 295 86 275 65 247 65 c 0
 219 65 199 86 199 113 c 0
 199 139 219 160 247 160 c 0
EndSplineSet
EndChar
StartChar: ucircumflex
Encoding: 251 251 185
Width: 576
Flags: W
HStem: -11 48<226.5 287.5> 0 21G<422 471 422 422> 503 20G<99 157 157 157 413 471 471 471>
VStem: 99 58<149 155 155 523> 413 58<144 523 0 523>
LayerCount: 2
Fore
SplineSet
164 643 m 1xb8
 138 674 l 1
 267 779 l 1
 303 779 l 1
 433 674 l 1
 407 643 l 1
 285 728 l 1
 164 643 l 1xb8
471 523 m 1
 471 0 l 1
 422 0 l 1x78
 418 93 l 1
 382 31 328 -11 247 -11 c 0
 154 -11 99 46 99 149 c 2
 99 523 l 1
 157 523 l 1
 157 155 l 2
 157 72 192 37 261 37 c 0
 329 37 377 82 413 144 c 1
 413 523 l 1
 471 523 l 1
EndSplineSet
EndChar
StartChar: uni00FD
Encoding: 253 253 188
Width: 468
Flags: W
HStem: -204 21G<59 59> 0 21G<197 217 197 197> 503 20G<15 78 78 78 391 452 452 452>
VStem: 15 437<523 523>
LayerCount: 2
Fore
SplineSet
309 782 m 1
 335 730 l 1
 140 645 l 1
 121 679 l 1
 309 782 l 1
452 523 m 1
 273 -2 l 2
 234 -116 187 -179 59 -204 c 1
 53 -159 l 1
 158 -133 184 -92 217 0 c 1
 197 0 l 1
 15 523 l 1
 78 523 l 1
 236 43 l 1
 391 523 l 1
 452 523 l 1
EndSplineSet
EndChar
StartChar: thorn
Encoding: 254 254 188
Width: 574
Flags: W
HStem: -205 21G<105 105> -11 49<279 349 271.5 377> 486 48<287.5 355.5> 716 20G<105 105> 723 20G<163 163>
VStem: 105 58<-195 61 -195 117 117 396 451 736 736 736> 449 61<189 338.5>
LayerCount: 2
Fore
SplineSet
320 534 m 0xee
 449 534 510 433 510 264 c 0
 510 99 442 -11 312 -11 c 0
 246 -11 196 19 163 61 c 1
 163 -195 l 1
 105 -205 l 1
 105 736 l 1xf6
 163 743 l 1
 163 451 l 1
 201 503 255 534 320 534 c 0xee
301 38 m 0
 397 38 449 114 449 264 c 0
 449 413 401 486 310 486 c 0
 243 486 199 446 163 396 c 1
 163 117 l 1
 196 69 242 38 301 38 c 0
EndSplineSet
EndChar
StartChar: ydieresis
Encoding: 255 255 189
Width: 468
Flags: W
HStem: -204 21G<59 59> 0 21G<197 217 197 197> 503 20G<15 78 78 78 391 452 452 452> 663 79<127.5 150.5 316.5 339.5>
VStem: 99 80<691 713> 288 80<691 713>
LayerCount: 2
Fore
SplineSet
139 742 m 0
 162 742 179 724 179 702 c 0
 179 680 162 663 139 663 c 0
 116 663 99 680 99 702 c 0
 99 724 116 742 139 742 c 0
328 742 m 0
 351 742 368 724 368 702 c 0
 368 680 351 663 328 663 c 0
 305 663 288 680 288 702 c 0
 288 724 305 742 328 742 c 0
452 523 m 1
 273 -2 l 2
 234 -116 187 -179 59 -204 c 1
 53 -159 l 1
 158 -133 184 -92 217 0 c 1
 197 0 l 1
 15 523 l 1
 78 523 l 1
 236 43 l 1
 391 523 l 1
 452 523 l 1
EndSplineSet
EndChar
StartChar: uni0100
Encoding: 256 256 191
Width: 565
Flags: W
HStem: 0 21G<16 77 16 16 485 548 485 485> 187 51<154 409 154 425 137 409> 636 49<282 282> 802 47<162 403 162 403>
VStem: 162 241<802 849 802 849>
LayerCount: 2
Fore
SplineSet
403 849 m 1
 403 802 l 1
 162 802 l 1
 162 849 l 1
 403 849 l 1
485 0 m 1
 425 187 l 1
 137 187 l 1
 77 0 l 1
 16 0 l 1
 245 685 l 1
 320 685 l 1
 548 0 l 1
 485 0 l 1
154 238 m 1
 409 238 l 1
 282 636 l 1
 154 238 l 1
EndSplineSet
EndChar
StartChar: Abreve
Encoding: 258 258 192
Width: 565
Flags: W
HStem: 0 21G<16 77 16 16 485 548 485 485> 187 51<154 409 154 425 137 409> 636 49<282 282> 765 47<258.5 305.5 258.5 316.5>
VStem: 16 532<0 0>
LayerCount: 2
Fore
SplineSet
282 765 m 0
 213 765 161 808 152 865 c 1
 192 874 l 1
 205 837 235 812 282 812 c 0
 329 812 360 837 373 874 c 1
 413 865 l 1
 404 808 351 765 282 765 c 0
485 0 m 1
 425 187 l 1
 137 187 l 1
 77 0 l 1
 16 0 l 1
 245 685 l 1
 320 685 l 1
 548 0 l 1
 485 0 l 1
154 238 m 1
 409 238 l 1
 282 636 l 1
 154 238 l 1
EndSplineSet
EndChar
StartChar: Aogonek
Encoding: 260 260 194
Width: 565
Flags: W
HStem: -218 48<449 476> 0 21G<16 77 16 16 530 548 530 530> 187 51<154 409 154 425 137 409> 636 49<282 282>
VStem: 354 54<-133.5 -96.5>
LayerCount: 2
Fore
SplineSet
530 0 m 1
 442 -40 408 -71 408 -118 c 0
 408 -149 427 -170 471 -170 c 0
 490 -170 507 -168 529 -163 c 1
 523 -211 l 1
 503 -215 487 -218 465 -218 c 0
 392 -218 354 -178 354 -126 c 0
 354 -67 397 -25 482 11 c 1
 425 187 l 1
 137 187 l 1
 77 0 l 1
 16 0 l 1
 245 685 l 1
 320 685 l 1
 548 0 l 1
 530 0 l 1
154 238 m 1
 409 238 l 1
 282 636 l 1
 154 238 l 1
EndSplineSet
EndChar
StartChar: aogonek
Encoding: 261 261 195
Width: 536
Flags: W
HStem: -229 48<381 408> -11 47<193.5 253> 272 42<273 282 282 373> 485 49<232.5 295.5>
VStem: 56 62<112 189.5 112 200> 286 54<-144.5 -106.5> 373 58<128 272 272 272 314 365 365 368>
LayerCount: 2
Fore
SplineSet
462 -11 m 1
 374 -51 340 -82 340 -129 c 0
 340 -160 359 -181 403 -181 c 0
 422 -181 439 -179 461 -174 c 1
 455 -222 l 1
 435 -226 419 -229 397 -229 c 0
 324 -229 286 -189 286 -137 c 0
 286 -76 332 -33 422 4 c 1
 400 17 386 40 381 77 c 1
 344 17 288 -11 218 -11 c 0
 117 -11 56 52 56 145 c 0
 56 255 139 314 273 314 c 2
 373 314 l 1
 373 365 l 2
 373 448 339 485 252 485 c 0
 210 485 162 474 110 455 c 1
 95 499 l 1
 153 522 205 534 260 534 c 0
 379 534 431 475 431 368 c 2
 431 116 l 2
 431 58 447 41 475 30 c 1
 462 -11 l 1
228 36 m 0
 294 36 340 69 373 128 c 1
 373 272 l 1
 282 272 l 2
 177 272 118 231 118 148 c 0
 118 76 159 36 228 36 c 0
EndSplineSet
EndChar
StartChar: Ccircumflex
Encoding: 264 264 198
Width: 550
Flags: W
HStem: -11 53<284 379.5 284 384.5> 645 51<287.5 375>
VStem: 66 63<239 452 239 460>
LayerCount: 2
Fore
SplineSet
222 762 m 1
 196 792 l 1
 326 894 l 1
 362 894 l 1
 491 792 l 1
 465 762 l 1
 344 842 l 1
 222 762 l 1
343 696 m 0
 424 696 470 673 519 633 c 1
 487 593 l 1
 441 629 403 645 347 645 c 0
 228 645 129 561 129 343 c 0
 129 135 224 42 344 42 c 0
 415 42 456 67 496 99 c 1
 527 60 l 1
 486 21 427 -11 342 -11 c 0
 184 -11 66 112 66 343 c 0
 66 577 191 696 343 696 c 0
EndSplineSet
EndChar
StartChar: uni010A
Encoding: 266 266 201
Width: 550
Flags: W
HStem: -11 53<284 379.5 284 384.5> 645 51<287.5 375> 795 84<331 357.5>
VStem: 66 63<239 452 239 460> 301 87<825.5 848.5>
LayerCount: 2
Fore
SplineSet
344 879 m 0
 371 879 388 860 388 837 c 0
 388 814 371 795 344 795 c 0
 318 795 301 814 301 837 c 0
 301 860 318 879 344 879 c 0
343 696 m 0
 424 696 470 673 519 633 c 1
 487 593 l 1
 441 629 403 645 347 645 c 0
 228 645 129 561 129 343 c 0
 129 135 224 42 344 42 c 0
 415 42 456 67 496 99 c 1
 527 60 l 1
 486 21 427 -11 342 -11 c 0
 184 -11 66 112 66 343 c 0
 66 577 191 696 343 696 c 0
EndSplineSet
EndChar
StartChar: cdotaccent
Encoding: 267 267 201
Width: 469
Flags: W
HStem: -11 51<239.5 311.5 239.5 315.5> 484 50<240.5 312> 669 84<272 298.5>
VStem: 64 62<184 334.5 184 342> 242 87<699.5 722.5>
LayerCount: 2
Fore
SplineSet
285 753 m 0
 312 753 329 734 329 711 c 0
 329 688 312 669 285 669 c 0
 259 669 242 688 242 711 c 0
 242 734 259 753 285 753 c 0
285 534 m 0
 344 534 389 519 433 481 c 1
 404 443 l 1
 370 470 336 484 288 484 c 0
 193 484 126 410 126 259 c 0
 126 109 192 40 287 40 c 0
 336 40 371 56 408 84 c 1
 436 45 l 1
 395 10 345 -11 286 -11 c 0
 152 -11 64 88 64 258 c 0
 64 426 151 534 285 534 c 0
EndSplineSet
EndChar
StartChar: ccaron
Encoding: 269 269 203
Width: 469
Flags: W
HStem: -11 51<239.5 311.5 239.5 315.5> 484 50<240.5 312> 633 52<286 286 286 304 268 286> 665 20G<286 286> 719 20G<138 138 433 433>
VStem: 64 62<184 334.5 184 342>
LayerCount: 2
Fore
SplineSet
407 769 m 1xdc
 433 739 l 1
 304 633 l 1
 268 633 l 1xec
 138 739 l 1
 164 769 l 1
 286 685 l 1
 407 769 l 1xdc
285 534 m 0
 344 534 389 519 433 481 c 1
 404 443 l 1
 370 470 336 484 288 484 c 0
 193 484 126 410 126 259 c 0
 126 109 192 40 287 40 c 0
 336 40 371 56 408 84 c 1
 436 45 l 1
 395 10 345 -11 286 -11 c 0
 152 -11 64 88 64 258 c 0
 64 426 151 534 285 534 c 0
EndSplineSet
EndChar
StartChar: emacron
Encoding: 275 275 209
Width: 535
Flags: W
HStem: -11 49<244 317.5 244 320.5> 239 45<126 420 126 475 126 420> 486 48<234 324.5> 676 47<156 397 156 397>
VStem: 64 62<239 239 239 284 239 340.5> 156 241<676 723 676 723> 420 57<284 299 299 356>
LayerCount: 2
Fore
SplineSet
397 723 m 1
 397 676 l 1
 156 676 l 1
 156 723 l 1
 397 723 l 1
477 281 m 0xfa
 477 265 476 249 475 239 c 1
 126 239 l 1
 133 97 199 38 289 38 c 0
 346 38 384 56 430 90 c 1
 457 53 l 1
 408 13 355 -11 286 -11 c 0
 148 -11 64 89 64 257 c 0
 64 424 145 534 273 534 c 0
 409 534 477 435 477 281 c 0xfa
420 284 m 1
 420 299 l 2
 420 413 374 486 275 486 c 0
 193 486 132 426 126 284 c 1
 420 284 l 1
EndSplineSet
EndChar
StartChar: ebreve
Encoding: 277 277 211
Width: 535
Flags: W
HStem: -11 49<244 317.5 244 320.5> 239 45<126 420 126 475 126 420> 486 48<234 324.5> 653 47<252.5 299.5 252.5 310.5>
VStem: 64 62<239 239 239 284 239 340.5> 420 57<284 299 299 356>
LayerCount: 2
Fore
SplineSet
276 653 m 0
 207 653 155 696 146 763 c 1
 186 772 l 1
 199 725 229 700 276 700 c 0
 323 700 354 725 367 772 c 1
 407 763 l 1
 398 696 345 653 276 653 c 0
477 281 m 0
 477 265 476 249 475 239 c 1
 126 239 l 1
 133 97 199 38 289 38 c 0
 346 38 384 56 430 90 c 1
 457 53 l 1
 408 13 355 -11 286 -11 c 0
 148 -11 64 89 64 257 c 0
 64 424 145 534 273 534 c 0
 409 534 477 435 477 281 c 0
420 284 m 1
 420 299 l 2
 420 413 374 486 275 486 c 0
 193 486 132 426 126 284 c 1
 420 284 l 1
EndSplineSet
EndChar
StartChar: Edotaccent
Encoding: 278 278 212
Width: 512
Flags: W
HStem: 0 50<171 466 171 466> 330 50<171 414 171 414> 635 50<171 452 171 171> 795 84<275 301.5>
VStem: 111 60<50 330 380 635> 245 87<825.5 848.5>
LayerCount: 2
Fore
SplineSet
288 879 m 0
 315 879 332 860 332 837 c 0
 332 814 315 795 288 795 c 0
 262 795 245 814 245 837 c 0
 245 860 262 879 288 879 c 0
459 685 m 1
 452 635 l 1
 171 635 l 1
 171 380 l 1
 414 380 l 1
 414 330 l 1
 171 330 l 1
 171 50 l 1
 466 50 l 1
 466 0 l 1
 111 0 l 1
 111 685 l 1
 459 685 l 1
EndSplineSet
EndChar
StartChar: edotaccent
Encoding: 279 279 213
Width: 535
Flags: W
HStem: -11 49<244 317.5 244 320.5> 239 45<126 420 126 475 126 420> 486 48<234 324.5> 669 84<263 289.5>
VStem: 64 62<239 239 239 284 239 340.5> 233 87<699.5 722.5> 420 57<284 299 299 356>
LayerCount: 2
Fore
SplineSet
276 669 m 0
 250 669 233 688 233 711 c 0
 233 734 250 753 276 753 c 0
 303 753 320 734 320 711 c 0
 320 688 303 669 276 669 c 0
477 281 m 0
 477 265 476 249 475 239 c 1
 126 239 l 1
 133 97 199 38 289 38 c 0
 346 38 384 56 430 90 c 1
 457 53 l 1
 408 13 355 -11 286 -11 c 0
 148 -11 64 89 64 257 c 0
 64 424 145 534 273 534 c 0
 409 534 477 435 477 281 c 0
420 284 m 1
 420 299 l 2
 420 413 374 486 275 486 c 0
 193 486 132 426 126 284 c 1
 420 284 l 1
EndSplineSet
EndChar
StartChar: Eogonek
Encoding: 280 280 214
Width: 512
Flags: W
HStem: -218 48<353 380> 0 50<171 362 434 466 434 434> 330 50<171 414 171 414> 635 50<171 452 171 171>
VStem: 111 60<50 50 50 330 380 635> 258 54<-133.5 -99.5>
LayerCount: 2
Fore
SplineSet
171 50 m 1
 466 50 l 1
 466 0 l 1
 434 0 l 1
 346 -40 312 -71 312 -118 c 0
 312 -149 331 -170 375 -170 c 0
 394 -170 411 -168 433 -163 c 1
 427 -211 l 1
 407 -215 391 -218 369 -218 c 0
 296 -218 258 -178 258 -126 c 0
 258 -73 293 -33 362 0 c 1
 111 0 l 1
 111 685 l 1
 459 685 l 1
 452 635 l 1
 171 635 l 1
 171 380 l 1
 414 380 l 1
 414 330 l 1
 171 330 l 1
 171 50 l 1
EndSplineSet
EndChar
StartChar: uni0119
Encoding: 281 281 216
Width: 535
Flags: W
HStem: -213 48<296 322> -206 21G<369 369> -11 49 239 45<126 420 126 475 126 420> 486 48<234 324.5>
VStem: 64 62<239 239 239 284 239 340.5> 200 54<-128.5 -98> 420 57<284 299 299 356>
LayerCount: 2
Fore
SplineSet
477 281 m 0x7f
 477 265 476 249 475 239 c 1
 126 239 l 1
 133 97 199 38 289 38 c 0
 346 38 384 56 430 90 c 1
 457 53 l 1
 431 32 404 15 374 4 c 0
 287 -35 254 -66 254 -113 c 0
 254 -144 274 -165 318 -165 c 0
 337 -165 352 -163 375 -158 c 1xbf
 369 -206 l 1
 349 -210 333 -213 311 -213 c 0
 238 -213 200 -173 200 -121 c 0
 200 -75 228 -39 283 -11 c 1
 147 -10 64 90 64 257 c 0
 64 424 145 534 273 534 c 0
 409 534 477 435 477 281 c 0x7f
420 284 m 1
 420 299 l 2
 420 413 374 486 275 486 c 0
 193 486 132 426 126 284 c 1
 420 284 l 1
EndSplineSet
EndChar
StartChar: gbreve
Encoding: 287 287 221
Width: 506
Flags: W
HStem: -205 48<188.5 312 188.5 327.5> 29 50<172.5 310 225 301> 183 42<237.5 290.5 208 309> 489 45<203.5 248 190.5 292.5> 497 37 514 20G<190.5 248> 548 20G<477 477> 653 47<227.5 274.5 227.5 285.5>
VStem: 56 60<322 395.5 315 409.5> 87 55<117.5 138.5> 380 59<314.5 391 304 397> 419 59<-89 -30>
LayerCount: 2
Fore
SplineSet
251 653 m 0xf3a0
 182 653 130 696 121 763 c 1
 161 772 l 1
 174 725 204 700 251 700 c 0
 298 700 329 725 342 772 c 1
 382 763 l 1
 373 696 320 653 251 653 c 0xf3a0
477 568 m 1
 495 512 l 1xe7a0
 459 502 413 498 350 497 c 1
 405 471 439 427 439 355 c 0xeba0
 439 253 368 183 250 183 c 0
 225 183 202 186 182 193 c 1
 157 179 142 157 142 133 c 0
 142 102 162 79 225 79 c 2
 310 79 l 2
 414 79 478 23 478 -55 c 0
 478 -149 404 -205 251 -205 c 0
 93 -205 33 -159 33 -55 c 1
 87 -55 l 1
 88 -128 126 -157 251 -157 c 0
 373 -157 419 -120 419 -58 c 0
 419 -2 375 29 301 29 c 2
 216 29 l 2
 129 29 87 71 87 121 c 0xf350
 87 156 108 187 144 210 c 1
 84 241 56 287 56 357 c 0
 56 462 133 534 248 534 c 0
 388 532 426 547 477 568 c 1
248 489 m 0xf3a0
 159 489 116 434 116 357 c 0
 116 273 168 225 248 225 c 0
 333 225 380 273 380 356 c 0
 380 438 337 489 248 489 c 0xf3a0
EndSplineSet
EndChar
StartChar: Gdotaccent
Encoding: 288 288 222
Width: 618
Flags: W
HStem: -11 51<281.5 377 281.5 386> 319 50<359 493 359 359> 645 51<297 382.5> 795 84<338 364.5>
VStem: 66 63<240 454 240 463> 308 87<825.5 848.5> 493 59<76 319 319 319>
LayerCount: 2
Fore
SplineSet
351 879 m 0
 378 879 395 860 395 837 c 0
 395 814 378 795 351 795 c 0
 325 795 308 814 308 837 c 0
 308 860 325 879 351 879 c 0
352 696 m 0
 432 696 484 673 540 628 c 1
 504 590 l 1
 456 628 413 645 352 645 c 0
 242 645 129 563 129 345 c 0
 129 135 214 40 349 40 c 0
 405 40 450 52 493 76 c 1
 493 319 l 1
 359 319 l 1
 352 369 l 1
 552 369 l 1
 552 45 l 1
 491 10 423 -11 349 -11 c 0
 179 -11 66 108 66 345 c 0
 66 581 205 696 352 696 c 0
EndSplineSet
EndChar
StartChar: gdotaccent
Encoding: 289 289 223
Width: 506
Flags: W
HStem: -205 48<188.5 312 188.5 327.5> 29 50<172.5 310 225 301> 183 42<237.5 290.5 208 309> 489 45<203.5 248 190.5 292.5> 497 37 514 20G<190.5 248> 548 20G<477 477> 669 84<238 264.5>
VStem: 56 60<322 395.5 315 409.5> 87 55<117.5 138.5> 208 87<699.5 722.5> 380 59<314.5 391 304 397> 419 59<-89 -30>
LayerCount: 2
Fore
SplineSet
251 753 m 0xf3b0
 278 753 295 734 295 711 c 0
 295 688 278 669 251 669 c 0
 225 669 208 688 208 711 c 0
 208 734 225 753 251 753 c 0xf3b0
477 568 m 1
 495 512 l 1xe7b0
 459 502 413 498 350 497 c 1
 405 471 439 427 439 355 c 0xebb0
 439 253 368 183 250 183 c 0
 225 183 202 186 182 193 c 1
 157 179 142 157 142 133 c 0
 142 102 162 79 225 79 c 2
 310 79 l 2
 414 79 478 23 478 -55 c 0
 478 -149 404 -205 251 -205 c 0
 93 -205 33 -159 33 -55 c 1
 87 -55 l 1
 88 -128 126 -157 251 -157 c 0
 373 -157 419 -120 419 -58 c 0
 419 -2 375 29 301 29 c 2
 216 29 l 2
 129 29 87 71 87 121 c 0xf368
 87 156 108 187 144 210 c 1
 84 241 56 287 56 357 c 0
 56 462 133 534 248 534 c 0
 388 532 426 547 477 568 c 1
248 489 m 0xf3b0
 159 489 116 434 116 357 c 0
 116 273 168 225 248 225 c 0
 333 225 380 273 380 356 c 0
 380 438 337 489 248 489 c 0xf3b0
EndSplineSet
EndChar
StartChar: uni0124
Encoding: 292 292 227
Width: 670
Flags: W
HStem: 0 21G<111 171 111 111 499 559 499 499> 335 51<171 499 171 499> 665 20G<111 171 171 171 499 559 559 559>
VStem: 111 60<0 335 0 386 386 685> 499 60<0 335 335 335 386 685 0 685>
LayerCount: 2
Fore
SplineSet
212 762 m 1
 186 792 l 1
 316 894 l 1
 352 894 l 1
 481 792 l 1
 455 762 l 1
 334 842 l 1
 212 762 l 1
499 0 m 1
 499 335 l 1
 171 335 l 1
 171 0 l 1
 111 0 l 1
 111 685 l 1
 171 685 l 1
 171 386 l 1
 499 386 l 1
 499 685 l 1
 559 685 l 1
 559 0 l 1
 499 0 l 1
EndSplineSet
EndChar
StartChar: hcircumflex
Encoding: 293 293 227
Width: 581
Flags: W
HStem: 0 21G<105 163 105 105 423 481 423 423> 487 47<299 356.5> 716 20G<105 105> 723 20G<163 163>
VStem: 105 58<0 379 437 736 736 736> 423 58<0 366 366 374 0 408.5>
LayerCount: 2
Fore
SplineSet
292 893 m 1xdc
 170 813 l 1
 144 843 l 1
 274 945 l 1
 310 945 l 1
 439 843 l 1
 413 813 l 1
 292 893 l 1xdc
336 534 m 0
 430 534 481 473 481 374 c 2
 481 0 l 1
 423 0 l 1
 423 366 l 2
 423 451 388 487 325 487 c 0
 254 487 205 443 163 379 c 1
 163 0 l 1
 105 0 l 1
 105 736 l 1xec
 163 743 l 1
 163 437 l 1
 206 496 262 534 336 534 c 0
EndSplineSet
EndChar
StartChar: Hbar
Encoding: 294 294 228
Width: 674
Flags: W
HStem: 0 21G<113 173 113 113 501 561 501 501> 335 51<173 501 173 501> 513 45<47 113 47 113 173 501 561 627> 513 172<47 173 47 173 113 173 113 501>
VStem: 113 60<0 335 0 386 386 513 558 685> 501 60<0 335 335 335 386 513 0 513 558 685>
LayerCount: 2
Fore
SplineSet
627 558 m 1xec
 627 513 l 1
 561 513 l 1
 561 0 l 1
 501 0 l 1
 501 335 l 1
 173 335 l 1
 173 0 l 1
 113 0 l 1
 113 513 l 1
 47 513 l 1
 47 558 l 1
 113 558 l 1xec
 113 685 l 1
 173 685 l 1xdc
 173 558 l 1
 501 558 l 1xec
 501 685 l 1
 561 685 l 1xdc
 561 558 l 1
 627 558 l 1xec
501 386 m 1
 501 513 l 1
 173 513 l 1
 173 386 l 1
 501 386 l 1
EndSplineSet
EndChar
StartChar: uni0129
Encoding: 297 297 232
Width: 267
Flags: W
HStem: 0 21G<105 163 105 105> 503 20G<105 163 163 163> 666 47<172.5 202.5 172.5 210> 670 20G<-17 -17> 712 46<63.5 92> 718 20G<284 284>
VStem: 105 58<0 523 0 523>
LayerCount: 2
Fore
SplineSet
192 666 m 0xe2
 141 666 109 712 75 712 c 0xda
 52 712 37 699 19 672 c 1xd6
 -17 690 l 1
 5 730 35 758 75 758 c 0xda
 122 758 153 713 192 713 c 0
 213 713 228 725 248 756 c 1xe2
 284 738 l 1xd6
 260 688 228 666 192 666 c 0xe2
163 523 m 1xd6
 163 0 l 1
 105 0 l 1
 105 523 l 1
 163 523 l 1xd6
EndSplineSet
EndChar
StartChar: Imacron
Encoding: 298 298 232
Width: 282
Flags: W
HStem: 0 21G<111 171 111 111> 665 20G<111 171 171 171> 802 47<20 261 20 261>
VStem: 111 60<0 685 0 685>
LayerCount: 2
Fore
SplineSet
261 802 m 1
 20 802 l 1
 20 849 l 1
 261 849 l 1
 261 802 l 1
171 685 m 1
 171 0 l 1
 111 0 l 1
 111 685 l 1
 171 685 l 1
EndSplineSet
EndChar
StartChar: uni012B
Encoding: 299 299 234
Width: 267
Flags: W
HStem: 0 21G<105 163 105 105> 503 20G<105 163 163 163> 676 47<13 254 13 254>
VStem: 105 58<0 523 0 523>
LayerCount: 2
Fore
SplineSet
254 676 m 1
 13 676 l 1
 13 723 l 1
 254 723 l 1
 254 676 l 1
163 523 m 1
 163 0 l 1
 105 0 l 1
 105 523 l 1
 163 523 l 1
EndSplineSet
EndChar
StartChar: Ibreve
Encoding: 300 300 234
Width: 282
Flags: W
HStem: 0 21G<111 171 111 111> 665 20G<111 171 171 171> 765 47<116.5 163.5 116.5 174.5>
VStem: 111 60<0 685 0 685>
LayerCount: 2
Fore
SplineSet
140 765 m 0
 71 765 19 808 10 865 c 1
 50 874 l 1
 63 837 93 812 140 812 c 0
 187 812 218 837 231 874 c 1
 271 865 l 1
 262 808 209 765 140 765 c 0
171 685 m 1
 171 0 l 1
 111 0 l 1
 111 685 l 1
 171 685 l 1
EndSplineSet
EndChar
StartChar: ibreve
Encoding: 301 301 235
Width: 267
Flags: W
HStem: 0 21G<105 163 105 105> 503 20G<105 163 163 163> 653 47<109.5 156.5 109.5 167.5>
VStem: 105 58<0 523 0 523>
LayerCount: 2
Fore
SplineSet
133 653 m 0
 64 653 12 696 3 763 c 1
 43 772 l 1
 56 725 86 700 133 700 c 0
 180 700 211 725 224 772 c 1
 264 763 l 1
 255 696 202 653 133 653 c 0
163 523 m 1
 163 0 l 1
 105 0 l 1
 105 523 l 1
 163 523 l 1
EndSplineSet
EndChar
StartChar: Idotaccent
Encoding: 304 304 238
Width: 282
Flags: W
HStem: 0 21G<111 171 111 111> 665 20G<111 171 171 171> 795 84<127 153.5>
VStem: 97 87<825.5 848.5> 111 60<0 685 0 685>
LayerCount: 2
Fore
SplineSet
140 879 m 0xf0
 167 879 184 860 184 837 c 0
 184 814 167 795 140 795 c 0
 114 795 97 814 97 837 c 0
 97 860 114 879 140 879 c 0xf0
171 685 m 1xe8
 171 0 l 1
 111 0 l 1
 111 685 l 1
 171 685 l 1xe8
EndSplineSet
EndChar
StartChar: dotlessi
Encoding: 305 305 239
Width: 267
Flags: W
HStem: 0 21G<105 163 105 105> 503 20G<105 163 163 163>
VStem: 105 58<0 523 0 523>
LayerCount: 2
Fore
SplineSet
163 523 m 1
 163 0 l 1
 105 0 l 1
 105 523 l 1
 163 523 l 1
EndSplineSet
EndChar
StartChar: uni0131
Encoding: 305 305 240
Width: 267
Flags: W
HStem: 0 21G<105 163 105 105> 503 20G<105 163 163 163>
VStem: 105 58<0 523 0 523>
LayerCount: 2
Fore
SplineSet
163 523 m 1
 163 0 l 1
 105 0 l 1
 105 523 l 1
 163 523 l 1
EndSplineSet
EndChar
StartChar: IJ
Encoding: 306 306 240
Width: 573
Flags: W
HStem: 0 21G<111 171 111 111> 665 20G<111 171 171 171 407 467 467 467>
VStem: 111 60<0 685 0 685> 407 60<95 685>
LayerCount: 2
Fore
SplineSet
171 685 m 1
 171 0 l 1
 111 0 l 1
 111 685 l 1
 171 685 l 1
467 685 m 1
 467 92 l 2
 467 -30 423 -76 311 -119 c 1
 295 -75 l 1
 386 -35 407 2 407 95 c 2
 407 685 l 1
 467 685 l 1
EndSplineSet
EndChar
StartChar: ij
Encoding: 307 307 241
Width: 535
Flags: W
HStem: -203 21G<290 290> 0 21G<105 163 105 105> 503 20G<105 163 163 163 373 431 431 431> 669 84<120 146.5 388 414.5>
VStem: 90 87<699.5 722.5> 105 58<0 523 0 523> 358 87<699.5 722.5> 373 58<17 19 19 523>
LayerCount: 2
Fore
SplineSet
133 753 m 0xfa
 160 753 177 734 177 711 c 0
 177 688 160 669 133 669 c 0
 107 669 90 688 90 711 c 0
 90 734 107 753 133 753 c 0xfa
401 753 m 0
 428 753 445 734 445 711 c 0
 445 688 428 669 401 669 c 0
 375 669 358 688 358 711 c 0
 358 734 375 753 401 753 c 0
163 523 m 1xf5
 163 0 l 1
 105 0 l 1
 105 523 l 1
 163 523 l 1xf5
431 523 m 1
 431 19 l 2
 431 -121 385 -159 290 -203 c 1
 273 -161 l 1
 342 -127 373 -99 373 17 c 2
 373 523 l 1
 431 523 l 1
EndSplineSet
EndChar
StartChar: Jcircumflex
Encoding: 308 308 242
Width: 291
Flags: W
HStem: 665 20G<125 185 185 185>
VStem: 125 60<95 685>
LayerCount: 2
Fore
SplineSet
32 762 m 1
 6 792 l 1
 136 894 l 1
 172 894 l 1
 301 792 l 1
 275 762 l 1
 154 842 l 1
 32 762 l 1
185 685 m 1
 185 92 l 2
 185 -30 141 -76 29 -119 c 1
 13 -75 l 1
 104 -35 125 2 125 95 c 2
 125 685 l 1
 185 685 l 1
EndSplineSet
EndChar
StartChar: uni0136
Encoding: 310 310 244
Width: 547
Flags: W
HStem: 0 21G<111 171 111 111 474 474 474 547> 665 20G<111 171 171 171 461 530 530 530>
VStem: 111 60<0 685 0 685> 263 88<-135 -115 -135 -115>
LayerCount: 2
Fore
SplineSet
171 685 m 1
 171 0 l 1
 111 0 l 1
 111 685 l 1
 171 685 l 1
530 685 m 1
 246 370 l 1
 547 0 l 1
 474 0 l 1
 175 367 l 1
 461 685 l 1
 530 685 l 1
307 -85 m 0
 333 -85 351 -103 351 -127 c 0
 351 -143 346 -156 328 -193 c 2
 288 -279 l 1
 253 -279 l 1
 285 -165 l 1
 271 -156 263 -144 263 -127 c 0
 263 -103 282 -85 307 -85 c 0
EndSplineSet
EndChar
StartChar: uni0137
Encoding: 311 311 245
Width: 487
Flags: W
HStem: 0 21G<105 163 105 105 409 409 409 479> 503 20G<388 456 456 456> 716 20G<105 105> 723 20G<163 163>
VStem: 105 58<0 736 736 736> 218 88<-135 -115 -135 -115>
LayerCount: 2
Fore
SplineSet
163 743 m 1xd8
 163 0 l 1
 105 0 l 1
 105 736 l 1xec
 163 743 l 1xd8
456 523 m 1
 236 289 l 1
 479 0 l 1
 409 0 l 1
 169 286 l 1
 388 523 l 1
 456 523 l 1
262 -85 m 0
 288 -85 306 -103 306 -127 c 0
 306 -143 301 -156 283 -193 c 2
 243 -279 l 1
 208 -279 l 1
 240 -165 l 1
 226 -156 218 -144 218 -127 c 0
 218 -103 237 -85 262 -85 c 0
EndSplineSet
EndChar
StartChar: kgreenlandic
Encoding: 312 312 246
Width: 486
Flags: W
HStem: 0 21G<105 163 105 105 408 408 408 477> 503 20G<105 163 163 163 387 454 454 454>
VStem: 105 58<0 523 0 523>
LayerCount: 2
Fore
SplineSet
163 523 m 1
 163 0 l 1
 105 0 l 1
 105 523 l 1
 163 523 l 1
454 523 m 1
 235 279 l 1
 477 0 l 1
 408 0 l 1
 167 276 l 1
 387 523 l 1
 454 523 l 1
EndSplineSet
EndChar
StartChar: Lacute
Encoding: 313 313 247
Width: 477
Flags: W
HStem: 0 54<171 449> 665 20G<111 171 171 171>
VStem: 111 60<54 685 54 685 54 685>
LayerCount: 2
Fore
SplineSet
222 888 m 1
 248 836 l 1
 50 758 l 1
 34 792 l 1
 222 888 l 1
171 685 m 1
 171 54 l 1
 457 54 l 1
 449 0 l 1
 111 0 l 1
 111 685 l 1
 171 685 l 1
EndSplineSet
EndChar
StartChar: uni013B
Encoding: 315 315 250
Width: 477
Flags: W
HStem: 0 54<171 449> 665 20G<111 171 171 171>
VStem: 111 60<54 685 54 685 54 685> 238 88<-135 -115 -135 -115>
LayerCount: 2
Fore
SplineSet
171 685 m 1
 171 54 l 1
 457 54 l 1
 449 0 l 1
 111 0 l 1
 111 685 l 1
 171 685 l 1
282 -85 m 0
 308 -85 326 -103 326 -127 c 0
 326 -143 321 -156 303 -193 c 2
 263 -279 l 1
 228 -279 l 1
 260 -165 l 1
 246 -156 238 -144 238 -127 c 0
 238 -103 257 -85 282 -85 c 0
EndSplineSet
EndChar
StartChar: uni013C
Encoding: 316 316 250
Width: 290
Flags: W
HStem: -11 50<185 203> 716 20G<99 99> 723 20G<157 157>
VStem: 99 58<88 90 90 736 736 736> 134 88<-135 -115 -135 -115>
LayerCount: 2
Fore
SplineSet
192 -11 m 0xb0
 137 -11 99 21 99 88 c 2
 99 736 l 1xd0
 157 743 l 1
 157 90 l 2
 157 56 171 39 199 39 c 0
 212 39 225 41 236 46 c 1
 251 3 l 1
 235 -5 214 -11 192 -11 c 0xb0
178 -85 m 0xa8
 204 -85 222 -103 222 -127 c 0
 222 -143 217 -156 199 -193 c 2
 159 -279 l 1
 124 -279 l 1
 156 -165 l 1
 142 -156 134 -144 134 -127 c 0
 134 -103 153 -85 178 -85 c 0xa8
EndSplineSet
EndChar
StartChar: uni013E
Encoding: 318 318 253
Width: 290
Flags: W
HStem: -11 50<185 203> 552 20G<252 252> 716 20G<99 99 291 291> 723 20G<157 157>
VStem: 99 58<88 90 90 736 736 736>
LayerCount: 2
Fore
SplineSet
192 -11 m 0xd8
 137 -11 99 21 99 88 c 2
 99 736 l 1xe8
 157 743 l 1
 157 90 l 2
 157 56 171 39 199 39 c 0
 212 39 225 41 236 46 c 1
 251 3 l 1
 235 -5 214 -11 192 -11 c 0xd8
252 572 m 1
 291 736 l 1
 235 742 l 1
 216 577 l 1
 252 572 l 1
EndSplineSet
EndChar
StartChar: Ldot
Encoding: 319 319 253
Width: 477
Flags: W
HStem: 0 54<171 449> 327 84<356 382.5> 665 20G<111 171 171 171>
VStem: 111 60<54 685 54 685 54 685> 326 87<357.5 380.5>
LayerCount: 2
Fore
SplineSet
171 685 m 1
 171 54 l 1
 457 54 l 1
 449 0 l 1
 111 0 l 1
 111 685 l 1
 171 685 l 1
369 411 m 0
 396 411 413 392 413 369 c 0
 413 346 396 327 369 327 c 0
 343 327 326 346 326 369 c 0
 326 392 343 411 369 411 c 0
EndSplineSet
EndChar
StartChar: ldot
Encoding: 320 320 254
Width: 301
Flags: W
HStem: -11 50<185 203> 334 84<265 291.5> 716 20G<99 99> 723 20G<157 157>
VStem: 99 58<88 90 90 736 736 736> 235 86<364.5 387.5>
LayerCount: 2
Fore
SplineSet
192 -11 m 0xd8
 137 -11 99 21 99 88 c 2
 99 736 l 1xe8
 157 743 l 1
 157 90 l 2
 157 56 171 39 199 39 c 0
 212 39 225 41 236 46 c 1
 251 3 l 1
 235 -5 214 -11 192 -11 c 0xd8
278 418 m 0xdc
 305 418 321 399 321 376 c 0
 321 353 305 334 278 334 c 0
 252 334 235 353 235 376 c 0
 235 399 252 418 278 418 c 0xdc
EndSplineSet
EndChar
StartChar: uni0141
Encoding: 321 321 256
Width: 488
Flags: W
HStem: 0 54<181 459> 665 20G<121 181 181 181>
VStem: 121 60<54 54 54 282 282 282 372 685>
LayerCount: 2
Fore
SplineSet
181 54 m 1
 468 54 l 1
 459 0 l 1
 121 0 l 1
 121 282 l 1
 57 241 l 1
 33 280 l 1
 121 335 l 1
 121 685 l 1
 181 685 l 1
 181 372 l 1
 362 485 l 1
 387 446 l 1
 181 319 l 1
 181 54 l 1
EndSplineSet
EndChar
StartChar: uni0142
Encoding: 322 322 257
Width: 299
Flags: W
HStem: -11 50<191 209> 716 20G<106 106> 723 20G<164 164>
VStem: 106 58<88 90 90 321 321 321 409 736 736 736>
LayerCount: 2
Fore
SplineSet
205 39 m 0xb0
 219 39 231 41 242 46 c 1
 258 3 l 1
 242 -5 220 -11 198 -11 c 0
 143 -11 106 21 106 88 c 2
 106 321 l 1
 50 287 l 1
 27 325 l 1
 106 374 l 1
 106 736 l 1xd0
 164 743 l 1
 164 409 l 1
 264 470 l 1
 286 431 l 1
 164 357 l 1
 164 90 l 2
 164 56 177 39 205 39 c 0xb0
EndSplineSet
EndChar
StartChar: nacute
Encoding: 324 324 258
Width: 581
Flags: W
HStem: 0 21G<105 163 105 105 423 481 423 423> 487 47<298.5 357> 503 20G<105 155 155 155>
VStem: 105 58<0 379 0 523> 423 58<0 366 366 374 0 409>
LayerCount: 2
Fore
SplineSet
397 730 m 1xd8
 202 645 l 1
 183 679 l 1
 371 782 l 1
 397 730 l 1xd8
336 534 m 0
 431 534 481 475 481 374 c 2
 481 0 l 1
 423 0 l 1
 423 366 l 2
 423 452 389 487 325 487 c 0xd8
 254 487 205 443 163 379 c 1
 163 0 l 1
 105 0 l 1
 105 523 l 1
 155 523 l 1xb8
 160 435 l 1
 202 494 261 534 336 534 c 0
EndSplineSet
EndChar
StartChar: uni0146
Encoding: 326 326 260
Width: 581
Flags: W
HStem: 0 21G<105 163 105 105 423 481 423 423> 487 47<298.5 357> 503 20G<105 155 155 155>
VStem: 105 58<0 379 0 523> 247 88<-135 -115 -135 -115> 423 58<0 366 366 374 0 409>
LayerCount: 2
Fore
SplineSet
336 534 m 0xd4
 431 534 481 475 481 374 c 2
 481 0 l 1
 423 0 l 1
 423 366 l 2
 423 452 389 487 325 487 c 0xd4
 254 487 205 443 163 379 c 1
 163 0 l 1
 105 0 l 1
 105 523 l 1
 155 523 l 1xb4
 160 435 l 1
 202 494 261 534 336 534 c 0xd4
291 -85 m 0xdc
 317 -85 335 -103 335 -127 c 0
 335 -143 330 -156 312 -193 c 2
 272 -279 l 1
 237 -279 l 1
 269 -165 l 1
 255 -156 247 -144 247 -127 c 0
 247 -103 266 -85 291 -85 c 0xdc
EndSplineSet
EndChar
StartChar: ncaron
Encoding: 328 328 262
Width: 581
Flags: W
HStem: 0 21G<105 163 105 105 423 481 423 423> 487 47<298.5 357> 503 20G<105 155 155 155> 633 52<296 296 296 314 278 296> 665 20G<296 296> 719 20G<148 148 443 443>
VStem: 105 58<0 379 0 523> 423 58<0 366 366 374 0 409>
LayerCount: 2
Fore
SplineSet
314 633 m 1xd7
 278 633 l 1
 148 739 l 1
 174 769 l 1
 296 685 l 1
 417 769 l 1
 443 739 l 1
 314 633 l 1xd7
336 534 m 0
 431 534 481 475 481 374 c 2
 481 0 l 1
 423 0 l 1
 423 366 l 2
 423 452 389 487 325 487 c 0xcf
 254 487 205 443 163 379 c 1
 163 0 l 1
 105 0 l 1
 105 523 l 1
 155 523 l 1xaf
 160 435 l 1
 202 494 261 534 336 534 c 0
EndSplineSet
EndChar
StartChar: napostrophe
Encoding: 329 329 263
Width: 664
Flags: W
HStem: 0 21G<188 246 188 188 507 565 507 507> 487 47<381 440> 503 20G<188 238 238 238> 725 20G<85.5 111.5>
VStem: 54 88<694 714 694 714> 188 58<0 379 0 523> 507 58<0 366 366 374 0 409>
LayerCount: 2
Fore
SplineSet
98 745 m 0xde
 125 745 142 726 142 702 c 0
 142 686 136 674 120 636 c 2
 84 547 l 1
 48 547 l 1
 76 665 l 1
 61 673 54 685 54 702 c 0
 54 726 73 745 98 745 c 0xde
419 534 m 0
 514 534 565 475 565 374 c 2
 565 0 l 1
 507 0 l 1
 507 366 l 2
 507 452 472 487 408 487 c 0xde
 337 487 289 443 246 379 c 1
 246 0 l 1
 188 0 l 1
 188 523 l 1
 238 523 l 1xbe
 244 434 l 1
 285 494 343 534 419 534 c 0
EndSplineSet
EndChar
StartChar: uni014A
Encoding: 330 330 265
Width: 673
Flags: W
HStem: -205 49<417 453.5 417 473.5> 0 21G<111 168 111 111 483 502 483 483> 619 66<160 160> 665 20G<111 188 188 188 505 562 562 562>
VStem: 111 57<0 383 0 685> 505 57<269 685>
LayerCount: 2
Fore
SplineSet
505 685 m 1xdc
 562 685 l 1
 562 -71 l 2
 562 -161 511 -205 436 -205 c 0
 390 -205 357 -188 335 -171 c 1
 359 -133 l 1
 380 -146 400 -156 434 -156 c 0
 473 -156 502 -133 502 -72 c 2
 502 0 l 1
 483 0 l 1
 160 619 l 1xec
 163 572 168 506 168 383 c 2
 168 0 l 1
 111 0 l 1
 111 685 l 1
 188 685 l 1
 513 66 l 1
 511 95 505 180 505 269 c 2
 505 685 l 1xdc
EndSplineSet
EndChar
StartChar: eng
Encoding: 331 331 265
Width: 582
Flags: W
HStem: -205 48<338 375 338 395> 0 21G<105 163 105 105 423 425 423 423> 487 47<298.5 357> 503 20G<105 155 155 155>
VStem: 105 58<0 379 0 523> 423 58<1 1 1 366 366 374>
LayerCount: 2
Fore
SplineSet
481 1 m 1xec
 483 1 l 1
 483 -71 l 2
 483 -161 432 -205 358 -205 c 0
 311 -205 278 -188 256 -171 c 1
 280 -134 l 1
 301 -147 321 -157 355 -157 c 0
 395 -157 425 -136 425 -74 c 2
 425 0 l 1
 423 0 l 1
 423 366 l 2
 423 452 389 487 325 487 c 0xec
 254 487 205 443 163 379 c 1
 163 0 l 1
 105 0 l 1
 105 523 l 1
 155 523 l 1xdc
 160 435 l 1
 202 494 261 534 336 534 c 0
 431 534 481 475 481 374 c 2
 481 1 l 1xec
EndSplineSet
EndChar
StartChar: Obreve
Encoding: 334 334 268
Width: 691
Flags: W
HStem: -11 51<281.5 412 281.5 430> 645 51<280.5 411> 765 47<321.5 368.5 321.5 379.5>
VStem: 66 63<238.5 445 238.5 454> 562 63<239 446>
LayerCount: 2
Fore
SplineSet
345 765 m 0
 276 765 224 808 215 865 c 1
 255 874 l 1
 268 837 298 812 345 812 c 0
 392 812 423 837 436 874 c 1
 476 865 l 1
 467 808 414 765 345 765 c 0
345 696 m 0
 512 696 625 573 625 342 c 0
 625 117 515 -11 345 -11 c 0
 180 -11 66 113 66 341 c 0
 66 567 181 696 345 696 c 0
345 645 m 0
 216 645 129 549 129 341 c 0
 129 136 218 40 345 40 c 0
 479 40 562 136 562 342 c 0
 562 550 477 645 345 645 c 0
EndSplineSet
EndChar
StartChar: uni0151
Encoding: 337 337 272
Width: 571
Flags: W
HStem: -11 49<235 335 235 354> 485 49<236.5 336.5> 721 20G<482 482>
VStem: 64 62<187.5 336 187.5 345> 446 61<188 336.5>
LayerCount: 2
Fore
SplineSet
305 783 m 1
 349 753 l 1
 233 598 l 1
 203 617 l 1
 305 783 l 1
439 774 m 1
 482 741 l 1
 358 593 l 1
 329 614 l 1
 439 774 l 1
286 534 m 0
 425 534 507 434 507 263 c 0
 507 94 423 -11 285 -11 c 0
 146 -11 64 93 64 261 c 0
 64 429 149 534 286 534 c 0
286 485 m 0
 187 485 126 411 126 261 c 0
 126 114 185 38 285 38 c 0
 385 38 446 113 446 263 c 0
 446 410 387 485 286 485 c 0
EndSplineSet
EndChar
StartChar: uni0152
Encoding: 338 338 273
Width: 870
Flags: W
HStem: -11 51<276.5 346> 0 40<276.5 824 276.5 403> 0 50<489 824 489 824> 330 50<605 772 605 605> 635 50<493 810 493 493> 645 40<275.5 817> 645 51<275.5 346.5 257.5 396>
VStem: 66 63<238.5 445 238.5 454> 542 62<380 380 380 448.5>
LayerCount: 2
Fore
SplineSet
824 50 m 1x3980
 824 0 l 1
 403 0 l 1x3980
 382 -7 358 -11 334 -11 c 0
 180 -11 66 113 66 341 c 0
 66 567 181 696 334 696 c 0x9380
 359 696 384 692 406 685 c 1
 817 685 l 1
 810 635 l 1
 493 635 l 1
 558 584 598 497 604 380 c 1
 772 380 l 1
 772 330 l 1
 605 330 l 1
 602 200 560 104 489 50 c 1
 824 50 l 1x3980
129 341 m 0x5580
 129 136 218 40 335 40 c 0
 459 40 542 136 542 347 c 0
 542 550 457 645 335 645 c 0
 216 645 129 549 129 341 c 0x5580
EndSplineSet
EndChar
StartChar: oe
Encoding: 339 339 273
Width: 916
Flags: W
HStem: -11 49<235 331 625 698.5> 239 45<507 801 507 857 507 801> 485 49<236.5 332.5 217.5 336.5>
VStem: 64 62<187.5 336 187.5 345> 446 61<239 239 239 284 239 336.5> 801 58<284 299 299 356>
LayerCount: 2
Fore
SplineSet
859 281 m 0
 859 265 858 249 857 239 c 1
 507 239 l 1
 514 97 580 38 670 38 c 0
 727 38 766 56 811 90 c 1
 838 53 l 1
 790 13 737 -11 667 -11 c 0
 574 -11 510 38 475 120 c 1
 440 39 377 -11 285 -11 c 0
 146 -11 64 93 64 261 c 0
 64 429 149 534 286 534 c 0
 379 534 443 486 477 405 c 1
 511 484 572 534 657 534 c 0
 790 534 859 435 859 281 c 0
801 284 m 1
 801 299 l 2
 801 413 755 486 659 486 c 0
 576 486 513 426 507 284 c 1
 801 284 l 1
285 38 m 0
 385 38 446 113 446 263 c 0
 446 410 387 485 286 485 c 0
 187 485 126 411 126 261 c 0
 126 114 185 38 285 38 c 0
EndSplineSet
EndChar
StartChar: uni0155
Encoding: 341 341 276
Width: 372
Flags: W
HStem: 0 21G<105 163 105 105> 479 55<271 311> 503 20G<105 155 155 155> 508 20G<359 359>
VStem: 105 58<0 320 0 523>
LayerCount: 2
Fore
SplineSet
333 730 m 1xc8
 138 645 l 1
 119 679 l 1
 307 782 l 1
 333 730 l 1xc8
307 534 m 0
 328 534 346 532 359 528 c 1x98
 348 473 l 1
 334 477 320 479 302 479 c 0xc8
 230 479 191 427 163 320 c 1
 163 0 l 1
 105 0 l 1
 105 523 l 1
 155 523 l 1xa8
 160 406 l 1
 187 492 235 534 307 534 c 0
EndSplineSet
EndChar
StartChar: uni0156
Encoding: 342 342 276
Width: 590
Flags: W
HStem: 0 21G<111 171 111 111 485 556 485 485> 307 49<171 285 285 308 171 285> 636 49<171 275 171 171>
VStem: 111 60<0 307 356 636> 263 88<-135 -115 -135 -115> 457 64<449 544.5>
LayerCount: 2
Fore
SplineSet
368 318 m 1
 556 0 l 1
 485 0 l 1
 308 307 l 1
 171 307 l 1
 171 0 l 1
 111 0 l 1
 111 685 l 1
 277 685 l 2
 442 685 521 620 521 499 c 0
 521 397 465 343 368 318 c 1
171 356 m 1
 285 356 l 2
 394 356 457 399 457 499 c 0
 457 590 406 636 275 636 c 2
 171 636 l 1
 171 356 l 1
307 -85 m 0
 333 -85 351 -103 351 -127 c 0
 351 -143 346 -156 328 -193 c 2
 288 -279 l 1
 253 -279 l 1
 285 -165 l 1
 271 -156 263 -144 263 -127 c 0
 263 -103 282 -85 307 -85 c 0
EndSplineSet
EndChar
StartChar: uni0159
Encoding: 345 345 280
Width: 372
Flags: W
HStem: 0 21G<105 163 105 105> 479 55<271 311> 503 20G<105 155 155 155> 508 20G<359 359> 633 52<232 232 232 250 214 232> 665 20G<232 232> 719 20G<84 84 379 379>
VStem: 105 58<0 320 0 523>
LayerCount: 2
Fore
SplineSet
250 633 m 1xcb
 214 633 l 1
 84 739 l 1
 110 769 l 1
 232 685 l 1
 353 769 l 1
 379 739 l 1
 250 633 l 1xcb
160 406 m 1
 187 492 235 534 307 534 c 0xc7
 328 534 346 532 359 528 c 1x97
 348 473 l 1
 334 477 320 479 302 479 c 0xc7
 230 479 191 427 163 320 c 1
 163 0 l 1
 105 0 l 1
 105 523 l 1
 155 523 l 1xa7
 160 406 l 1
EndSplineSet
EndChar
StartChar: sacute
Encoding: 347 347 281
Width: 458
Flags: W
HStem: -11 49<190.5 260.5 190.5 275.5> 486 48<198.5 259.5>
VStem: 57 60<372 425 372 437> 351 61<106 169.5>
LayerCount: 2
Fore
SplineSet
312 782 m 1
 338 730 l 1
 143 645 l 1
 124 679 l 1
 312 782 l 1
231 534 m 0
 298 534 349 514 398 476 c 1
 371 438 l 1
 325 470 286 486 233 486 c 0
 164 486 117 452 117 398 c 0
 117 346 151 324 244 299 c 0
 359 269 412 230 412 141 c 0
 412 44 328 -11 223 -11 c 0
 138 -11 81 18 36 56 c 1
 68 93 l 1
 113 58 158 38 223 38 c 0
 298 38 351 74 351 138 c 0
 351 201 322 224 214 254 c 0
 102 283 57 324 57 397 c 0
 57 477 132 534 231 534 c 0
EndSplineSet
EndChar
StartChar: Scedilla
Encoding: 350 350 284
Width: 539
Flags: W
HStem: -227 42<253 281 253 295.5> -206 21G -96 32<232 280> -11 51<240 240> -10 50<280 280> 645 51<227 300.5>
VStem: 66 61<494 565 494 576.5> 236 44 321 51<-156 -125.5> 424 61<139 226.5>
LayerCount: 2
Fore
SplineSet
485 187 m 0x6fc0
 485 76 405 -2 280 -10 c 1
 280 -64 l 1
 345 -69 372 -99 372 -140 c 0
 372 -197 324 -227 267 -227 c 0xafc0
 232 -227 205 -218 187 -206 c 1x77c0
 205 -170 l 1
 221 -179 240 -185 266 -185 c 0
 296 -185 321 -172 321 -140 c 0
 321 -111 295 -96 232 -96 c 1
 240 -11 l 1
 155 -7 91 26 39 75 c 1
 73 113 l 1
 124 69 177 40 257 40 c 0xb7c0
 353 40 424 93 424 185 c 0
 424 268 383 302 261 340 c 0
 125 382 66 429 66 528 c 0
 66 625 147 696 267 696 c 0
 356 696 410 668 464 620 c 1
 429 582 l 1
 378 626 332 645 269 645 c 0
 185 645 127 601 127 529 c 0
 127 459 164 427 287 390 c 0
 410 352 485 308 485 187 c 0x6fc0
EndSplineSet
EndChar
StartChar: uni015F
Encoding: 351 351 286
Width: 458
Flags: W
HStem: -227 42<217 245 217 259.5> -206 21G -96 32<196 244> -10 48<204 204 244 244> 486 48<198.5 259.5>
VStem: 57 60<372 425 372 437> 200 44 285 51<-156 -125.5> 351 61<106 169.5>
LayerCount: 2
Fore
SplineSet
412 141 m 0x7e80
 412 51 339 -3 244 -10 c 1
 244 -64 l 1
 309 -69 336 -99 336 -140 c 0
 336 -197 288 -227 231 -227 c 0xbf80
 196 -227 169 -218 151 -206 c 1x7e80
 169 -170 l 1
 185 -179 204 -185 230 -185 c 0
 260 -185 285 -172 285 -140 c 0xbf80
 285 -111 259 -96 196 -96 c 1
 204 -10 l 1
 129 -6 77 21 36 56 c 1
 68 93 l 1
 113 58 158 38 223 38 c 0
 298 38 351 74 351 138 c 0
 351 201 322 224 214 254 c 0
 102 283 57 324 57 397 c 0
 57 477 132 534 231 534 c 0
 298 534 349 514 398 476 c 1
 371 438 l 1
 325 470 286 486 233 486 c 0
 164 486 117 452 117 398 c 0
 117 346 151 324 244 299 c 0
 359 269 412 230 412 141 c 0x7e80
EndSplineSet
EndChar
StartChar: uni0163
Encoding: 355 355 289
Width: 344
Flags: W
HStem: -227 42<215 243 215 257.5> -206 21G -96 32<194 242> -11 50<242 242> -8 21G<202 202> 476 47<18 106 18 106 164 292>
VStem: 106 58<127 130 130 476 523 648 648 648> 198 44 283 51<-156 -125.5>
LayerCount: 2
Fore
SplineSet
242 -64 m 1x7780
 307 -69 334 -99 334 -140 c 0
 334 -197 286 -227 229 -227 c 0xb780
 194 -227 167 -218 149 -206 c 1x7780
 167 -170 l 1
 183 -179 202 -185 228 -185 c 0
 258 -185 283 -172 283 -140 c 0
 283 -111 257 -96 194 -96 c 1
 202 -8 l 1xaf80
 142 3 106 49 106 127 c 2
 106 476 l 1
 18 476 l 1
 18 523 l 1
 106 523 l 1
 106 648 l 1
 164 655 l 1
 164 523 l 1
 299 523 l 1
 292 476 l 1
 164 476 l 1
 164 130 l 2
 164 69 188 39 241 39 c 0
 270 39 295 47 321 62 c 1
 344 22 l 1
 314 2 281 -9 242 -11 c 1
 242 -64 l 1x7780
EndSplineSet
EndChar
StartChar: Tcaron
Encoding: 356 356 290
Width: 495
Flags: W
HStem: 0 21G<218 277 218 218> 632 53<15 218 15 485 277 478 277 277>
VStem: 218 59<0 632 0 632>
LayerCount: 2
Fore
SplineSet
369 888 m 1
 395 857 l 1
 266 756 l 1
 230 756 l 1
 100 857 l 1
 126 888 l 1
 248 808 l 1
 369 888 l 1
485 685 m 1
 478 632 l 1
 277 632 l 1
 277 0 l 1
 218 0 l 1
 218 632 l 1
 15 632 l 1
 15 685 l 1
 485 685 l 1
EndSplineSet
EndChar
StartChar: uni0165
Encoding: 357 357 292
Width: 344
Flags: W
HStem: -11 50<214.5 255> 476 47<18 106 18 106 164 292> 721 20G<284 284> 727 20G<228 228>
VStem: 106 58<127 130 130 476 523 648 648 648>
LayerCount: 2
Fore
SplineSet
284 741 m 1xe8
 245 577 l 1
 209 582 l 1
 228 747 l 1xd8
 284 741 l 1xe8
321 62 m 1
 344 22 l 1
 312 1 276 -11 234 -11 c 0
 155 -11 106 36 106 127 c 2
 106 476 l 1
 18 476 l 1
 18 523 l 1
 106 523 l 1
 106 648 l 1
 164 655 l 1
 164 523 l 1
 299 523 l 1
 292 476 l 1
 164 476 l 1
 164 130 l 2
 164 69 188 39 241 39 c 0
 270 39 295 47 321 62 c 1
EndSplineSet
EndChar
StartChar: uni0169
Encoding: 361 361 296
Width: 576
Flags: W
HStem: -11 48<226.5 287.5> 0 21G<422 471 422 422> 503 20G<99 157 157 157 413 471 471 471> 666 47<324.5 354.5 324.5 362> 670 20G<135 135> 712 46<215.5 244> 718 20G<436 436>
VStem: 99 58<149 155 155 523> 413 58<144 523 0 523>
LayerCount: 2
Fore
SplineSet
344 666 m 0xb180
 293 666 261 712 227 712 c 0xad80
 204 712 189 699 171 672 c 1xab80
 135 690 l 1
 157 730 187 758 227 758 c 0xad80
 274 758 305 713 344 713 c 0
 365 713 380 725 400 756 c 1xb180
 436 738 l 1xab80
 412 688 380 666 344 666 c 0xb180
471 523 m 1xab80
 471 0 l 1
 422 0 l 1x6b80
 418 93 l 1
 382 31 328 -11 247 -11 c 0
 154 -11 99 46 99 149 c 2
 99 523 l 1
 157 523 l 1
 157 155 l 2
 157 72 192 37 261 37 c 0
 329 37 377 82 413 144 c 1
 413 523 l 1
 471 523 l 1xab80
EndSplineSet
EndChar
StartChar: umacron
Encoding: 363 363 297
Width: 576
Flags: W
HStem: -11 48<226.5 287.5> 0 21G<422 471 422 422> 503 20G<99 157 157 157 413 471 471 471> 676 47<165 406 165 406>
VStem: 99 58<149 155 155 523> 165 241<676 723 676 723> 413 58<144 523 0 523>
LayerCount: 2
Fore
SplineSet
406 676 m 1xbc
 165 676 l 1
 165 723 l 1
 406 723 l 1
 406 676 l 1xbc
471 523 m 1xba
 471 0 l 1
 422 0 l 1x7a
 418 93 l 1
 382 31 328 -11 247 -11 c 0
 154 -11 99 46 99 149 c 2
 99 523 l 1
 157 523 l 1
 157 155 l 2
 157 72 192 37 261 37 c 0
 329 37 377 82 413 144 c 1
 413 523 l 1
 471 523 l 1xba
EndSplineSet
EndChar
StartChar: Ubreve
Encoding: 364 364 298
Width: 652
Flags: W
HStem: -11 52<268.5 383.5 268.5 401> 665 20G<101 161 161 161 490 551 551 551> 765 47<301.5 348.5 301.5 359.5>
VStem: 101 60<214 219 219 685> 490 61<219 685>
LayerCount: 2
Fore
SplineSet
325 765 m 0
 256 765 204 808 195 865 c 1
 235 874 l 1
 248 837 278 812 325 812 c 0
 372 812 403 837 416 874 c 1
 456 865 l 1
 447 808 394 765 325 765 c 0
551 685 m 1
 551 214 l 2
 551 82 476 -11 326 -11 c 0
 174 -11 101 82 101 214 c 2
 101 685 l 1
 161 685 l 1
 161 219 l 2
 161 108 211 41 326 41 c 0
 441 41 490 109 490 219 c 2
 490 685 l 1
 551 685 l 1
EndSplineSet
EndChar
StartChar: uni016D
Encoding: 365 365 300
Width: 576
Flags: W
HStem: -11 48<226.5 287.5> 0 21G<422 471 422 422> 503 20G<99 157 157 157 413 471 471 471> 653 47<261.5 308.5 261.5 319.5>
VStem: 99 58<149 155 155 523> 413 58<144 523 0 523>
LayerCount: 2
Fore
SplineSet
285 653 m 0xbc
 216 653 164 696 155 763 c 1
 195 772 l 1
 208 725 238 700 285 700 c 0
 332 700 363 725 376 772 c 1
 416 763 l 1
 407 696 354 653 285 653 c 0xbc
471 523 m 1
 471 0 l 1
 422 0 l 1x7c
 418 93 l 1
 382 31 328 -11 247 -11 c 0
 154 -11 99 46 99 149 c 2
 99 523 l 1
 157 523 l 1
 157 155 l 2
 157 72 192 37 261 37 c 0
 329 37 377 82 413 144 c 1
 413 523 l 1
 471 523 l 1
EndSplineSet
EndChar
StartChar: Uring
Encoding: 366 366 300
Width: 652
Flags: W
HStem: -11 52<268.5 383.5 268.5 401> 665 20G<101 161 161 161 490 551 551 551> 759 36<308 343 308 355> 911 36<308 343.5>
VStem: 101 60<214 219 219 685> 227 43<834.5 871 834.5 880> 381 43<834.5 871> 490 61<219 685>
LayerCount: 2
Fore
SplineSet
326 947 m 0
 384 947 424 907 424 853 c 0
 424 798 384 759 326 759 c 0
 267 759 227 798 227 853 c 0
 227 907 267 947 326 947 c 0
326 911 m 0
 290 911 270 889 270 853 c 0
 270 816 290 795 326 795 c 0
 360 795 381 816 381 853 c 0
 381 889 361 911 326 911 c 0
551 685 m 1
 551 214 l 2
 551 82 476 -11 326 -11 c 0
 174 -11 101 82 101 214 c 2
 101 685 l 1
 161 685 l 1
 161 219 l 2
 161 108 211 41 326 41 c 0
 441 41 490 109 490 219 c 2
 490 685 l 1
 551 685 l 1
EndSplineSet
EndChar
StartChar: uring
Encoding: 367 367 301
Width: 576
Flags: W
HStem: -11 48<226.5 287.5> 0 21G<422 471 422 422> 503 20G<99 157 157 157 413 471 471 471> 633 36<268 303 268 315> 785 36<268 303.5>
VStem: 99 58<149 155 155 523> 187 43<708.5 745 708.5 754> 341 43<708.5 745> 413 58<144 523 0 523>
LayerCount: 2
Fore
SplineSet
286 821 m 0xbf80
 344 821 384 781 384 727 c 0
 384 672 344 633 286 633 c 0
 227 633 187 672 187 727 c 0
 187 781 227 821 286 821 c 0xbf80
286 785 m 0
 250 785 230 763 230 727 c 0
 230 690 250 669 286 669 c 0
 320 669 341 690 341 727 c 0
 341 763 321 785 286 785 c 0
471 523 m 1xbc80
 471 0 l 1
 422 0 l 1x7c80
 418 93 l 1
 382 31 328 -11 247 -11 c 0
 154 -11 99 46 99 149 c 2
 99 523 l 1
 157 523 l 1
 157 155 l 2
 157 72 192 37 261 37 c 0
 329 37 377 82 413 144 c 1
 413 523 l 1
 471 523 l 1xbc80
EndSplineSet
EndChar
StartChar: uhungarumlaut
Encoding: 369 369 303
Width: 576
Flags: W
HStem: -11 48<226.5 287.5> 0 21G<422 471 422 422> 503 20G<99 157 157 157 413 471 471 471> 721 20G<482 482>
VStem: 99 58<149 155 155 523> 413 58<144 523 0 523>
LayerCount: 2
Fore
SplineSet
305 783 m 1xbc
 349 753 l 1
 233 598 l 1
 203 617 l 1
 305 783 l 1xbc
439 774 m 1
 482 741 l 1
 358 593 l 1
 329 614 l 1
 439 774 l 1
471 523 m 1
 471 0 l 1
 422 0 l 1x7c
 418 93 l 1
 382 31 328 -11 247 -11 c 0
 154 -11 99 46 99 149 c 2
 99 523 l 1
 157 523 l 1
 157 155 l 2
 157 72 192 37 261 37 c 0
 329 37 377 82 413 144 c 1
 413 523 l 1
 471 523 l 1
EndSplineSet
EndChar
StartChar: uni0172
Encoding: 370 370 305
Width: 652
Flags: W
HStem: -218 48<327 353> -11 52 665 20G<101 161 161 161 490 551 551 551>
VStem: 101 60<214 219 219 685> 231 54<-133.5 -101.5> 490 61<219 685>
LayerCount: 2
Fore
SplineSet
490 685 m 1
 551 685 l 1
 551 214 l 2
 551 108 502 27 405 -1 c 1
 318 -40 285 -71 285 -118 c 0
 285 -149 305 -170 349 -170 c 0
 368 -170 383 -168 406 -163 c 1
 400 -211 l 1
 380 -215 364 -218 342 -218 c 0
 269 -218 231 -178 231 -126 c 0
 231 -77 263 -39 324 -11 c 1
 173 -10 101 82 101 214 c 2
 101 685 l 1
 161 685 l 1
 161 219 l 2
 161 108 211 41 326 41 c 0
 441 41 490 109 490 219 c 2
 490 685 l 1
EndSplineSet
EndChar
StartChar: Wcircumflex
Encoding: 372 372 306
Width: 810
Flags: W
HStem: 0 56<221 221 221 254 181 221> 618 67<404 404> 665 20G<30 91 91 91 371 438 438 438 722 779 779 779>
VStem: 30 749<685 685>
LayerCount: 2
Fore
SplineSet
282 762 m 1xb0
 256 792 l 1
 386 894 l 1
 422 894 l 1
 551 792 l 1
 525 762 l 1
 404 842 l 1
 282 762 l 1xb0
779 685 m 1
 629 0 l 1
 554 0 l 1
 404 618 l 1xd0
 254 0 l 1
 181 0 l 1
 30 685 l 1
 91 685 l 1
 221 56 l 1
 371 685 l 1
 438 685 l 1
 591 56 l 1
 722 685 l 1
 779 685 l 1
EndSplineSet
EndChar
StartChar: uni0175
Encoding: 373 373 308
Width: 698
Flags: W
HStem: 0 44<505 505 505 545 467 505> 469 54<351 351>
VStem: 25 648<523 523>
LayerCount: 2
Fore
SplineSet
228 643 m 1
 202 674 l 1
 331 779 l 1
 367 779 l 1
 497 674 l 1
 471 643 l 1
 349 728 l 1
 228 643 l 1
673 523 m 1
 545 0 l 1
 467 0 l 1
 351 469 l 1
 233 0 l 1
 156 0 l 1
 25 523 l 1
 85 523 l 1
 197 45 l 1
 319 523 l 1
 385 523 l 1
 505 44 l 1
 616 523 l 1
 673 523 l 1
EndSplineSet
EndChar
StartChar: Ycircumflex
Encoding: 374 374 308
Width: 523
Flags: W
HStem: 0 21G<232 292 232 232> 665 20G<13 80 80 80 445 509 509 509>
VStem: 232 60<0 267 267 267>
LayerCount: 2
Fore
SplineSet
139 762 m 1
 113 792 l 1
 243 894 l 1
 279 894 l 1
 408 792 l 1
 382 762 l 1
 261 842 l 1
 139 762 l 1
509 685 m 1
 292 268 l 1
 292 0 l 1
 232 0 l 1
 232 267 l 1
 13 685 l 1
 80 685 l 1
 264 321 l 1
 445 685 l 1
 509 685 l 1
EndSplineSet
EndChar
StartChar: ycircumflex
Encoding: 375 375 309
Width: 468
Flags: W
HStem: -204 21G<59 59> 0 21G<197 217 197 197> 503 20G<15 78 78 78 391 452 452 452>
VStem: 15 437<523 523>
LayerCount: 2
Fore
SplineSet
112 643 m 1
 86 674 l 1
 215 779 l 1
 251 779 l 1
 381 674 l 1
 355 643 l 1
 233 728 l 1
 112 643 l 1
452 523 m 1
 273 -2 l 2
 234 -116 187 -179 59 -204 c 1
 53 -159 l 1
 158 -133 184 -92 217 0 c 1
 197 0 l 1
 15 523 l 1
 78 523 l 1
 236 43 l 1
 391 523 l 1
 452 523 l 1
EndSplineSet
EndChar
StartChar: Ydieresis
Encoding: 376 376 310
Width: 523
Flags: W
HStem: 0 21G<232 292 232 232> 665 20G<13 80 80 80 445 509 509 509> 789 79<154.5 177.5 343.5 366.5>
VStem: 126 80<817 839> 232 60<0 267 267 267> 315 80<817 839>
LayerCount: 2
Fore
SplineSet
166 868 m 0
 189 868 206 850 206 828 c 0
 206 806 189 789 166 789 c 0
 143 789 126 806 126 828 c 0
 126 850 143 868 166 868 c 0
355 868 m 0
 378 868 395 850 395 828 c 0
 395 806 378 789 355 789 c 0
 332 789 315 806 315 828 c 0
 315 850 332 868 355 868 c 0
509 685 m 1
 292 268 l 1
 292 0 l 1
 232 0 l 1
 232 267 l 1xe8
 13 685 l 1
 80 685 l 1
 264 321 l 1
 445 685 l 1
 509 685 l 1
EndSplineSet
EndChar
StartChar: Zacute
Encoding: 377 377 311
Width: 516
Flags: W
HStem: 0 53<104 454> 633 52<73 402 73 468>
VStem: 35 433
LayerCount: 2
Fore
SplineSet
344 888 m 1
 370 836 l 1
 172 758 l 1
 156 792 l 1
 344 888 l 1
468 685 m 1
 468 636 l 1
 104 53 l 1
 462 53 l 1
 454 0 l 1
 35 0 l 1
 35 50 l 1
 402 633 l 1
 73 633 l 1
 73 685 l 1
 468 685 l 1
EndSplineSet
EndChar
StartChar: uni017A
Encoding: 378 378 313
Width: 417
Flags: W
HStem: 0 50<96 380> 473 50<52 320 52 388>
VStem: 28 360
LayerCount: 2
Fore
SplineSet
291 782 m 1
 317 730 l 1
 122 645 l 1
 103 679 l 1
 291 782 l 1
388 523 m 1
 388 478 l 1
 96 50 l 1
 386 50 l 1
 380 0 l 1
 28 0 l 1
 28 45 l 1
 320 473 l 1
 52 473 l 1
 52 523 l 1
 388 523 l 1
EndSplineSet
EndChar
StartChar: zdotaccent
Encoding: 380 380 314
Width: 417
Flags: W
HStem: 0 50<96 380> 473 50<52 320 52 388> 669 84<203 229.5>
VStem: 173 87<699.5 722.5>
LayerCount: 2
Fore
SplineSet
216 753 m 0
 243 753 260 734 260 711 c 0
 260 688 243 669 216 669 c 0
 190 669 173 688 173 711 c 0
 173 734 190 753 216 753 c 0
388 523 m 1
 388 478 l 1
 96 50 l 1
 386 50 l 1
 380 0 l 1
 28 0 l 1
 28 45 l 1
 320 473 l 1
 52 473 l 1
 52 523 l 1
 388 523 l 1
EndSplineSet
EndChar
StartChar: zcaron
Encoding: 382 382 316
Width: 417
Flags: W
HStem: 0 50<96 380> 473 50<52 320 52 388> 633 52<216 216 216 234 198 216> 665 20G<216 216> 719 20G<68 68 363 363>
VStem: 28 360
LayerCount: 2
Fore
SplineSet
337 769 m 1xdc
 363 739 l 1
 234 633 l 1
 198 633 l 1xec
 68 739 l 1
 94 769 l 1
 216 685 l 1
 337 769 l 1xdc
388 523 m 1
 388 478 l 1
 96 50 l 1
 386 50 l 1
 380 0 l 1
 28 0 l 1
 28 45 l 1
 320 473 l 1
 52 473 l 1
 52 523 l 1
 388 523 l 1
EndSplineSet
EndChar
StartChar: uni017F
Encoding: 383 383 318
Width: 321
Flags: W
HStem: 0 21G<112 170 112 112> 476 47<21 112 21 112> 695 48<230.5 276.5>
VStem: 112 58<0 476 476 476 523 607 0 609 0 650>
LayerCount: 2
Fore
SplineSet
257 743 m 0
 302 743 340 733 379 715 c 1
 359 672 l 1
 325 687 293 695 260 695 c 0
 201 695 170 669 170 607 c 2
 170 0 l 1
 112 0 l 1
 112 476 l 1
 21 476 l 1
 21 523 l 1
 112 523 l 1
 112 609 l 2
 112 691 166 743 257 743 c 0
EndSplineSet
EndChar
StartChar: uni0180
Encoding: 384 384 319
Width: 580
Flags: W
HStem: -11 48<284 353 277 380> 0 21G<110 161 110 110> 486 48<290.5 358> 616 47<35 110 35 110 168 334> 716 20G<110 110> 723 20G<168 168>
VStem: 110 58<121 396 450 616 663 736 736 736> 454 62<188 341>
LayerCount: 2
Fore
SplineSet
325 534 m 0xb7
 445 534 516 438 516 264 c 0
 516 96 443 -11 317 -11 c 0
 251 -11 200 22 167 66 c 1xb7
 161 0 l 1
 110 0 l 1
 110 616 l 1
 35 616 l 1
 35 663 l 1
 110 663 l 1
 110 736 l 1x7b
 168 743 l 1
 168 663 l 1
 334 663 l 1
 334 616 l 1
 168 616 l 1
 168 450 l 1
 205 500 256 534 325 534 c 0xb7
307 37 m 0
 399 37 454 112 454 264 c 0
 454 418 402 486 314 486 c 0
 245 486 204 446 168 396 c 1
 168 121 l 1
 200 72 247 37 307 37 c 0
EndSplineSet
EndChar
StartChar: uni0181
Encoding: 385 385 320
Width: 658
Flags: W
HStem: 0 50<231 358 231 358> 336 48<231 369 369 376 231 369> 635 50<231 324 324 330 231 231>
VStem: 15 56<558 591.5 558 606.5> 171 60<50 336 384 635> 511 61<470 556> 542 62<139 242>
LayerCount: 2
Fore
SplineSet
446 363 m 1xfa
 529 354 604 308 604 190 c 0xfa
 604 59 508 0 358 0 c 2
 171 0 l 1
 171 636 l 1
 142 636 l 2
 92 636 71 610 71 573 c 0
 71 543 81 522 93 498 c 1
 51 476 l 1
 34 502 15 531 15 574 c 0
 15 639 60 685 146 685 c 2
 324 685 l 2
 480 685 572 630 572 514 c 0xfc
 572 426 518 376 446 363 c 1xfa
330 635 m 2
 231 635 l 1
 231 384 l 1
 369 384 l 2
 452 384 511 430 511 510 c 0xfc
 511 602 445 635 330 635 c 2
358 50 m 2xfa
 469 50 542 88 542 190 c 0
 542 294 469 336 376 336 c 2
 231 336 l 1
 231 50 l 1
 358 50 l 2xfa
EndSplineSet
EndChar
StartChar: uni0182
Encoding: 386 386 321
Width: 569
Flags: W
HStem: 0 50<171 279> 369 49<171 281 281 283 171 281> 634 51<171 449 171 171>
VStem: 111 60<50 369 418 634> 462 63<153.5 269.5>
LayerCount: 2
Fore
SplineSet
281 418 m 2
 432 418 525 352 525 215 c 0
 525 63 423 0 279 0 c 2
 111 0 l 1
 111 685 l 1
 457 685 l 1
 449 634 l 1
 171 634 l 1
 171 418 l 1
 281 418 l 2
287 50 m 2
 391 50 462 92 462 215 c 0
 462 324 395 369 283 369 c 2
 171 369 l 1
 171 50 l 1
 287 50 l 2
EndSplineSet
EndChar
StartChar: uni0183
Encoding: 387 387 321
Width: 574
Flags: W
HStem: -11 48<279 347 271.5 375> 0 21G<105 155 105 105> 486 48<286 352.5> 689 47<163 390 163 163>
VStem: 105 58<119 396 451 689> 449 61<188 341>
LayerCount: 2
Fore
SplineSet
320 534 m 0xbc
 439 534 510 438 510 264 c 0
 510 96 438 -11 312 -11 c 0
 246 -11 195 22 161 66 c 1xbc
 155 0 l 1
 105 0 l 1x7c
 105 736 l 1
 399 736 l 1
 390 689 l 1
 163 689 l 1
 163 451 l 1
 200 501 252 534 320 534 c 0xbc
301 37 m 0
 393 37 449 112 449 264 c 0
 449 418 397 486 308 486 c 0
 240 486 198 446 163 396 c 1
 163 119 l 1
 196 71 242 37 301 37 c 0
EndSplineSet
EndChar
StartChar: uni0184
Encoding: 388 388 323
Width: 561
Flags: W
HStem: 0 50<170 278> 374 49<170 280 280 282 170 280> 665 20G<118 170 170 170>
VStem: 111 59<50 374 423 549 549 549> 462 63<154.5 273>
LayerCount: 2
Fore
SplineSet
280 423 m 2
 432 423 525 357 525 218 c 0
 525 63 423 0 278 0 c 2
 111 0 l 1
 111 549 l 1
 58 584 l 1
 81 609 104 644 118 685 c 1
 170 685 l 1
 170 423 l 1
 280 423 l 2
286 50 m 2
 390 50 462 92 462 217 c 0
 462 329 395 374 282 374 c 2
 170 374 l 1
 170 50 l 1
 286 50 l 2
EndSplineSet
EndChar
StartChar: uni0185
Encoding: 389 389 324
Width: 504
Flags: W
HStem: 0 48<166 264 264 269> 300 47<166 258 166 258> 503 20G<115 166 166 166>
VStem: 108 58<48 300 347 397 397 397> 405 61<129.5 216>
LayerCount: 2
Fore
SplineSet
258 347 m 2
 408 347 466 281 466 177 c 0
 466 54 378 0 269 0 c 2
 108 0 l 1
 108 397 l 1
 55 432 l 1
 79 457 99 484 115 523 c 1
 166 523 l 1
 166 347 l 1
 258 347 l 2
264 48 m 2
 350 48 405 82 405 177 c 0
 405 255 368 300 258 300 c 2
 166 300 l 1
 166 48 l 1
 264 48 l 2
EndSplineSet
EndChar
StartChar: uni0186
Encoding: 390 390 324
Width: 550
Flags: W
HStem: -11 53<173.5 267 173.5 287.5> 645 51<191 278.5>
VStem: 421 63<239 452>
LayerCount: 2
Fore
SplineSet
226 696 m 0
 380 696 484 577 484 343 c 0
 484 112 366 -11 209 -11 c 0
 123 -11 65 22 23 60 c 1
 55 98 l 1
 98 67 139 42 208 42 c 0
 326 42 421 135 421 343 c 0
 421 561 335 645 222 645 c 0
 160 645 110 627 62 594 c 1
 31 633 l 1
 83 672 144 696 226 696 c 0
EndSplineSet
EndChar
StartChar: uni0187
Encoding: 391 391 326
Width: 550
Flags: W
HStem: -11 53<284 379.5 284 384.5> 645 51<287.5 367.5 267 375> 776 48<568.5 605>
VStem: 66 63<239 452 239 460> 461 58<667 690 690 693 633 734>
LayerCount: 2
Fore
SplineSet
586 824 m 0
 634 824 666 807 688 790 c 1
 664 753 l 1
 643 766 622 776 588 776 c 0
 549 776 519 755 519 693 c 2
 519 633 l 1
 491 599 l 1
 444 629 403 645 347 645 c 0
 228 645 129 561 129 343 c 0
 129 135 224 42 344 42 c 0
 415 42 455 68 495 100 c 1
 527 60 l 1
 487 21 427 -11 342 -11 c 0
 184 -11 66 112 66 343 c 0
 66 577 191 696 343 696 c 0
 392 696 430 685 461 667 c 1
 461 690 l 2
 461 778 509 824 586 824 c 0
EndSplineSet
EndChar
StartChar: uni0189
Encoding: 393 393 327
Width: 637
Flags: W
HStem: 0 50<176 263> 328 48<23 116 23 116 176 351> 635 50<176 252 252 259 176 176>
VStem: 116 60<50 328 50 328 50 328 376 635> 508 63<225 473.5>
LayerCount: 2
Fore
SplineSet
252 685 m 2
 411 685 571 630 571 348 c 0
 571 64 404 0 263 0 c 2
 116 0 l 1
 116 328 l 1
 23 328 l 1
 23 376 l 1
 116 376 l 1
 116 685 l 1
 252 685 l 2
266 50 m 2
 385 50 508 102 508 348 c 0
 508 599 380 635 259 635 c 2
 176 635 l 1
 176 376 l 1
 351 376 l 1
 351 328 l 1
 176 328 l 1
 176 50 l 1
 266 50 l 2
EndSplineSet
EndChar
StartChar: uni018A
Encoding: 394 394 328
Width: 692
Flags: W
HStem: 0 50<231 318> 635 50<231 307 307 315 231 231>
VStem: 15 56<558 591.5 558 606.5> 171 60<50 635 50 636 50 636> 563 63<225 473.5>
LayerCount: 2
Fore
SplineSet
307 685 m 2
 466 685 626 630 626 348 c 0
 626 64 459 0 318 0 c 2
 171 0 l 1
 171 636 l 1
 142 636 l 2
 92 636 71 610 71 573 c 0
 71 543 81 522 93 498 c 1
 51 476 l 1
 34 502 15 531 15 574 c 0
 15 639 60 685 146 685 c 2
 307 685 l 2
322 50 m 2
 440 50 563 102 563 348 c 0
 563 599 435 635 315 635 c 2
 231 635 l 1
 231 50 l 1
 322 50 l 2
EndSplineSet
EndChar
StartChar: uni018B
Encoding: 395 395 329
Width: 569
Flags: W
HStem: 0 50<212.5 398 282 398 282 458> 369 49<231 398 290 398 290 398> 634 51<116 398 116 458>
VStem: 44 63<147 262 147 274.5> 398 60<50 369 369 369 418 634 634 634>
LayerCount: 2
Fore
SplineSet
458 685 m 1
 458 0 l 1
 280 0 l 2
 145 0 44 60 44 206 c 0
 44 343 137 418 290 418 c 2
 398 418 l 1
 398 634 l 1
 116 634 l 1
 116 685 l 1
 458 685 l 1
282 50 m 2
 398 50 l 1
 398 369 l 1
 289 369 l 2
 173 369 107 318 107 206 c 0
 107 88 178 50 282 50 c 2
EndSplineSet
EndChar
StartChar: uni018D
Encoding: 397 397 331
Width: 567
Flags: W
HStem: -210 48<251.5 314 251.5 335> 485 49<234.5 336>
VStem: 64 62<232.5 350.5 232.5 359> 389 60<-102 -79 -114.5 -52.5> 442 61<234.5 353>
LayerCount: 2
Fore
SplineSet
344 56 m 1xf0
 420 21 448 -19 449 -79 c 0
 449 -150 387 -210 283 -210 c 0
 214 -210 165 -192 119 -161 c 1
 150 -124 l 1
 192 -151 226 -162 277 -162 c 0
 351 -162 389 -126 389 -78 c 0xf0
 389 -27 364 -3 256 40 c 0
 127 91 64 156 64 289 c 0
 64 429 145 534 286 534 c 0
 419 534 503 443 503 291 c 0xe8
 503 175 439 99 344 56 c 1xf0
126 289 m 0xe8
 126 176 168 125 302 73 c 1
 383 111 442 178 442 291 c 0
 442 415 386 485 286 485 c 0
 183 485 126 412 126 289 c 0xe8
EndSplineSet
EndChar
StartChar: uni018E
Encoding: 398 398 332
Width: 512
Flags: W
HStem: 0 50<46 341 46 401 46 341> 330 50<98 341 98 341> 635 50<53 341 53 401>
VStem: 341 60<50 330 330 330 380 635 635 635>
LayerCount: 2
Fore
SplineSet
53 685 m 1
 401 685 l 1
 401 0 l 1
 46 0 l 1
 46 50 l 1
 341 50 l 1
 341 330 l 1
 98 330 l 1
 98 380 l 1
 341 380 l 1
 341 635 l 1
 53 635 l 1
 53 685 l 1
EndSplineSet
EndChar
StartChar: uni018F
Encoding: 399 399 333
Width: 648
Flags: W
HStem: -11 50<256.5 374.5 256.5 394.5> 324 49<117 519 58 520 117 117> 645 51<279.5 376>
VStem: 56 61<324 324 324 338> 520 62<324 324>
LayerCount: 2
Fore
SplineSet
317 696 m 0
 479 696 582 590 582 346 c 0
 582 101 472 -11 317 -11 c 0
 154 -11 56 107 56 332 c 0
 56 344 56 358 58 373 c 1
 519 373 l 1
 512 568 437 645 315 645 c 0
 244 645 187 621 129 576 c 1
 98 614 l 1
 162 669 229 696 317 696 c 0
317 39 m 0
 432 39 514 120 520 324 c 1
 117 324 l 1
 118 126 196 39 317 39 c 0
EndSplineSet
EndChar
StartChar: uni0190
Encoding: 400 400 335
Width: 520
Flags: W
HStem: -11 52<236 324 236 326.5> 341 51<290 342 287 350> 645 51<232.5 311>
VStem: 53 64<147.5 242.5 147.5 251> 75 62<480.5 558 480 574.5>
LayerCount: 2
Fore
SplineSet
275 696 m 0xf0
 356 696 421 667 480 612 c 1
 446 575 l 1
 398 619 344 645 278 645 c 0
 187 645 137 594 137 522 c 0xe8
 137 438 199 392 290 392 c 2
 350 392 l 1
 342 341 l 1
 287 341 l 2
 176 343 117 289 117 196 c 0
 117 99 185 41 287 41 c 0
 361 41 417 70 462 116 c 1
 499 82 l 1
 440 20 368 -11 285 -11 c 0
 151 -11 53 69 53 196 c 0xf0
 53 306 124 361 207 370 c 1
 130 386 75 436 75 525 c 0xe8
 75 624 148 696 275 696 c 0xf0
EndSplineSet
EndChar
StartChar: uni0193
Encoding: 403 403 337
Width: 571
Flags: W
HStem: -11 51<281.5 377 281.5 385> 319 50<359 493 359 359> 645 51<297 373.5 276 381.5> 776 48<589.5 626>
VStem: 66 63<240 453.5 240 462.5> 482 58<663 690 690 693 628 734> 493 59<76 319 319 319>
LayerCount: 2
Fore
SplineSet
607 824 m 0xfa
 654 824 687 807 709 790 c 1
 685 753 l 1
 663 766 643 776 609 776 c 0
 570 776 540 755 540 693 c 2
 540 628 l 1
 509 595 l 1xfc
 459 629 412 645 351 645 c 0
 243 645 129 562 129 345 c 0
 129 135 214 40 349 40 c 0
 405 40 450 52 493 76 c 1
 493 319 l 1
 359 319 l 1
 352 369 l 1
 552 369 l 1
 552 45 l 1xfa
 492 10 424 -11 346 -11 c 0
 179 -11 66 108 66 345 c 0
 66 580 207 696 345 696 c 0
 402 696 443 685 482 663 c 1
 482 690 l 2xfc
 482 778 530 824 607 824 c 0xfa
EndSplineSet
EndChar
StartChar: uni0194
Encoding: 404 404 338
Width: 545
Flags: W
HStem: -205 48<260.5 285.5 260.5 304> 665 20G<16 81 81 81 467 529 529 529>
VStem: 178 56<-127 -94.5 -127 -93.5> 312 56<-127 -95>
LayerCount: 2
Fore
SplineSet
529 685 m 1
 309 60 l 1
 347 -19 368 -64 368 -116 c 0
 368 -170 335 -205 273 -205 c 0
 212 -205 178 -171 178 -117 c 0
 178 -70 199 -23 237 60 c 1
 16 685 l 1
 81 685 l 1
 274 103 l 1
 467 685 l 1
 529 685 l 1
312 -113 m 0
 312 -77 297 -39 273 19 c 1
 249 -39 234 -76 234 -113 c 0
 234 -141 248 -157 273 -157 c 0
 298 -157 312 -141 312 -113 c 0
EndSplineSet
EndChar
StartChar: uni0195
Encoding: 405 405 339
Width: 886
Flags: W
HStem: -11 49<561 630 561 647.5> 0 21G<105 163 105 105> 487 47<299 356.5> 503 20G<720 779 779 779> 716 20G<105 105> 723 20G<163 163>
VStem: 105 58<0 379 437 736 736 736> 423 58<159 163 163 366 366 374> 746 59<177 306>
LayerCount: 2
Fore
SplineSet
779 523 m 1x9780
 794 442 805 357 805 260 c 0
 805 70 702 -11 593 -11 c 0xa780
 498 -11 423 46 423 159 c 2
 423 366 l 2
 423 451 388 487 325 487 c 0
 254 487 205 443 163 379 c 1
 163 0 l 1
 105 0 l 1
 105 736 l 1x6b80
 163 743 l 1
 163 437 l 1
 206 496 262 534 336 534 c 0xa780
 430 534 481 473 481 374 c 2
 481 163 l 2
 481 76 528 38 594 38 c 0
 666 38 746 90 746 264 c 0
 746 348 736 437 720 523 c 1
 779 523 l 1x9780
EndSplineSet
EndChar
StartChar: uni0196
Encoding: 406 406 340
Width: 344
Flags: W
HStem: -11 50<208.5 245.5 208.5 249.5> 665 20G<101 161 161 161>
VStem: 101 60<124 685>
LayerCount: 2
Fore
SplineSet
303 62 m 1
 328 23 l 1
 306 6 273 -11 226 -11 c 0
 152 -11 101 33 101 124 c 2
 101 685 l 1
 161 685 l 1
 161 122 l 2
 161 61 189 39 228 39 c 0
 263 39 283 49 303 62 c 1
EndSplineSet
EndChar
StartChar: uni0197
Encoding: 407 407 341
Width: 316
Flags: W
HStem: 0 21G<128 188 128 128> 335 49<26 128 26 128 188 290> 665 20G<128 188 188 188>
VStem: 128 60<0 335 0 335 384 685>
LayerCount: 2
Fore
SplineSet
290 384 m 1
 290 335 l 1
 188 335 l 1
 188 0 l 1
 128 0 l 1
 128 335 l 1
 26 335 l 1
 26 384 l 1
 128 384 l 1
 128 685 l 1
 188 685 l 1
 188 384 l 1
 290 384 l 1
EndSplineSet
EndChar
StartChar: uni0198
Encoding: 408 408 342
Width: 578
Flags: W
HStem: 0 21G<111 171 111 111 474 474 474 547> 646 50<473.5 503> 665 20G<111 171 171 171>
VStem: 111 60<0 685 0 685>
LayerCount: 2
Fore
SplineSet
474 0 m 1xd0
 175 367 l 1
 355 615 l 2
 398 675 430 696 486 696 c 0
 526 696 556 679 578 659 c 1
 553 622 l 1
 536 635 517 646 489 646 c 0
 458 646 437 640 397 585 c 2
 245 370 l 1
 547 0 l 1
 474 0 l 1xd0
171 685 m 1xb0
 171 0 l 1
 111 0 l 1
 111 685 l 1
 171 685 l 1xb0
EndSplineSet
EndChar
StartChar: uni0199
Encoding: 409 409 344
Width: 487
Flags: W
HStem: 0 21G<105 163 105 105 409 409 409 479> 503 20G<388 456 456 456> 695 48<223.5 269.5>
VStem: 105 58<0 607 0 609 0 650>
LayerCount: 2
Fore
SplineSet
253 695 m 0
 194 695 163 669 163 607 c 2
 163 0 l 1
 105 0 l 1
 105 609 l 2
 105 691 159 743 250 743 c 0
 295 743 333 733 371 715 c 1
 352 672 l 1
 318 687 286 695 253 695 c 0
236 289 m 1
 479 0 l 1
 409 0 l 1
 169 286 l 1
 388 523 l 1
 456 523 l 1
 236 289 l 1
EndSplineSet
EndChar
StartChar: uni019A
Encoding: 410 410 344
Width: 300
Flags: W
HStem: -11 50<205 223> 348 49<18 120 18 120 178 282> 716 20G<120 120> 723 20G<178 178>
VStem: 120 58<88 90 90 348 397 736 736 736>
LayerCount: 2
Fore
SplineSet
282 348 m 1xd8
 178 348 l 1
 178 90 l 2
 178 56 191 39 219 39 c 0
 233 39 245 41 256 46 c 1
 272 3 l 1
 256 -5 234 -11 212 -11 c 0
 157 -11 120 21 120 88 c 2
 120 348 l 1
 18 348 l 1
 18 397 l 1
 120 397 l 1
 120 736 l 1xe8
 178 743 l 1
 178 397 l 1
 282 397 l 1
 282 348 l 1xd8
EndSplineSet
EndChar
StartChar: uni019C
Encoding: 412 412 346
Width: 929
Flags: W
HStem: -11 51<234 299 562.5 626> 0 21G<766 818 766 766> 665 20G<101 161 161 161 429 489 489 489 758 818 818 818>
VStem: 101 60<184 685> 429 60<184 685> 758 60<154 685 0 685>
LayerCount: 2
Fore
SplineSet
758 685 m 1xbc
 818 685 l 1
 818 0 l 1
 766 0 l 1x7c
 761 93 l 1
 721 30 663 -11 589 -11 c 0
 514 -11 463 30 441 99 c 1
 396 32 337 -11 261 -11 c 0
 158 -11 101 64 101 184 c 2
 101 685 l 1
 161 685 l 1
 161 182 l 2
 161 91 199 40 269 40 c 0
 340 40 387 83 430 153 c 1
 429 163 429 173 429 184 c 2
 429 685 l 1
 489 685 l 1
 489 182 l 2
 489 91 528 40 597 40 c 0
 670 40 717 85 758 154 c 1
 758 685 l 1xbc
EndSplineSet
EndChar
StartChar: uni019D
Encoding: 413 413 347
Width: 673
Flags: W
HStem: -205 48<24 61 24 80.5> 0 21G<483 562 483 483> 0 66<513 513 513 562 483 513> 619 66<160 160> 665 20G<111 188 188 188 505 562 562 562>
VStem: 111 57<-74 -72 -72 383> 505 57<269 685 0 685>
LayerCount: 2
Fore
SplineSet
505 685 m 1xce
 562 685 l 1
 562 0 l 1
 483 0 l 1
 160 619 l 1xd6
 163 572 168 506 168 383 c 2
 168 -72 l 2
 168 -161 117 -205 44 -205 c 0
 -3 -205 -36 -188 -58 -171 c 1
 -34 -134 l 1
 -13 -147 7 -157 41 -157 c 0
 81 -157 111 -136 111 -74 c 2
 111 685 l 1
 188 685 l 1
 513 66 l 1xae
 511 95 505 180 505 269 c 2
 505 685 l 1xce
EndSplineSet
EndChar
StartChar: uni019F
Encoding: 415 415 349
Width: 691
Flags: W
HStem: -11 51<283 410.5 283 430> 326 47<128 563 128 564 127 563> 645 51<284 407.5>
VStem: 66 61<326 326 326 453.5> 564 61<326 326>
LayerCount: 2
Fore
SplineSet
345 696 m 0
 512 696 625 573 625 341 c 0
 625 117 515 -11 345 -11 c 0
 180 -11 66 113 66 340 c 0
 66 567 181 696 345 696 c 0
345 645 m 0
 223 645 137 559 128 373 c 1
 563 373 l 1
 555 560 470 645 345 645 c 0
345 40 m 0
 476 40 560 131 564 326 c 1
 127 326 l 1
 131 132 221 40 345 40 c 0
EndSplineSet
EndChar
StartChar: Ohorn
Encoding: 416 416 350
Width: 696
Flags: W
HStem: -11 51<281.5 412 281.5 430> 645 51<280.5 381 263 411>
VStem: 66 63<238.5 445 238.5 454> 562 63<239 396.5 229.5 446> 584 50<669.5 701.5>
LayerCount: 2
Fore
SplineSet
634 688 m 0xe8
 634 636 607 605 555 596 c 1
 600 537 625 451 625 342 c 0xf0
 625 117 515 -11 345 -11 c 0
 180 -11 66 113 66 341 c 0
 66 567 181 696 345 696 c 0
 417 696 479 673 526 629 c 1
 567 634 584 653 584 686 c 0
 584 717 578 738 570 758 c 1
 615 770 l 1
 625 751 634 724 634 688 c 0xe8
345 40 m 0xf0
 479 40 562 136 562 342 c 0
 562 550 477 645 345 645 c 0
 216 645 129 549 129 341 c 0
 129 136 218 40 345 40 c 0xf0
EndSplineSet
EndChar
StartChar: ohorn
Encoding: 417 417 351
Width: 580
Flags: W
HStem: -11 49<235 335 235 354> 485 49<236.5 320 217.5 336.5>
VStem: 64 62<187.5 336 187.5 345> 446 61<188 297 178.5 336.5> 506 49<505 537.5>
LayerCount: 2
Fore
SplineSet
555 524 m 0xe8
 555 469 525 439 470 431 c 1
 494 387 507 331 507 263 c 0xf0
 507 94 423 -11 285 -11 c 0
 146 -11 64 93 64 261 c 0
 64 429 149 534 286 534 c 0
 354 534 409 510 446 465 c 1
 489 471 506 488 506 522 c 0
 506 553 500 574 492 594 c 1
 537 605 l 1
 547 587 555 560 555 524 c 0xe8
285 38 m 0xf0
 385 38 446 113 446 263 c 0
 446 410 387 485 286 485 c 0
 187 485 126 411 126 261 c 0
 126 114 185 38 285 38 c 0xf0
EndSplineSet
EndChar
StartChar: uni01A2
Encoding: 418 418 352
Width: 903
Flags: W
HStem: -197 21G<732 792 732 732> -11 51<281.5 412 281.5 430> 645 51<280.5 375 263 411> 649 48<625.5 673.5>
VStem: 66 63<238.5 445 238.5 454> 562 63<239 403.5 229.5 446> 732 60<-197 553 -197 554 -197 589.5>
LayerCount: 2
Fore
SplineSet
650 697 m 0xde
 741 697 792 650 792 553 c 2
 792 -197 l 1
 732 -197 l 1
 732 554 l 2
 732 625 700 649 647 649 c 0
 604 649 570 636 536 617 c 1xde
 592 558 625 465 625 342 c 0
 625 117 515 -11 345 -11 c 0
 180 -11 66 113 66 341 c 0
 66 567 181 696 345 696 c 0xee
 405 696 458 680 502 648 c 1
 545 676 592 697 650 697 c 0xde
345 40 m 0xee
 479 40 562 136 562 342 c 0
 562 550 477 645 345 645 c 0
 216 645 129 549 129 341 c 0
 129 136 218 40 345 40 c 0xee
EndSplineSet
EndChar
StartChar: uni01A3
Encoding: 419 419 353
Width: 765
Flags: W
HStem: -205 21G<660 660> -197 21G<602 602> -11 49<235 335 235 354> 485 49<236.5 308 217.5 336.5>
VStem: 64 62<187.5 336 187.5 345> 446 61<188 308.5 178.5 336.5> 602 58<-197 389 -205 390 -205 424.5>
LayerCount: 2
Fore
SplineSet
522 534 m 0x7e
 610 534 660 485 660 389 c 2
 660 -205 l 1xbe
 602 -197 l 1
 602 390 l 2
 602 459 569 486 517 486 c 0
 487 486 463 481 439 471 c 1
 483 425 507 354 507 263 c 0
 507 94 423 -11 285 -11 c 0
 146 -11 64 93 64 261 c 0
 64 429 149 534 286 534 c 0
 330 534 369 523 401 503 c 1
 437 522 475 534 522 534 c 0x7e
285 38 m 0
 385 38 446 113 446 263 c 0
 446 410 387 485 286 485 c 0
 187 485 126 411 126 261 c 0
 126 114 185 38 285 38 c 0
EndSplineSet
EndChar
StartChar: uni01A4
Encoding: 420 420 354
Width: 634
Flags: W
HStem: 0 21G<171 231 171 171> 267 49<231 329 231 329> 636 49<117 332 146 171 231 231 231 331>
VStem: 15 56<558 591.5 558 606.5> 171 60<0 267 0 316 316 636> 522 63<416 537>
LayerCount: 2
Fore
SplineSet
332 685 m 2
 491 685 585 622 585 480 c 0
 585 326 478 267 329 267 c 2
 231 267 l 1
 231 0 l 1
 171 0 l 1
 171 636 l 1
 142 636 l 2
 92 636 71 610 71 573 c 0
 71 543 81 522 93 498 c 1
 51 476 l 1
 34 502 15 531 15 574 c 0
 15 639 60 685 146 685 c 2
 332 685 l 2
329 316 m 2
 443 316 522 353 522 479 c 0
 522 595 451 636 331 636 c 2
 231 636 l 1
 231 316 l 1
 329 316 l 2
EndSplineSet
EndChar
StartChar: uni01A5
Encoding: 421 421 355
Width: 574
Flags: W
HStem: -205 21G<105 105> -197 21G<163 163> -11 49<279 349 271.5 377> 486 48<287.5 355.5> 695 48<223.5 269.5>
VStem: 105 58<-197 61 -197 117 117 396 449 607> 449 61<189 338.5>
LayerCount: 2
Fore
SplineSet
320 534 m 0x7e
 449 534 510 433 510 264 c 0
 510 99 442 -11 312 -11 c 0
 246 -11 196 19 163 61 c 1
 163 -197 l 1x7e
 105 -205 l 1xbe
 105 609 l 2
 105 691 159 743 250 743 c 0
 295 743 333 733 371 715 c 1
 352 672 l 1
 318 687 286 695 253 695 c 0
 194 695 163 669 163 607 c 2
 163 449 l 1
 201 502 255 534 320 534 c 0x7e
301 38 m 0
 397 38 449 114 449 264 c 0
 449 413 401 486 310 486 c 0
 243 486 199 446 163 396 c 1
 163 117 l 1
 196 69 242 38 301 38 c 0
EndSplineSet
EndChar
StartChar: uni01A6
Encoding: 422 422 357
Width: 590
Flags: W
HStem: 0 21G<111 171 111 111> 181 49<171 285 285 309 171 285> 509 50<171 275 171 277> 509 176<111 275 111 171>
VStem: 111 60<0 181 230 509 559 685> 457 64<322.5 418.5>
LayerCount: 2
Fore
SplineSet
485 -126 m 1xec
 309 181 l 1
 171 181 l 1
 171 0 l 1
 111 0 l 1
 111 685 l 1
 171 685 l 1xdc
 171 559 l 1
 277 559 l 2
 442 559 521 494 521 373 c 0
 521 271 465 217 368 192 c 1
 556 -126 l 1
 485 -126 l 1xec
171 230 m 1
 285 230 l 2
 394 230 457 272 457 373 c 0
 457 464 406 509 275 509 c 2
 171 509 l 1xec
 171 230 l 1
EndSplineSet
EndChar
StartChar: uni01A7
Encoding: 423 423 358
Width: 530
Flags: W
HStem: -11 51<228 312 228 318.5> 645 51<245 320>
VStem: 54 62<135 221.5 135 239.5> 411 62<495.5 569>
LayerCount: 2
Fore
SplineSet
281 696 m 0
 399 696 473 629 473 533 c 0
 473 433 413 387 278 342 c 0
 155 303 116 263 116 180 c 0
 116 90 184 40 272 40 c 0
 352 40 408 69 457 112 c 1
 492 75 l 1
 435 22 366 -11 271 -11 c 0
 144 -11 54 67 54 181 c 0
 54 298 129 348 252 388 c 0
 374 427 411 458 411 533 c 0
 411 605 361 645 279 645 c 0
 211 645 164 626 109 583 c 1
 75 620 l 1
 134 668 191 696 281 696 c 0
EndSplineSet
EndChar
StartChar: uni01A8
Encoding: 424 424 358
Width: 448
Flags: W
HStem: -11 49<192 257 192 266> 486 48<203.5 265.5>
VStem: 46 62<104 167 104 181.5> 341 60<375.5 428>
LayerCount: 2
Fore
SplineSet
235 534 m 0
 334 534 401 479 401 400 c 0
 401 326 356 287 245 256 c 0
 136 226 108 198 108 136 c 0
 108 72 159 38 225 38 c 0
 289 38 336 59 381 92 c 1
 412 56 l 1
 366 18 308 -11 224 -11 c 0
 129 -11 46 42 46 137 c 0
 46 226 100 266 214 297 c 0
 310 323 341 349 341 402 c 0
 341 454 299 486 232 486 c 0
 175 486 134 471 87 439 c 1
 60 476 l 1
 111 514 167 534 235 534 c 0
EndSplineSet
EndChar
StartChar: uni01AA
Encoding: 426 426 360
Width: 284
Flags: W
HStem: -205 48<228 265 228 269> 500 47<48.5 71.5> 696 47<45 82>
VStem: -54 58<595.5 644 595.5 657> 120 58<-71 513 513 513 558 620>
LayerCount: 2
Fore
SplineSet
323 -134 m 1
 348 -171 l 1
 325 -188 292 -205 246 -205 c 0
 172 -205 120 -161 120 -71 c 2
 120 513 l 1
 103 505 83 500 60 500 c 0
 -5 500 -54 545 -54 620 c 0
 -54 694 -4 743 63 743 c 0
 134 743 178 698 178 620 c 2
 178 -74 l 2
 178 -136 208 -157 248 -157 c 0
 282 -157 302 -147 323 -134 c 1
68 547 m 0
 88 547 104 551 120 558 c 1
 120 623 l 2
 120 670 100 696 64 696 c 0
 26 696 4 667 4 621 c 0
 4 570 29 547 68 547 c 0
EndSplineSet
EndChar
StartChar: uni01AB
Encoding: 427 427 361
Width: 344
Flags: W
HStem: -205 48<199.5 237 199.5 256> -11 48<214.5 240.5> 476 47<18 106 18 106 164 292>
VStem: 106 58<127 128 128 476 523 648 648 648> 287 57<-74 -71 -71 0 0 0>
LayerCount: 2
Fore
SplineSet
325 54 m 1
 344 22 l 1
 344 -71 l 2
 344 -161 294 -205 218 -205 c 0
 172 -205 139 -188 117 -171 c 1
 141 -134 l 1
 163 -147 183 -157 216 -157 c 0
 258 -157 287 -136 287 -74 c 2
 287 0 l 1
 270 -6 252 -11 229 -11 c 0
 155 -11 106 36 106 127 c 2
 106 476 l 1
 18 476 l 1
 18 523 l 1
 106 523 l 1
 106 648 l 1
 164 655 l 1
 164 523 l 1
 299 523 l 1
 292 476 l 1
 164 476 l 1
 164 128 l 2
 164 67 188 37 241 37 c 0
 270 37 295 42 325 54 c 1
EndSplineSet
EndChar
StartChar: uni01AC
Encoding: 428 428 362
Width: 523
Flags: W
HStem: 0 21G<246 306 246 246> 632 53<118 513 149 246 306 506 306 306>
VStem: 15 57<557 589.5 557 606> 246 60<0 632 0 632>
LayerCount: 2
Fore
SplineSet
513 685 m 1
 506 632 l 1
 306 632 l 1
 306 0 l 1
 246 0 l 1
 246 632 l 1
 143 632 l 2
 93 632 72 607 72 572 c 0
 72 542 83 521 94 499 c 1
 50 476 l 1
 33 502 15 531 15 573 c 0
 15 639 61 685 149 685 c 2
 513 685 l 1
EndSplineSet
EndChar
StartChar: uni01AD
Encoding: 429 429 363
Width: 344
Flags: W
HStem: -11 50<214.5 255> 476 47<18 106 18 106 164 292> 695 48<216 256>
VStem: 106 58<127 130 130 476 523 603 603 606>
LayerCount: 2
Fore
SplineSet
241 39 m 0
 270 39 295 47 321 63 c 1
 344 22 l 1
 312 1 276 -11 234 -11 c 0
 155 -11 106 36 106 127 c 2
 106 476 l 1
 18 476 l 1
 18 523 l 1
 106 523 l 1
 106 603 l 2
 106 697 158 743 237 743 c 0
 281 743 317 728 344 710 c 1
 320 671 l 1
 295 686 272 695 240 695 c 0
 192 695 164 668 164 606 c 2
 164 523 l 1
 299 523 l 1
 292 476 l 1
 164 476 l 1
 164 130 l 2
 164 69 188 39 241 39 c 0
EndSplineSet
EndChar
StartChar: uni01AF
Encoding: 431 431 366
Width: 658
Flags: W
HStem: -11 52<268.5 383.5 268.5 401> 593 92<551 551>
VStem: 101 60<214 219 219 685> 490 61<219 593 629 685> 603 50<670.5 701.5>
LayerCount: 2
Fore
SplineSet
653 688 m 0
 653 628 616 597 551 593 c 1
 551 214 l 2
 551 82 476 -11 326 -11 c 0
 174 -11 101 82 101 214 c 2
 101 685 l 1
 161 685 l 1
 161 219 l 2
 161 108 211 41 326 41 c 0
 441 41 490 109 490 219 c 2
 490 685 l 1
 551 685 l 1
 551 629 l 1
 588 636 603 655 603 686 c 0
 603 717 597 738 589 758 c 1
 634 770 l 1
 644 751 653 724 653 688 c 0
EndSplineSet
EndChar
StartChar: uhorn
Encoding: 432 432 366
Width: 596
Flags: W
HStem: -11 48<226.5 287.5> 0 21G<422 471 422 422> 429 37<471 473> 429 94
VStem: 99 58<149 155 155 523> 413 58<144 436 0 466 466 523> 526 49<505.5 537.5>
LayerCount: 2
Fore
SplineSet
557 605 m 1x9e
 567 587 575 560 575 524 c 0
 575 464 539 433 473 429 c 1
 471 436 l 1
 471 0 l 1
 422 0 l 1x5e
 418 93 l 1
 382 31 328 -11 247 -11 c 0
 154 -11 99 46 99 149 c 2
 99 523 l 1
 157 523 l 1
 157 155 l 2
 157 72 192 37 261 37 c 0
 329 37 377 82 413 144 c 1
 413 523 l 1
 471 523 l 1x9e
 471 466 l 1
 510 472 526 489 526 522 c 0xae
 526 553 520 574 512 594 c 1
 557 605 l 1x9e
EndSplineSet
EndChar
StartChar: uni01B1
Encoding: 433 433 368
Width: 691
Flags: W
HStem: -11 51<279.5 410 279.5 428> 634 51<88 203 88 272 489 489 489 603>
VStem: 66 63<227.5 402.5 227.5 405> 88 184<635 685 635 685 635 685> 419 184<635 685 634 685> 562 63<227.5 402.5>
LayerCount: 2
Fore
SplineSet
345 -11 m 0xe4
 177 -11 66 114 66 319 c 0xe4
 66 491 134 577 203 634 c 1
 88 634 l 1
 88 685 l 1
 272 685 l 1xd4
 272 635 l 1
 189 576 129 486 129 319 c 0
 129 136 214 40 345 40 c 0
 475 40 562 136 562 319 c 0xe4
 562 486 500 576 419 635 c 1
 419 685 l 1
 603 685 l 1
 603 634 l 1xe8
 489 634 l 1
 562 579 625 494 625 319 c 0
 625 117 511 -11 345 -11 c 0xe4
EndSplineSet
EndChar
StartChar: uni01B3
Encoding: 435 435 369
Width: 548
Flags: W
HStem: 0 21G<232 232 232 292> 649 47<500 530> 665 20G<13 80 80 80>
VStem: 232 60<0 267 267 267>
LayerCount: 2
Fore
SplineSet
232 0 m 1xd0
 232 267 l 1
 13 685 l 1
 80 685 l 1xb0
 264 320 l 1
 393 602 l 2
 423 667 456 696 513 696 c 0
 553 696 581 679 606 658 c 1
 581 623 l 1
 562 638 544 649 516 649 c 0
 484 649 467 635 442 583 c 2
 292 268 l 1
 292 0 l 1
 232 0 l 1xd0
EndSplineSet
EndChar
StartChar: uni01B4
Encoding: 436 436 370
Width: 475
Flags: W
HStem: -204 21G<59 59> 0 21G<197 217 197 197> 503 20G<15 78 78 78> 522 49<455 474 436 475>
VStem: 15 506<523 557>
LayerCount: 2
Fore
SplineSet
59 -204 m 1xd8
 53 -159 l 1
 158 -133 186 -90 217 0 c 1
 197 0 l 1
 15 523 l 1
 78 523 l 1xe8
 236 43 l 1
 362 474 l 2
 383 545 410 571 462 571 c 0
 486 571 505 565 521 557 c 1
 505 515 l 1
 494 520 482 522 468 522 c 0
 442 522 429 510 417 470 c 2
 274 2 l 2
 239 -116 187 -179 59 -204 c 1xd8
EndSplineSet
EndChar
StartChar: uni01B5
Encoding: 437 437 372
Width: 516
Flags: W
HStem: 0 53<102 454> 320.5 48.5 633 52<73 404 73 468>
VStem: 35 433
LayerCount: 2
Fore
SplineSet
468 685 m 1
 468 636 l 1
 300 369 l 1
 410 369 l 1
 410 321 l 1
 270 320 l 1
 102 53 l 1
 462 53 l 1
 454 0 l 1
 35 0 l 1
 35 50 l 1
 206 320 l 1
 107 321 l 1
 107 369 l 1
 237 369 l 1
 404 633 l 1
 73 633 l 1
 73 685 l 1
 468 685 l 1
EndSplineSet
EndChar
StartChar: uni01B6
Encoding: 438 438 372
Width: 417
Flags: W
HStem: 0 50<94 380> 244 47<74 165 74 197 260 351 74 227> 473 50<52 322 52 388>
VStem: 28 360
LayerCount: 2
Fore
SplineSet
388 523 m 1
 388 478 l 1
 260 291 l 1
 351 291 l 1
 351 244 l 1
 227 244 l 1
 94 50 l 1
 386 50 l 1
 380 0 l 1
 28 0 l 1
 28 45 l 1
 165 244 l 1
 74 244 l 1
 74 291 l 1
 197 291 l 1
 322 473 l 1
 52 473 l 1
 52 523 l 1
 388 523 l 1
EndSplineSet
EndChar
StartChar: uni01B8
Encoding: 440 440 374
Width: 494
Flags: W
HStem: -11 51<216 306 216 314.5> 339 47<274 282 282 300 274 366> 635 50<145 455 145 145>
VStem: 48 61<140 237 140 245.5>
LayerCount: 2
Fore
SplineSet
442 110 m 1
 478 75 l 1
 426 19 365 -11 264 -11 c 0
 133 -11 48 67 48 184 c 0
 48 307 127 386 274 386 c 2
 300 386 l 1
 72 636 l 1
 72 685 l 1
 455 685 l 1
 455 635 l 1
 145 635 l 1
 366 386 l 1
 366 339 l 1
 282 339 l 2
 171 339 109 290 109 184 c 0
 109 96 166 40 266 40 c 0
 346 40 394 60 442 110 c 1
EndSplineSet
EndChar
StartChar: uni01B9
Encoding: 441 441 375
Width: 456
Flags: W
HStem: -205 49<194 278.5 194 288.5> 154 46<262 270 270 272 262 333> 473 50<121 422 121 121>
VStem: 28 61<-50 47 -50 56.5>
LayerCount: 2
Fore
SplineSet
411 -88 m 1
 445 -119 l 1
 395 -175 333 -205 244 -205 c 0
 112 -205 28 -121 28 -5 c 0
 28 118 105 200 262 200 c 2
 272 200 l 1
 52 478 l 1
 52 523 l 1
 422 523 l 1
 422 473 l 1
 121 473 l 1
 333 200 l 1
 333 154 l 1
 270 154 l 2
 144 154 89 99 89 -5 c 0
 89 -95 144 -156 244 -156 c 0
 313 -156 363 -136 411 -88 c 1
EndSplineSet
EndChar
StartChar: uni01BA
Encoding: 442 442 376
Width: 455
Flags: W
HStem: -206 21G<148 148> 224 46<179 261 114 114> 473 50<30 321 30 395>
VStem: 32 60<-102 -64.5 -102 -49> 363 62<103.5 170>
LayerCount: 2
Fore
SplineSet
148 -206 m 1
 74 -174 32 -137 32 -81 c 0
 32 -17 87 17 203 31 c 0
 314 44 363 66 363 141 c 0
 363 199 324 224 261 224 c 2
 114 224 l 1
 114 270 l 1
 321 473 l 1
 30 473 l 1
 30 523 l 1
 395 523 l 1
 395 478 l 1
 179 270 l 1
 265 270 l 2
 364 270 425 224 425 141 c 0
 425 39 350 -1 229 -16 c 0
 131 -29 92 -44 92 -85 c 0
 92 -119 117 -140 169 -167 c 1
 148 -206 l 1
EndSplineSet
EndChar
StartChar: uni01BB
Encoding: 443 443 377
Width: 479
Flags: W
HStem: 0 51<111 418> 262 49<81 237 81 276 81 303 341 425> 627 49<190 260>
VStem: 348 60<467.5 537.5>
LayerCount: 2
Fore
SplineSet
111 51 m 1
 426 51 l 1
 418 0 l 1
 43 0 l 1
 43 49 l 1
 128 140 191 207 237 262 c 1
 81 262 l 1
 81 311 l 1
 276 311 l 1
 331 385 348 434 348 498 c 0
 348 577 298 627 222 627 c 0
 158 627 114 600 73 551 c 1
 33 581 l 1
 86 645 145 676 225 676 c 0
 339 676 408 601 408 501 c 0
 408 434 389 379 341 311 c 1
 425 311 l 1
 425 262 l 1
 303 262 l 1
 257 206 195 139 111 51 c 1
EndSplineSet
EndChar
StartChar: uni01BC
Encoding: 444 444 378
Width: 496
Flags: W
HStem: -11 49<193 275.5 193 293.5> 384 47<231 284> 637 48<135 414 135 135>
VStem: 79 56<398 637 398 685 398 685> 384 61<163 278>
LayerCount: 2
Fore
SplineSet
423 685 m 1
 414 637 l 1
 135 637 l 1
 135 398 l 1
 169 419 206 431 256 431 c 0
 371 431 445 353 445 219 c 0
 445 83 361 -11 226 -11 c 0
 143 -11 83 19 34 72 c 1
 70 106 l 1
 113 60 160 38 226 38 c 0
 325 38 384 106 384 220 c 0
 384 336 326 384 242 384 c 0
 194 384 163 372 124 352 c 1
 79 352 l 1
 79 685 l 1
 423 685 l 1
EndSplineSet
EndChar
StartChar: uni01BD
Encoding: 445 445 379
Width: 434
Flags: W
HStem: -11 51<172 238 172 258> 287 49<206.5 248.5> 473 50<134 353 134 134>
VStem: 76 58<312 473 312 523 312 523> 325 61<129 210.5>
LayerCount: 2
Fore
SplineSet
363 523 m 1
 353 473 l 1
 134 473 l 1
 134 312 l 1
 156 324 184 336 229 336 c 0
 323 336 386 272 386 169 c 0
 386 64 315 -11 201 -11 c 0
 129 -11 80 15 38 55 c 1
 71 90 l 1
 111 57 143 40 201 40 c 0
 275 40 325 88 325 170 c 0
 325 251 279 287 218 287 c 0
 175 287 152 279 118 262 c 1
 76 262 l 1
 76 523 l 1
 363 523 l 1
EndSplineSet
EndChar
StartChar: uni01BE
Encoding: 446 446 380
Width: 501
Flags: W
HStem: -7 49<189.5 272.5 189.5 290> 558 46<93 165 93 165 223 338> 716 20G<165 165> 723 20G<223 223>
VStem: 165 58<429 558 429 558 429 558 604 736 736 736> 375 62<158.5 265>
LayerCount: 2
Fore
SplineSet
254 423 m 2xdc
 341 404 437 352 437 208 c 0
 437 84 356 -7 224 -7 c 0
 144 -7 88 21 32 74 c 1
 66 108 l 1
 111 67 157 42 222 42 c 0
 323 42 375 108 375 209 c 0
 375 321 310 361 233 380 c 2
 165 396 l 1
 165 558 l 1
 93 558 l 1
 93 604 l 1
 165 604 l 1
 165 736 l 1xec
 223 743 l 1
 223 604 l 1
 338 604 l 1
 338 558 l 1
 223 558 l 1
 223 429 l 1
 254 423 l 2xdc
EndSplineSet
EndChar
StartChar: uni01BF
Encoding: 447 447 382
Width: 574
Flags: W
HStem: -205 21G<105 105> -197 21G<163 163> -10 21G<163 163> 485 49<299 366.5> 503 20G<105 155 155 155>
VStem: 105 58<-197 -10 -197 40 40 397> 449 61<292 399>
LayerCount: 2
Fore
SplineSet
340 534 m 0x76
 440 534 510 469 510 358 c 0
 510 200 404 114 229 24 c 2
 163 -10 l 1
 163 -197 l 1x76
 105 -205 l 1
 105 523 l 1
 155 523 l 1xae
 159 444 l 1
 205 497 258 534 340 534 c 0x76
218 69 m 2
 373 152 449 228 449 356 c 0
 449 442 403 485 330 485 c 0
 261 485 208 450 163 397 c 1
 163 40 l 1
 218 69 l 2
EndSplineSet
EndChar
StartChar: uni01C1
Encoding: 449 449 383
Width: 432
Flags: W
HStem: 0 21G<111 166 111 111 267 267 267 321> 716 20G<111 111 267 267> 723 20G<166 166 321 321>
VStem: 111 55<0 736 736 736> 267 54<0 736 736 736>
LayerCount: 2
Fore
SplineSet
166 743 m 1xb8
 166 0 l 1
 111 0 l 1
 111 736 l 1xd8
 166 743 l 1xb8
321 743 m 1xb8
 321 0 l 1
 267 0 l 1
 267 736 l 1xd8
 321 743 l 1xb8
EndSplineSet
EndChar
StartChar: uni01C3
Encoding: 451 451 385
Width: 318
Flags: W
HStem: -11 95<145 173> 716 20G<131 131> 723 20G<186 186>
VStem: 111 96<23.5 50> 131 55<201 736 736 736>
LayerCount: 2
Fore
SplineSet
186 743 m 1xa8
 186 201 l 1
 131 201 l 1
 131 736 l 1xc8
 186 743 l 1xa8
159 84 m 0xb0
 187 84 207 63 207 37 c 0
 207 10 187 -11 159 -11 c 0
 131 -11 111 10 111 37 c 0
 111 63 131 84 159 84 c 0xb0
EndSplineSet
EndChar
StartChar: uni01C4
Encoding: 452 452 386
Width: 1123
Flags: W
HStem: 0 50<171 258> 0 53<711 1061> 633 52<680 1009>
VStem: 111 60<50 635 50 685 50 685> 503 63<225 473.5>
LayerCount: 2
Fore
SplineSet
992 888 m 1x78
 1018 857 l 1
 889 756 l 1
 852 756 l 1
 722 857 l 1
 749 888 l 1
 870 808 l 1
 992 888 l 1x78
247 685 m 2
 406 685 566 630 566 348 c 0
 566 64 399 0 258 0 c 2
 111 0 l 1
 111 685 l 1
 247 685 l 2
1075 685 m 1
 1075 636 l 1
 711 53 l 1
 1069 53 l 1
 1061 0 l 1
 642 0 l 1
 642 50 l 1
 1009 633 l 1
 680 633 l 1
 680 685 l 1
 1075 685 l 1
255 635 m 2
 171 635 l 1
 171 50 l 1
 262 50 l 2xb8
 380 50 503 102 503 348 c 0
 503 599 375 635 255 635 c 2
EndSplineSet
EndChar
StartChar: uni01C5
Encoding: 453 453 388
Width: 1047
Flags: W
HStem: 0 50<171 258 726 1010> 473 50<682 950 682 1018> 635 50<171 247 247 255 171 171> 719 20G<698 698 994 994>
VStem: 111 60<50 635 50 685 50 685> 503 63<225 473.5>
LayerCount: 2
Fore
SplineSet
968 769 m 1
 994 739 l 1
 865 633 l 1
 828 633 l 1
 698 739 l 1
 725 769 l 1
 846 685 l 1
 968 769 l 1
247 685 m 2
 406 685 566 630 566 348 c 0
 566 64 399 0 258 0 c 2
 111 0 l 1
 111 685 l 1
 247 685 l 2
255 635 m 2
 171 635 l 1
 171 50 l 1
 262 50 l 2
 380 50 503 102 503 348 c 0
 503 599 375 635 255 635 c 2
1018 523 m 1
 1018 478 l 1
 726 50 l 1
 1016 50 l 1
 1010 0 l 1
 658 0 l 1
 658 45 l 1
 950 473 l 1
 682 473 l 1
 682 523 l 1
 1018 523 l 1
EndSplineSet
EndChar
StartChar: uni01C6
Encoding: 454 454 388
Width: 996
Flags: W
HStem: -11 48<225 298> 0 50<675 959> 473 50<631 899 631 967> 486 48<233 304.5 205 311> 633 52<795 795 795 814 777 795> 665 20G<795 795> 716 20G<474 474> 719 20G<647 647 943 943> 723 20G<416 416>
VStem: 64 62<187 260 187 339.5> 416 58<134 407 407 407 463 736 0 743 0 743>
LayerCount: 2
Fore
SplineSet
814 633 m 1x9960
 777 633 l 1
 647 739 l 1
 674 769 l 1
 795 685 l 1
 917 769 l 1
 943 739 l 1
 814 633 l 1x9960
416 463 m 1
 416 743 l 1x64e0
 474 736 l 1
 474 0 l 1
 424 0 l 1x6660
 417 80 l 1
 386 28 336 -11 260 -11 c 0
 138 -11 64 93 64 259 c 0
 64 420 141 534 269 534 c 0
 340 534 386 500 416 463 c 1
967 523 m 1
 967 478 l 1
 675 50 l 1
 965 50 l 1
 959 0 l 1
 607 0 l 1
 607 45 l 1
 899 473 l 1
 631 473 l 1
 631 523 l 1
 967 523 l 1
269 37 m 0x94e0
 338 37 380 72 416 134 c 1
 416 407 l 1
 385 451 343 486 279 486 c 0
 187 486 125 407 126 260 c 0
 126 114 181 37 269 37 c 0x94e0
EndSplineSet
EndChar
StartChar: uni01C7
Encoding: 455 455 389
Width: 751
Flags: W
HStem: 0 54<171 449> 665 20G<111 171 171 171 585 645 645 645>
VStem: 111 60<54 685 54 685 54 685> 585 60<95 685>
LayerCount: 2
Fore
SplineSet
171 685 m 1
 171 54 l 1
 457 54 l 1
 449 0 l 1
 111 0 l 1
 111 685 l 1
 171 685 l 1
645 685 m 1
 645 92 l 2
 645 -30 601 -76 489 -119 c 1
 473 -75 l 1
 564 -35 585 2 585 95 c 2
 585 685 l 1
 645 685 l 1
EndSplineSet
EndChar
StartChar: uni01C9
Encoding: 457 457 392
Width: 558
Flags: W
HStem: -203 21G<313 313> -11 50<185 203> 503 20G<396 454 454 454> 669 84<411 437.5> 716 20G<99 99> 723 20G<157 157>
VStem: 99 58<88 90 90 736 736 736> 381 87<699.5 722.5> 396 58<17 19 19 523>
LayerCount: 2
Fore
SplineSet
424 753 m 0xf3
 451 753 468 734 468 711 c 0
 468 688 451 669 424 669 c 0
 398 669 381 688 381 711 c 0
 381 734 398 753 424 753 c 0xf3
192 -11 m 0
 137 -11 99 21 99 88 c 2
 99 736 l 1xea80
 157 743 l 1xe680
 157 90 l 2
 157 56 171 39 199 39 c 0
 212 39 225 41 236 46 c 1
 251 3 l 1
 235 -5 214 -11 192 -11 c 0
454 523 m 1xe680
 454 19 l 2
 454 -121 408 -159 313 -203 c 1
 296 -161 l 1
 365 -127 396 -99 396 17 c 2
 396 523 l 1
 454 523 l 1xe680
EndSplineSet
EndChar
StartChar: uni01CB
Encoding: 459 459 394
Width: 941
Flags: W
HStem: -203 21G<696 696> 0 21G<111 168 111 111 483 562 483 483> 0 66<513 513 513 562 483 513> 503 20G<779 837 837 837> 619 66<160 160> 665 20G<111 188 188 188 505 562 562 562> 669 84<794 820.5>
VStem: 111 57<0 383 0 685> 505 57<269 685 0 685> 764 87<699.5 722.5> 779 58<17 19 19 523>
LayerCount: 2
Fore
SplineSet
807 753 m 0xd3c0
 834 753 851 734 851 711 c 0
 851 688 834 669 807 669 c 0
 781 669 764 688 764 711 c 0
 764 734 781 753 807 753 c 0xd3c0
562 685 m 1xb5a0
 562 0 l 1
 483 0 l 1
 160 619 l 1xd9a0
 163 572 168 506 168 383 c 2
 168 0 l 1
 111 0 l 1
 111 685 l 1
 188 685 l 1
 513 66 l 1
 511 95 505 180 505 269 c 2
 505 685 l 1
 562 685 l 1xb5a0
837 523 m 1
 837 19 l 2
 837 -121 791 -159 696 -203 c 1
 679 -161 l 1
 748 -127 779 -99 779 17 c 2
 779 523 l 1
 837 523 l 1
EndSplineSet
EndChar
StartChar: uni01CD
Encoding: 461 461 395
Width: 565
Flags: W
HStem: 0 21G<16 77 16 16 485 548 485 485> 187 51<154 409 154 425 137 409> 636 49<282 282>
VStem: 16 532<0 0>
LayerCount: 2
Fore
SplineSet
301 756 m 1
 265 756 l 1
 135 857 l 1
 161 888 l 1
 283 808 l 1
 404 888 l 1
 430 857 l 1
 301 756 l 1
485 0 m 1
 425 187 l 1
 137 187 l 1
 77 0 l 1
 16 0 l 1
 245 685 l 1
 320 685 l 1
 548 0 l 1
 485 0 l 1
154 238 m 1
 409 238 l 1
 282 636 l 1
 154 238 l 1
EndSplineSet
EndChar
StartChar: uni01CF
Encoding: 463 463 397
Width: 282
Flags: W
HStem: 0 21G<111 171 111 111> 665 20G<111 171 171 171>
VStem: 111 60<0 685 0 685>
LayerCount: 2
Fore
SplineSet
262 888 m 1
 288 857 l 1
 159 756 l 1
 123 756 l 1
 -7 857 l 1
 19 888 l 1
 141 808 l 1
 262 888 l 1
171 685 m 1
 171 0 l 1
 111 0 l 1
 111 685 l 1
 171 685 l 1
EndSplineSet
EndChar
StartChar: uni01D0
Encoding: 464 464 398
Width: 267
Flags: W
HStem: 0 21G<105 163 105 105> 503 20G<105 163 163 163> 633 52<134 134 134 152 116 134> 665 20G<134 134> 719 20G<-14 -14 281 281>
VStem: 105 58<0 523 0 523>
LayerCount: 2
Fore
SplineSet
255 769 m 1xdc
 281 739 l 1
 152 633 l 1
 116 633 l 1xec
 -14 739 l 1
 12 769 l 1
 134 685 l 1
 255 769 l 1xdc
163 523 m 1
 163 0 l 1
 105 0 l 1
 105 523 l 1
 163 523 l 1
EndSplineSet
EndChar
StartChar: uni01D4
Encoding: 468 468 402
Width: 576
Flags: W
HStem: -11 48<226.5 287.5> 0 21G<422 471 422 422> 503 20G<99 157 157 157 413 471 471 471> 633 52<286 286 286 304 268 286> 665 20G<286 286> 719 20G<138 138 433 433>
VStem: 99 58<149 155 155 523> 413 58<144 523 0 523>
LayerCount: 2
Fore
SplineSet
407 769 m 1xaf
 433 739 l 1
 304 633 l 1
 268 633 l 1xb7
 138 739 l 1
 164 769 l 1
 286 685 l 1
 407 769 l 1xaf
471 523 m 1
 471 0 l 1
 422 0 l 1x6f
 418 93 l 1
 382 31 328 -11 247 -11 c 0
 154 -11 99 46 99 149 c 2
 99 523 l 1
 157 523 l 1
 157 155 l 2
 157 72 192 37 261 37 c 0
 329 37 377 82 413 144 c 1
 413 523 l 1
 471 523 l 1
EndSplineSet
EndChar
StartChar: uni01D5
Encoding: 469 469 403
Width: 652
Flags: W
HStem: -11 52<268.5 383.5 268.5 401> 665 20G<101 161 161 161 490 551 551 551> 744 79<219.5 242.5 408.5 431.5> 878 47<207 448 207 448>
VStem: 101 60<214 219 219 685> 191 80<772 794> 207 241<878 925 878 925> 380 80<772 794> 490 61<219 685>
LayerCount: 2
Fore
SplineSet
448 878 m 1xfa80
 207 878 l 1
 207 925 l 1
 448 925 l 1
 448 878 l 1xfa80
231 823 m 0xfd80
 254 823 271 805 271 783 c 0
 271 761 254 744 231 744 c 0
 208 744 191 761 191 783 c 0
 191 805 208 823 231 823 c 0xfd80
420 823 m 0
 443 823 460 805 460 783 c 0
 460 761 443 744 420 744 c 0
 397 744 380 761 380 783 c 0
 380 805 397 823 420 823 c 0
551 685 m 1xfa80
 551 214 l 2
 551 82 476 -11 326 -11 c 0
 174 -11 101 82 101 214 c 2
 101 685 l 1
 161 685 l 1
 161 219 l 2
 161 108 211 41 326 41 c 0
 441 41 490 109 490 219 c 2
 490 685 l 1
 551 685 l 1xfa80
EndSplineSet
EndChar
StartChar: uni01D6
Encoding: 470 470 404
Width: 576
Flags: W
HStem: -11 48<226.5 287.5> 0 21G<422 471 422 422> 503 20G<99 157 157 157 413 471 471 471> 633 79<179.5 202.5 368.5 391.5> 772 47<165 406 165 406>
VStem: 99 58<149 155 155 523> 151 80<661 683> 165 241<772 819 772 819> 340 80<661 683> 413 58<144 523 0 523>
LayerCount: 2
Fore
SplineSet
406 772 m 1xbd
 165 772 l 1
 165 819 l 1
 406 819 l 1
 406 772 l 1xbd
191 712 m 0xba80
 214 712 231 694 231 672 c 0
 231 650 214 633 191 633 c 0
 168 633 151 650 151 672 c 0
 151 694 168 712 191 712 c 0xba80
380 712 m 0
 403 712 420 694 420 672 c 0
 420 650 403 633 380 633 c 0
 357 633 340 650 340 672 c 0
 340 694 357 712 380 712 c 0
471 523 m 1xbc40
 471 0 l 1
 422 0 l 1x7c40
 418 93 l 1
 382 31 328 -11 247 -11 c 0
 154 -11 99 46 99 149 c 2
 99 523 l 1
 157 523 l 1
 157 155 l 2
 157 72 192 37 261 37 c 0
 329 37 377 82 413 144 c 1
 413 523 l 1
 471 523 l 1xbc40
EndSplineSet
EndChar
StartChar: uni01D7
Encoding: 471 471 405
Width: 652
Flags: W
HStem: -11 52<268.5 383.5 268.5 401> 665 20G<101 161 161 161 490 551 551 551> 744 79<219.5 242.5 408.5 431.5>
VStem: 101 60<214 219 219 685> 191 80<772 794> 380 80<772 794> 490 61<219 685>
LayerCount: 2
Fore
SplineSet
404 971 m 1
 443 935 l 1
 323 815 l 1
 296 839 l 1
 404 971 l 1
231 823 m 0xfe
 254 823 271 805 271 783 c 0
 271 761 254 744 231 744 c 0
 208 744 191 761 191 783 c 0
 191 805 208 823 231 823 c 0xfe
420 823 m 0
 443 823 460 805 460 783 c 0
 460 761 443 744 420 744 c 0
 397 744 380 761 380 783 c 0
 380 805 397 823 420 823 c 0
551 685 m 1xf2
 551 214 l 2
 551 82 476 -11 326 -11 c 0
 174 -11 101 82 101 214 c 2
 101 685 l 1
 161 685 l 1
 161 219 l 2
 161 108 211 41 326 41 c 0
 441 41 490 109 490 219 c 2
 490 685 l 1
 551 685 l 1xf2
EndSplineSet
EndChar
StartChar: uni01D8
Encoding: 472 472 406
Width: 576
Flags: W
HStem: -11 48<226.5 287.5> 0 21G<422 471 422 422> 503 20G<99 157 157 157 413 471 471 471> 633 79<179.5 202.5 368.5 391.5>
VStem: 99 58<149 155 155 523> 151 80<661 683> 340 80<661 683> 413 58<144 523 0 523>
LayerCount: 2
Fore
SplineSet
364 860 m 1xb9
 403 824 l 1
 283 704 l 1
 256 728 l 1
 364 860 l 1xb9
191 712 m 0xb6
 214 712 231 694 231 672 c 0
 231 650 214 633 191 633 c 0
 168 633 151 650 151 672 c 0
 151 694 168 712 191 712 c 0xb6
380 712 m 0
 403 712 420 694 420 672 c 0
 420 650 403 633 380 633 c 0
 357 633 340 650 340 672 c 0
 340 694 357 712 380 712 c 0
471 523 m 1xb9
 471 0 l 1
 422 0 l 1x79
 418 93 l 1
 382 31 328 -11 247 -11 c 0
 154 -11 99 46 99 149 c 2
 99 523 l 1
 157 523 l 1
 157 155 l 2
 157 72 192 37 261 37 c 0
 329 37 377 82 413 144 c 1
 413 523 l 1
 471 523 l 1xb9
EndSplineSet
EndChar
StartChar: uni01DA
Encoding: 474 474 409
Width: 576
Flags: W
HStem: -11 48<226.5 287.5> 0 21G<422 471 422 422> 503 20G<99 157 157 157 413 471 471 471> 633 79<179.5 202.5 368.5 391.5>
VStem: 99 58<149 155 155 523> 151 80<661 683> 340 80<661 683> 413 58<144 523 0 523>
LayerCount: 2
Fore
SplineSet
405 850 m 1xb9
 431 820 l 1
 302 719 l 1
 266 719 l 1
 136 820 l 1
 162 850 l 1
 284 770 l 1
 405 850 l 1xb9
191 712 m 0xb6
 214 712 231 694 231 672 c 0
 231 650 214 633 191 633 c 0
 168 633 151 650 151 672 c 0
 151 694 168 712 191 712 c 0xb6
380 712 m 0
 403 712 420 694 420 672 c 0
 420 650 403 633 380 633 c 0
 357 633 340 650 340 672 c 0
 340 694 357 712 380 712 c 0
471 523 m 1xb9
 471 0 l 1
 422 0 l 1x79
 418 93 l 1
 382 31 328 -11 247 -11 c 0
 154 -11 99 46 99 149 c 2
 99 523 l 1
 157 523 l 1
 157 155 l 2
 157 72 192 37 261 37 c 0
 329 37 377 82 413 144 c 1
 413 523 l 1
 471 523 l 1xb9
EndSplineSet
EndChar
StartChar: uni01DD
Encoding: 477 477 412
Width: 541
Flags: W
HStem: -11 48<217.5 310 217.5 328> 239 46<115 416 115 115> 485 49<237.5 309.5>
VStem: 58 57<170.5 233 233 239 170.5 252> 416 61<239 239 285 285>
LayerCount: 2
Fore
SplineSet
266 534 m 0
 403 534 477 439 477 264 c 0
 477 84 392 -11 264 -11 c 0
 137 -11 58 87 58 246 c 0
 58 258 58 273 60 285 c 1
 416 285 l 1
 411 424 354 485 265 485 c 0
 210 485 168 470 121 435 c 1
 93 474 l 1
 141 512 198 534 266 534 c 0
264 37 m 0
 356 37 412 96 416 239 c 1
 115 239 l 1
 115 233 l 2
 115 108 171 37 264 37 c 0
EndSplineSet
EndChar
StartChar: uni01DE
Encoding: 478 478 412
Width: 565
Flags: W
HStem: 0 21G<16 77 16 16 485 548 485 485> 187 51<154 409 154 425 137 409> 636 49<282 282> 744 79<176.5 199.5 365.5 388.5> 878 47<164 405 164 405>
VStem: 148 80<772 794> 164 241<878 925 878 925> 337 80<772 794>
LayerCount: 2
Fore
SplineSet
405 925 m 1xfa
 405 878 l 1
 164 878 l 1
 164 925 l 1
 405 925 l 1xfa
188 744 m 0xfd
 165 744 148 761 148 783 c 0
 148 805 165 823 188 823 c 0
 211 823 228 805 228 783 c 0
 228 761 211 744 188 744 c 0xfd
337 783 m 0
 337 805 354 823 377 823 c 0
 400 823 417 805 417 783 c 0
 417 761 400 744 377 744 c 0
 354 744 337 761 337 783 c 0
485 0 m 1
 425 187 l 1
 137 187 l 1
 77 0 l 1
 16 0 l 1
 245 685 l 1
 320 685 l 1
 548 0 l 1
 485 0 l 1
154 238 m 1
 409 238 l 1
 282 636 l 1
 154 238 l 1
EndSplineSet
EndChar
StartChar: uni01DF
Encoding: 479 479 413
Width: 536
Flags: W
HStem: -11 47<193.5 253> 272 42<273 282 282 373> 485 49<232.5 295.5> 633 79<152.5 175.5 341.5 364.5> 772 47<138 379 138 379>
VStem: 56 62<112 189.5 112 200> 124 80<661 683> 138 241<772 819 772 819> 313 80<661 683> 373 58<128 272 272 272 314 365 365 368>
LayerCount: 2
Fore
SplineSet
379 819 m 1xed
 379 772 l 1
 138 772 l 1
 138 819 l 1
 379 819 l 1xed
164 633 m 0xfa80
 141 633 124 650 124 672 c 0
 124 694 141 712 164 712 c 0
 187 712 204 694 204 672 c 0
 204 650 187 633 164 633 c 0xfa80
313 672 m 0
 313 694 330 712 353 712 c 0
 376 712 393 694 393 672 c 0
 393 650 376 633 353 633 c 0
 330 633 313 650 313 672 c 0
431 116 m 2xec40
 431 58 447 41 475 30 c 1
 462 -11 l 1
 416 -2 389 21 381 77 c 1
 344 17 288 -11 218 -11 c 0
 117 -11 56 52 56 145 c 0
 56 255 139 314 273 314 c 2
 373 314 l 1
 373 365 l 2
 373 448 339 485 252 485 c 0
 210 485 162 474 110 455 c 1
 95 499 l 1
 153 522 205 534 260 534 c 0
 379 534 431 475 431 368 c 2
 431 116 l 2xec40
228 36 m 0
 294 36 340 69 373 128 c 1
 373 272 l 1
 282 272 l 2
 177 272 118 231 118 148 c 0
 118 76 159 36 228 36 c 0
EndSplineSet
EndChar
StartChar: uni01E1
Encoding: 481 481 416
Width: 536
Flags: W
HStem: -11 47<193.5 253> 272 42<273 282 282 373> 485 49<232.5 295.5> 619 84<244 270.5> 757 47<138 379 138 379>
VStem: 56 62<112 189.5 112 200> 138 241<757 804 757 804> 214 87<649.5 672.5> 373 58<128 272 272 272 314 365 365 368>
LayerCount: 2
Fore
SplineSet
379 804 m 1xee
 379 757 l 1
 138 757 l 1
 138 804 l 1
 379 804 l 1xee
214 661 m 0xfd80
 214 684 231 703 257 703 c 0
 284 703 301 684 301 661 c 0
 301 638 284 619 257 619 c 0
 231 619 214 638 214 661 c 0xfd80
431 116 m 2
 431 58 447 41 475 30 c 1
 462 -11 l 1
 416 -2 389 21 381 77 c 1
 344 17 288 -11 218 -11 c 0
 117 -11 56 52 56 145 c 0
 56 255 139 314 273 314 c 2
 373 314 l 1
 373 365 l 2
 373 448 339 485 252 485 c 0
 210 485 162 474 110 455 c 1
 95 499 l 1
 153 522 205 534 260 534 c 0
 379 534 431 475 431 368 c 2
 431 116 l 2
228 36 m 0
 294 36 340 69 373 128 c 1
 373 272 l 1
 282 272 l 2
 177 272 118 231 118 148 c 0
 118 76 159 36 228 36 c 0
EndSplineSet
EndChar
StartChar: uni01E2
Encoding: 482 482 416
Width: 784
Flags: W
HStem: 0 50<509 737 509 737 461 737> 184 51<149 402 149 415 130 402> 330 49<437 682 437 437> 635 50<358 683 358 358> 802 47<336 577 336 577>
VStem: 336 241<802 849 802 849>
LayerCount: 2
Fore
SplineSet
577 849 m 1
 577 802 l 1
 336 802 l 1
 336 849 l 1
 577 849 l 1
509 50 m 1
 737 50 l 1
 737 0 l 1
 461 0 l 1
 415 184 l 1
 130 184 l 1
 60 0 l 1
 0 0 l 1
 267 685 l 1
 690 685 l 1
 683 635 l 1
 358 635 l 1
 424 379 l 1
 682 379 l 1
 682 330 l 1
 437 330 l 1
 509 50 l 1
149 235 m 1
 402 235 l 1
 302 637 l 1
 149 235 l 1
EndSplineSet
EndChar
StartChar: uni01E3
Encoding: 483 483 418
Width: 845
Flags: W
HStem: -11 47<194.5 259> 239 45<437 730 437 786 437 730> 272 43<275 283 283 375> 486 48<549.5 635.5> 676 47<304 545 304 545>
VStem: 56 63<112 189.5 112 200> 304 241<676 723 676 723> 375 62<239 272 239 272> 730 58<284 299 299 356>
LayerCount: 2
Fore
SplineSet
545 723 m 1xde80
 545 676 l 1
 304 676 l 1
 304 723 l 1
 545 723 l 1xde80
788 281 m 0
 788 265 787 249 786 239 c 1
 437 239 l 1xdd80
 443 97 509 38 599 38 c 0
 656 38 695 56 740 90 c 1
 768 53 l 1
 719 13 666 -11 596 -11 c 0
 512 -11 447 27 410 96 c 1
 356 19 298 -11 220 -11 c 0
 118 -11 56 52 56 145 c 0
 56 255 141 315 275 315 c 2
 375 315 l 1
 375 365 l 2xbd80
 375 448 340 485 254 485 c 0
 211 485 164 474 112 455 c 1
 96 499 l 1
 154 522 206 534 261 534 c 0
 352 534 400 497 421 433 c 1
 456 498 511 534 588 534 c 0
 719 534 788 435 788 281 c 0
730 284 m 1xdd80
 730 299 l 2
 730 413 684 486 587 486 c 0
 505 486 443 426 437 284 c 1
 730 284 l 1xdd80
229 36 m 0
 296 36 342 68 391 141 c 1
 381 175 375 213 375 256 c 2
 375 272 l 1
 283 272 l 2xbd80
 179 272 119 231 119 148 c 0
 119 76 160 36 229 36 c 0
EndSplineSet
EndChar
StartChar: uni01E4
Encoding: 484 484 418
Width: 631
Flags: W
HStem: -11 51<281.5 377 281.5 386> 191 51<359 493 359 493 552 623> 319 50<359 493 359 359> 645 51<297 382>
VStem: 66 63<240 453.5 240 462.5> 493 59<75 191 45 191 242 319 319 319>
LayerCount: 2
Fore
SplineSet
623 242 m 1
 623 191 l 1
 552 191 l 1
 552 45 l 1
 492 10 424 -11 348 -11 c 0
 179 -11 66 108 66 345 c 0
 66 580 207 696 350 696 c 0
 432 696 484 673 540 628 c 1
 504 591 l 1
 456 628 413 645 351 645 c 0
 243 645 129 562 129 345 c 0
 129 135 214 40 349 40 c 0
 405 40 450 52 493 75 c 1
 493 191 l 1
 359 191 l 1
 359 242 l 1
 493 242 l 1
 493 319 l 1
 359 319 l 1
 352 369 l 1
 552 369 l 1
 552 242 l 1
 623 242 l 1
EndSplineSet
EndChar
StartChar: uni01E5
Encoding: 485 485 420
Width: 503
Flags: W
HStem: -205 48<188.5 306 188.5 321> -78 43<268 420 268 421 268 420 477 532> 31 48<172.5 310 225 301> 183 42<237.5 290.5 208 309> 489 45<203.5 248 190.5 292.5> 497 37 514 20G<190.5 248> 548 20G<477 477>
VStem: 56 60<322 395.5 315 409.5> 87 55<117.5 138.5> 380 59<314.5 391 304 397>
LayerCount: 2
Fore
SplineSet
532 -35 m 1xf9a0
 532 -78 l 1
 476 -78 l 1
 465 -158 391 -205 251 -205 c 0
 93 -205 33 -159 33 -55 c 1
 87 -55 l 1
 88 -128 126 -157 251 -157 c 0
 361 -157 411 -128 421 -78 c 1
 268 -78 l 1
 268 -35 l 1
 420 -35 l 1
 409 8 366 31 301 31 c 2
 216 31 l 2
 129 31 87 71 87 121 c 0xf960
 87 156 108 187 144 210 c 1
 84 241 56 287 56 357 c 0
 56 462 133 534 248 534 c 0xf9a0
 388 532 426 547 477 568 c 1
 495 512 l 1xf3a0
 459 502 413 498 350 497 c 1
 405 471 439 427 439 355 c 0
 439 253 368 183 250 183 c 0
 225 183 202 186 182 193 c 1
 157 179 142 157 142 133 c 0
 142 102 162 79 225 79 c 2xf560
 310 79 l 2
 405 79 466 32 477 -35 c 1
 532 -35 l 1xf9a0
116 357 m 0xf9a0
 116 273 168 225 248 225 c 0
 333 225 380 273 380 356 c 0
 380 438 337 489 248 489 c 0
 159 489 116 434 116 357 c 0xf9a0
EndSplineSet
EndChar
StartChar: Gcaron
Encoding: 486 486 420
Width: 618
Flags: W
HStem: -11 51<281.5 377 281.5 386> 319 50<359 493 359 359> 645 51<297 382.5>
VStem: 66 63<240 454 240 463> 493 59<76 319 319 319>
LayerCount: 2
Fore
SplineSet
473 888 m 1
 499 857 l 1
 370 756 l 1
 334 756 l 1
 204 857 l 1
 230 888 l 1
 352 808 l 1
 473 888 l 1
352 696 m 0
 432 696 484 673 540 628 c 1
 504 590 l 1
 456 628 413 645 352 645 c 0
 242 645 129 563 129 345 c 0
 129 135 214 40 349 40 c 0
 405 40 450 52 493 76 c 1
 493 319 l 1
 359 319 l 1
 352 369 l 1
 552 369 l 1
 552 45 l 1
 491 10 423 -11 349 -11 c 0
 179 -11 66 108 66 345 c 0
 66 581 205 696 352 696 c 0
EndSplineSet
EndChar
StartChar: uni01E8
Encoding: 488 488 423
Width: 547
Flags: W
HStem: 0 21G<111 171 111 111 474 474 474 547> 665 20G<111 171 171 171 461 530 530 530>
VStem: 111 60<0 685 0 685>
LayerCount: 2
Fore
SplineSet
428 888 m 1
 454 857 l 1
 325 756 l 1
 289 756 l 1
 159 857 l 1
 185 888 l 1
 307 808 l 1
 428 888 l 1
171 685 m 1
 171 0 l 1
 111 0 l 1
 111 685 l 1
 171 685 l 1
530 685 m 1
 246 370 l 1
 547 0 l 1
 474 0 l 1
 175 367 l 1
 461 685 l 1
 530 685 l 1
EndSplineSet
EndChar
StartChar: uni01E9
Encoding: 489 489 423
Width: 487
Flags: W
HStem: 0 21G<105 163 105 105 409 409 409 479> 503 20G<388 456 456 456> 716 20G<105 105> 723 20G<163 163>
VStem: 105 58<0 736 736 736>
LayerCount: 2
Fore
SplineSet
389 939 m 1xd8
 415 908 l 1
 286 807 l 1
 250 807 l 1
 120 908 l 1
 146 939 l 1
 268 859 l 1
 389 939 l 1xd8
163 743 m 1
 163 0 l 1
 105 0 l 1
 105 736 l 1xe8
 163 743 l 1
456 523 m 1
 236 289 l 1
 479 0 l 1
 409 0 l 1
 169 286 l 1
 388 523 l 1
 456 523 l 1
EndSplineSet
EndChar
StartChar: uni01EA
Encoding: 490 490 424
Width: 691
Flags: W
HStem: -218 48<346 373> -11 51 645 51<280.5 411>
VStem: 66 63<238.5 445 238.5 454> 251 54<-133.5 -102> 562 63<249 446>
LayerCount: 2
Fore
SplineSet
625 342 m 0
 625 156 550 36 427 0 c 1
 339 -40 305 -71 305 -118 c 0
 305 -149 324 -170 368 -170 c 0
 387 -170 404 -168 426 -163 c 1
 420 -211 l 1
 400 -215 384 -218 362 -218 c 0
 289 -218 251 -178 251 -126 c 0
 251 -78 279 -42 334 -11 c 1
 175 -5 66 118 66 341 c 0
 66 567 181 696 345 696 c 0
 512 696 625 573 625 342 c 0
345 40 m 0
 479 40 562 136 562 342 c 0
 562 550 477 645 345 645 c 0
 216 645 129 549 129 341 c 0
 129 136 218 40 345 40 c 0
EndSplineSet
EndChar
StartChar: uni01EB
Encoding: 491 491 426
Width: 571
Flags: W
HStem: -218 48<275 302> -10 48 485 49<236.5 336.5>
VStem: 64 62<187.5 336 187.5 345> 180 54<-133.5 -102> 446 61<193.5 336.5>
LayerCount: 2
Fore
SplineSet
353 -1 m 1
 267 -41 234 -72 234 -118 c 0
 234 -149 253 -170 297 -170 c 0
 316 -170 333 -168 355 -163 c 1
 349 -211 l 1
 329 -215 313 -218 291 -218 c 0
 218 -218 180 -178 180 -126 c 0
 180 -78 208 -41 264 -10 c 1
 138 0 64 102 64 261 c 0
 64 429 149 534 286 534 c 0
 425 534 507 434 507 263 c 0
 507 124 450 28 353 -1 c 1
126 261 m 0
 126 114 185 38 285 38 c 0
 385 38 446 113 446 263 c 0
 446 410 387 485 286 485 c 0
 187 485 126 411 126 261 c 0
EndSplineSet
EndChar
StartChar: uni01EE
Encoding: 494 494 429
Width: 494
Flags: W
HStem: -11 51<183 274 183 291.5> 339 47<193 212> 635 50<39 349 39 421>
VStem: 384 62<146 243.5>
LayerCount: 2
Fore
SplineSet
248 756 m 1
 212 756 l 1
 82 857 l 1
 108 888 l 1
 230 808 l 1
 351 888 l 1
 377 857 l 1
 248 756 l 1
221 386 m 2
 370 386 446 315 446 190 c 0
 446 73 362 -11 221 -11 c 0
 128 -11 66 19 15 75 c 1
 51 110 l 1
 98 60 147 40 219 40 c 0
 329 40 384 102 384 190 c 0
 384 297 321 339 212 339 c 2
 128 339 l 1
 128 385 l 1
 349 635 l 1
 39 635 l 1
 39 685 l 1
 421 685 l 1
 421 636 l 1
 193 386 l 1
 221 386 l 2
EndSplineSet
EndChar
StartChar: uni01EF
Encoding: 495 495 430
Width: 456
Flags: W
HStem: -205 49<174.5 259.5 174.5 276> 154 46<184 187 123 123> 473 50<34 336 34 404> 633 52<219 219 219 237 201 219> 719 20G<71 71 366 366>
VStem: 367 62<-45 58>
LayerCount: 2
Fore
SplineSet
237 633 m 1
 201 633 l 1
 71 739 l 1
 97 769 l 1
 219 685 l 1
 340 769 l 1
 366 739 l 1
 237 633 l 1
196 200 m 2
 353 200 429 131 429 4 c 0
 429 -120 344 -205 208 -205 c 0
 121 -205 61 -175 11 -119 c 1
 46 -87 l 1
 94 -136 142 -156 207 -156 c 0
 312 -156 367 -95 367 5 c 0
 367 111 311 154 187 154 c 2
 123 154 l 1
 123 200 l 1
 336 473 l 1
 34 473 l 1
 34 523 l 1
 404 523 l 1
 404 478 l 1
 184 200 l 1
 196 200 l 2
EndSplineSet
EndChar
StartChar: uni01F0
Encoding: 496 496 431
Width: 268
Flags: W
HStem: -203 21G<23 23> 503 20G<106 164 164 164> 633 52<135 135 135 153 117 135> 665 20G<135 135> 719 20G<-13 -13 282 282>
VStem: 106 58<17 19 19 523>
LayerCount: 2
Fore
SplineSet
256 769 m 1xdc
 282 739 l 1
 153 633 l 1
 117 633 l 1xec
 -13 739 l 1
 13 769 l 1
 135 685 l 1
 256 769 l 1xdc
164 523 m 1
 164 19 l 2
 164 -121 118 -159 23 -203 c 1
 6 -161 l 1
 75 -127 106 -99 106 17 c 2
 106 523 l 1
 164 523 l 1
EndSplineSet
EndChar
StartChar: uni01F1
Encoding: 497 497 431
Width: 1123
Flags: W
HStem: 0 50<171 258> 0 53<711 1061> 633 52<680 1009>
VStem: 111 60<50 635 50 685 50 685> 503 63<225 473.5>
LayerCount: 2
Fore
SplineSet
247 685 m 2x78
 406 685 566 630 566 348 c 0
 566 64 399 0 258 0 c 2
 111 0 l 1
 111 685 l 1
 247 685 l 2x78
1075 685 m 1
 1075 636 l 1
 711 53 l 1
 1069 53 l 1
 1061 0 l 1
 642 0 l 1
 642 50 l 1
 1009 633 l 1
 680 633 l 1
 680 685 l 1
 1075 685 l 1
255 635 m 2
 171 635 l 1
 171 50 l 1
 262 50 l 2xb8
 380 50 503 102 503 348 c 0
 503 599 375 635 255 635 c 2
EndSplineSet
EndChar
StartChar: uni01F2
Encoding: 498 498 432
Width: 1047
Flags: W
HStem: 0 50<171 258 726 1010> 473 50<682 950 682 1018> 635 50<171 247 247 255 171 171>
VStem: 111 60<50 635 50 685 50 685> 503 63<225 473.5>
LayerCount: 2
Fore
SplineSet
247 685 m 2
 406 685 566 630 566 348 c 0
 566 64 399 0 258 0 c 2
 111 0 l 1
 111 685 l 1
 247 685 l 2
255 635 m 2
 171 635 l 1
 171 50 l 1
 262 50 l 2
 380 50 503 102 503 348 c 0
 503 599 375 635 255 635 c 2
1018 523 m 1
 1018 478 l 1
 726 50 l 1
 1016 50 l 1
 1010 0 l 1
 658 0 l 1
 658 45 l 1
 950 473 l 1
 682 473 l 1
 682 523 l 1
 1018 523 l 1
EndSplineSet
EndChar
StartChar: uni01F5
Encoding: 501 501 435
Width: 506
Flags: W
HStem: -205 48<188.5 312 188.5 327.5> 29 50<172.5 310 225 301> 183 42<237.5 290.5 208 309> 489 45<203.5 248 190.5 292.5> 497 37 514 20G<190.5 248> 548 20G<477 477>
VStem: 56 60<322 395.5 315 409.5> 87 55<117.5 138.5> 380 59<314.5 391 304 397> 419 59<-89 -30>
LayerCount: 2
Fore
SplineSet
327 782 m 1xf340
 353 730 l 1
 158 645 l 1
 139 679 l 1
 327 782 l 1xf340
477 568 m 1
 495 512 l 1xe740
 459 502 413 498 350 497 c 1
 405 471 439 427 439 355 c 0xeb40
 439 253 368 183 250 183 c 0
 225 183 202 186 182 193 c 1
 157 179 142 157 142 133 c 0
 142 102 162 79 225 79 c 2
 310 79 l 2
 414 79 478 23 478 -55 c 0
 478 -149 404 -205 251 -205 c 0
 93 -205 33 -159 33 -55 c 1
 87 -55 l 1
 88 -128 126 -157 251 -157 c 0
 373 -157 419 -120 419 -58 c 0
 419 -2 375 29 301 29 c 2
 216 29 l 2
 129 29 87 71 87 121 c 0xf2a0
 87 156 108 187 144 210 c 1
 84 241 56 287 56 357 c 0
 56 462 133 534 248 534 c 0
 388 532 426 547 477 568 c 1
248 489 m 0xf340
 159 489 116 434 116 357 c 0
 116 273 168 225 248 225 c 0
 333 225 380 273 380 356 c 0
 380 438 337 489 248 489 c 0xf340
EndSplineSet
EndChar
StartChar: uni01F6
Encoding: 502 502 436
Width: 964
Flags: W
HStem: -11 49<639 708 639 725> 0 21G<111 171 111 111> 335 51<171 499 171 499> 503 20G<798 857 857 857> 665 20G<111 171 171 171 499 559 559 559>
VStem: 111 60<0 335 0 386 386 685> 499 60<159 163 163 335 335 335 386 685> 824 59<177 306>
LayerCount: 2
Fore
SplineSet
857 523 m 1xbf
 871 442 883 357 883 260 c 0
 883 70 780 -11 670 -11 c 0xbf
 576 -11 499 47 499 159 c 2
 499 335 l 1
 171 335 l 1
 171 0 l 1
 111 0 l 1x7f
 111 685 l 1
 171 685 l 1
 171 386 l 1
 499 386 l 1
 499 685 l 1
 559 685 l 1
 559 163 l 2
 559 76 606 38 672 38 c 0
 744 38 824 90 824 264 c 0
 824 348 814 437 798 523 c 1
 857 523 l 1xbf
EndSplineSet
EndChar
StartChar: Aringacute
Encoding: 506 506 440
Width: 565
Flags: W
HStem: 0 21G<16 77 16 16 485 548 485 485> 187 51<154 409 154 425 137 409> 636 49<282 282> 728 36<265 300 265 312> 880 36<265 300.5>
VStem: 184 43<803.5 840 803.5 849> 338 43<803.5 840>
LayerCount: 2
Fore
SplineSet
391 1005 m 1
 193 927 l 1
 177 961 l 1
 365 1057 l 1
 391 1005 l 1
184 822 m 0
 184 876 224 916 283 916 c 0
 341 916 381 876 381 822 c 0
 381 767 341 728 283 728 c 0
 224 728 184 767 184 822 c 0
338 822 m 0
 338 858 318 880 283 880 c 0
 247 880 227 858 227 822 c 0
 227 785 247 764 283 764 c 0
 317 764 338 785 338 822 c 0
485 0 m 1
 425 187 l 1
 137 187 l 1
 77 0 l 1
 16 0 l 1
 245 685 l 1
 320 685 l 1
 548 0 l 1
 485 0 l 1
154 238 m 1
 409 238 l 1
 282 636 l 1
 154 238 l 1
EndSplineSet
EndChar
StartChar: aringacute
Encoding: 507 507 441
Width: 536
Flags: W
HStem: -11 47<193.5 253> 272 42<273 282 282 373> 485 49<232.5 295.5> 587 36<240.5 275.5 240.5 287.5> 739 36<240.5 276>
VStem: 56 62<112 189.5 112 200> 160 43<663 699.5 663 708.5> 314 43<663 699.5> 373 58<128 272 272 272 314 365 365 368>
LayerCount: 2
Fore
SplineSet
365 860 m 1
 167 783 l 1
 151 816 l 1
 339 912 l 1
 365 860 l 1
160 681 m 0
 160 736 200 775 258 775 c 0
 317 775 357 736 357 681 c 0xff80
 357 627 317 587 258 587 c 0
 200 587 160 627 160 681 c 0
314 681 m 0xff80
 314 718 294 739 258 739 c 0
 223 739 203 718 203 681 c 0
 203 645 223 623 258 623 c 0
 293 623 314 645 314 681 c 0xff80
431 116 m 2xfe80
 431 58 447 41 475 30 c 1
 462 -11 l 1
 416 -2 389 21 381 77 c 1
 344 17 288 -11 218 -11 c 0
 117 -11 56 52 56 145 c 0
 56 255 139 314 273 314 c 2
 373 314 l 1
 373 365 l 2
 373 448 339 485 252 485 c 0
 210 485 162 474 110 455 c 1
 95 499 l 1
 153 522 205 534 260 534 c 0
 379 534 431 475 431 368 c 2
 431 116 l 2xfe80
228 36 m 0
 294 36 340 69 373 128 c 1
 373 272 l 1
 282 272 l 2
 177 272 118 231 118 148 c 0
 118 76 159 36 228 36 c 0
EndSplineSet
EndChar
StartChar: uni01FF
Encoding: 511 511 446
Width: 571
Flags: W
HStem: -11 49<276.5 335 276.5 354> -3 21G<224 224> 485 49<236.5 295> 506 20G<349 349>
VStem: 64 62<209 336 209 345> 446 61<188 314.5>
LayerCount: 2
Fore
SplineSet
387 730 m 1xac
 192 645 l 1
 173 679 l 1
 361 782 l 1
 387 730 l 1xac
396 507 m 1x9c
 467 467 507 382 507 263 c 0
 507 94 423 -11 285 -11 c 0xac
 263 -11 243 -8 224 -3 c 1
 183 -125 l 1
 134 -111 l 1
 177 15 l 1
 105 56 64 143 64 261 c 0
 64 429 149 534 286 534 c 0x6c
 309 534 330 531 349 526 c 1
 388 648 l 1
 437 634 l 1
 396 507 l 1x9c
126 261 m 0xac
 126 157 152 93 199 61 c 1
 337 478 l 1
 322 483 304 485 286 485 c 0
 187 485 126 411 126 261 c 0xac
285 38 m 0
 385 38 446 113 446 263 c 0
 446 366 420 430 374 461 c 1
 236 44 l 1
 251 40 268 38 285 38 c 0
EndSplineSet
EndChar
StartChar: uni0200
Encoding: 512 512 446
Width: 565
Flags: W
HStem: 0 21G<16 77 16 16 485 548 485 485> 187 51<154 409 154 425 137 409> 636 49<282 282>
VStem: 16 532<0 0>
LayerCount: 2
Fore
SplineSet
243 786 m 1
 205 768 l 1
 112 910 l 1
 164 937 l 1
 243 786 l 1
364 790 m 1
 326 773 l 1
 242 909 l 1
 294 937 l 1
 364 790 l 1
485 0 m 1
 425 187 l 1
 137 187 l 1
 77 0 l 1
 16 0 l 1
 245 685 l 1
 320 685 l 1
 548 0 l 1
 485 0 l 1
154 238 m 1
 409 238 l 1
 282 636 l 1
 154 238 l 1
EndSplineSet
EndChar
StartChar: uni0202
Encoding: 514 514 448
Width: 565
Flags: W
HStem: 0 21G<16 77 16 16 485 548 485 485> 187 51<154 409 154 425 137 409> 636 49<282 282> 857 47<258.5 305.5>
VStem: 16 532<0 0>
LayerCount: 2
Fore
SplineSet
282 857 m 0
 235 857 205 832 192 785 c 1
 152 794 l 1
 161 861 213 904 282 904 c 0
 351 904 404 861 413 794 c 1
 373 785 l 1
 360 832 329 857 282 857 c 0
485 0 m 1
 425 187 l 1
 137 187 l 1
 77 0 l 1
 16 0 l 1
 245 685 l 1
 320 685 l 1
 548 0 l 1
 485 0 l 1
154 238 m 1
 409 238 l 1
 282 636 l 1
 154 238 l 1
EndSplineSet
EndChar
StartChar: uni0203
Encoding: 515 515 449
Width: 536
Flags: W
HStem: -11 47<193.5 253> 272 42<273 282 282 373> 485 49<232.5 295.5> 695 47<234.5 281.5>
VStem: 56 62<112 189.5 112 200> 373 58<128 272 272 272 314 365 365 368>
LayerCount: 2
Fore
SplineSet
258 695 m 0
 211 695 181 670 168 623 c 1
 128 632 l 1
 137 699 189 742 258 742 c 0
 327 742 380 699 389 632 c 1
 349 623 l 1
 336 670 305 695 258 695 c 0
431 116 m 2
 431 58 447 41 475 30 c 1
 462 -11 l 1
 416 -2 389 21 381 77 c 1
 344 17 288 -11 218 -11 c 0
 117 -11 56 52 56 145 c 0
 56 255 139 314 273 314 c 2
 373 314 l 1
 373 365 l 2
 373 448 339 485 252 485 c 0
 210 485 162 474 110 455 c 1
 95 499 l 1
 153 522 205 534 260 534 c 0
 379 534 431 475 431 368 c 2
 431 116 l 2
228 36 m 0
 294 36 340 69 373 128 c 1
 373 272 l 1
 282 272 l 2
 177 272 118 231 118 148 c 0
 118 76 159 36 228 36 c 0
EndSplineSet
EndChar
StartChar: uni0205
Encoding: 517 517 451
Width: 535
Flags: W
HStem: -11 49<244 317.5 244 320.5> 239 45<126 420 126 475 126 420> 486 48<234 324.5>
VStem: 64 62<239 239 239 284 239 340.5> 420 57<284 299 299 356>
LayerCount: 2
Fore
SplineSet
247 660 m 1
 209 642 l 1
 116 784 l 1
 168 811 l 1
 247 660 l 1
368 664 m 1
 330 647 l 1
 246 783 l 1
 298 811 l 1
 368 664 l 1
477 281 m 0
 477 265 476 249 475 239 c 1
 126 239 l 1
 133 97 199 38 289 38 c 0
 346 38 384 56 430 90 c 1
 457 53 l 1
 408 13 355 -11 286 -11 c 0
 148 -11 64 89 64 257 c 0
 64 424 145 534 273 534 c 0
 409 534 477 435 477 281 c 0
420 284 m 1
 420 299 l 2
 420 413 374 486 275 486 c 0
 193 486 132 426 126 284 c 1
 420 284 l 1
EndSplineSet
EndChar
StartChar: uni0206
Encoding: 518 518 453
Width: 512
Flags: W
HStem: 0 50<171 466 171 466> 330 50<171 414 171 414> 635 50<171 452 171 171> 857 47<264.5 311.5>
VStem: 111 60<50 330 380 635>
LayerCount: 2
Fore
SplineSet
288 904 m 0
 357 904 410 861 419 794 c 1
 379 785 l 1
 366 832 335 857 288 857 c 0
 241 857 211 832 198 785 c 1
 158 794 l 1
 167 861 219 904 288 904 c 0
459 685 m 1
 452 635 l 1
 171 635 l 1
 171 380 l 1
 414 380 l 1
 414 330 l 1
 171 330 l 1
 171 50 l 1
 466 50 l 1
 466 0 l 1
 111 0 l 1
 111 685 l 1
 459 685 l 1
EndSplineSet
EndChar
StartChar: uni0208
Encoding: 520 520 454
Width: 282
Flags: W
HStem: 0 21G<111 171 111 111> 665 20G<111 171 171 171>
VStem: 111 60<0 685 0 685>
LayerCount: 2
Fore
SplineSet
22 937 m 1
 101 786 l 1
 63 768 l 1
 -30 910 l 1
 22 937 l 1
152 937 m 1
 222 790 l 1
 184 773 l 1
 100 909 l 1
 152 937 l 1
171 685 m 1
 171 0 l 1
 111 0 l 1
 111 685 l 1
 171 685 l 1
EndSplineSet
EndChar
StartChar: uni0209
Encoding: 521 521 455
Width: 267
Flags: W
HStem: 0 21G<105 163 105 105> 503 20G<105 163 163 163>
VStem: 105 58<0 523 0 523>
LayerCount: 2
Fore
SplineSet
25 811 m 1
 104 660 l 1
 66 642 l 1
 -27 784 l 1
 25 811 l 1
155 811 m 1
 225 664 l 1
 187 647 l 1
 103 783 l 1
 155 811 l 1
163 523 m 1
 163 0 l 1
 105 0 l 1
 105 523 l 1
 163 523 l 1
EndSplineSet
EndChar
StartChar: uni020A
Encoding: 522 522 456
Width: 282
Flags: W
HStem: 0 21G<111 171 111 111> 665 20G<111 171 171 171> 857 47<116.5 163.5>
VStem: 111 60<0 685 0 685>
LayerCount: 2
Fore
SplineSet
140 904 m 0
 209 904 262 861 271 794 c 1
 231 785 l 1
 218 832 187 857 140 857 c 0
 93 857 63 832 50 785 c 1
 10 794 l 1
 19 861 71 904 140 904 c 0
171 685 m 1
 171 0 l 1
 111 0 l 1
 111 685 l 1
 171 685 l 1
EndSplineSet
EndChar
StartChar: uni020E
Encoding: 526 526 461
Width: 691
Flags: W
HStem: -11 51<281.5 412 281.5 430> 645 51<280.5 411> 857 47<321.5 368.5>
VStem: 66 63<238.5 445 238.5 454> 562 63<239 446>
LayerCount: 2
Fore
SplineSet
345 904 m 0
 414 904 467 861 476 794 c 1
 436 785 l 1
 423 832 392 857 345 857 c 0
 298 857 268 832 255 785 c 1
 215 794 l 1
 224 861 276 904 345 904 c 0
345 696 m 0
 512 696 625 573 625 342 c 0
 625 117 515 -11 345 -11 c 0
 180 -11 66 113 66 341 c 0
 66 567 181 696 345 696 c 0
345 645 m 0
 216 645 129 549 129 341 c 0
 129 136 218 40 345 40 c 0
 479 40 562 136 562 342 c 0
 562 550 477 645 345 645 c 0
EndSplineSet
EndChar
StartChar: uni0210
Encoding: 528 528 463
Width: 590
Flags: W
HStem: 0 21G<111 171 111 111 485 556 485 485> 307 49<171 285 285 308 171 285> 636 49<171 275 171 171>
VStem: 111 60<0 307 356 636> 457 64<449 544.5>
LayerCount: 2
Fore
SplineSet
252 786 m 1
 214 768 l 1
 121 910 l 1
 173 937 l 1
 252 786 l 1
373 790 m 1
 335 773 l 1
 251 909 l 1
 303 937 l 1
 373 790 l 1
485 0 m 1
 308 307 l 1
 171 307 l 1
 171 0 l 1
 111 0 l 1
 111 685 l 1
 277 685 l 2
 442 685 521 620 521 499 c 0
 521 397 465 343 368 318 c 1
 556 0 l 1
 485 0 l 1
171 356 m 1
 285 356 l 2
 394 356 457 399 457 499 c 0
 457 590 406 636 275 636 c 2
 171 636 l 1
 171 356 l 1
EndSplineSet
EndChar
StartChar: uni0211
Encoding: 529 529 463
Width: 372
Flags: W
HStem: 0 21G<105 163 105 105> 479 55<271 311> 503 20G<105 155 155 155> 508 20G<359 359>
VStem: 105 58<0 320 0 523>
LayerCount: 2
Fore
SplineSet
202 660 m 1xc8
 164 642 l 1
 71 784 l 1
 123 811 l 1
 202 660 l 1xc8
323 664 m 1
 285 647 l 1
 201 783 l 1
 253 811 l 1
 323 664 l 1
307 534 m 0
 328 534 346 532 359 528 c 1x98
 348 473 l 1
 334 477 320 479 302 479 c 0xc8
 230 479 191 427 163 320 c 1
 163 0 l 1
 105 0 l 1
 105 523 l 1
 155 523 l 1xa8
 160 406 l 1
 187 492 235 534 307 534 c 0
EndSplineSet
EndChar
StartChar: uni0212
Encoding: 530 530 465
Width: 590
Flags: W
HStem: 0 21G<111 171 111 111 485 556 485 485> 307 49<171 285 285 308 171 285> 636 49<171 275 171 171> 857 47<267.5 314.5>
VStem: 111 60<0 307 356 636> 457 64<449 544.5>
LayerCount: 2
Fore
SplineSet
291 857 m 0
 244 857 214 832 201 785 c 1
 161 794 l 1
 170 861 222 904 291 904 c 0
 360 904 413 861 422 794 c 1
 382 785 l 1
 369 832 338 857 291 857 c 0
485 0 m 1
 308 307 l 1
 171 307 l 1
 171 0 l 1
 111 0 l 1
 111 685 l 1
 277 685 l 2
 442 685 521 620 521 499 c 0
 521 397 465 343 368 318 c 1
 556 0 l 1
 485 0 l 1
171 356 m 1
 285 356 l 2
 394 356 457 399 457 499 c 0
 457 590 406 636 275 636 c 2
 171 636 l 1
 171 356 l 1
EndSplineSet
EndChar
StartChar: uni0214
Encoding: 532 532 466
Width: 652
Flags: W
HStem: -11 52<268.5 383.5 268.5 401> 665 20G<101 161 161 161 490 551 551 551>
VStem: 101 60<214 219 219 685> 490 61<219 685>
LayerCount: 2
Fore
SplineSet
208 937 m 1
 287 786 l 1
 249 768 l 1
 156 910 l 1
 208 937 l 1
338 937 m 1
 408 790 l 1
 370 773 l 1
 286 909 l 1
 338 937 l 1
551 685 m 1
 551 214 l 2
 551 82 476 -11 326 -11 c 0
 174 -11 101 82 101 214 c 2
 101 685 l 1
 161 685 l 1
 161 219 l 2
 161 108 211 41 326 41 c 0
 441 41 490 109 490 219 c 2
 490 685 l 1
 551 685 l 1
EndSplineSet
EndChar
StartChar: uni0217
Encoding: 535 535 469
Width: 576
Flags: W
HStem: -11 48<226.5 287.5> 0 21G<422 471 422 422> 503 20G<99 157 157 157 413 471 471 471> 695 47<261.5 308.5>
VStem: 99 58<149 155 155 523> 413 58<144 523 0 523>
LayerCount: 2
Fore
SplineSet
285 742 m 0xbc
 354 742 407 699 416 632 c 1
 376 623 l 1
 363 670 332 695 285 695 c 0
 238 695 208 670 195 623 c 1
 155 632 l 1
 164 699 216 742 285 742 c 0xbc
471 523 m 1
 471 0 l 1
 422 0 l 1x7c
 418 93 l 1
 382 31 328 -11 247 -11 c 0
 154 -11 99 46 99 149 c 2
 99 523 l 1
 157 523 l 1
 157 155 l 2
 157 72 192 37 261 37 c 0
 329 37 377 82 413 144 c 1
 413 523 l 1
 471 523 l 1
EndSplineSet
EndChar
StartChar: uni021C
Encoding: 540 540 474
Width: 501
Flags: W
HStem: 331 51<159 211 211 213 151 211> 645 51<192 270.5>
VStem: 363 63<472 555> 384 63<145.5 242>
LayerCount: 2
Fore
SplineSet
229 696 m 0xe0
 356 696 426 623 426 518 c 0xe0
 426 426 371 377 293 360 c 1
 378 350 447 301 447 200 c 0
 447 64 345 -34 67 -90 c 1
 61 -38 l 1
 308 14 384 91 384 200 c 0xd0
 384 284 326 333 213 331 c 2
 151 331 l 1
 159 382 l 1
 211 382 l 2
 302 382 363 428 363 516 c 0
 363 594 316 645 225 645 c 0
 159 645 105 619 53 575 c 1
 21 612 l 1
 82 667 147 696 229 696 c 0xe0
EndSplineSet
EndChar
StartChar: uni021D
Encoding: 541 541 476
Width: 458
Flags: W
HStem: 241 47<135 189 189 220 130 189> 486 48<165.5 232>
VStem: 314 60<356 422> 339 62<106.5 184>
LayerCount: 2
Fore
SplineSet
201 534 m 0xe0
 297 534 374 484 374 391 c 0xe0
 374 321 335 285 271 269 c 1
 347 267 401 227 401 153 c 0
 401 43 289 -44 69 -95 c 1
 61 -51 l 1
 253 3 339 62 339 151 c 0xd0
 339 217 288 241 220 241 c 2
 130 241 l 1
 135 288 l 1
 189 288 l 2
 264 288 314 321 314 389 c 0
 314 455 267 486 197 486 c 0
 134 486 97 470 52 442 c 1
 23 478 l 1
 74 514 129 534 201 534 c 0xe0
EndSplineSet
EndChar
StartChar: uni021E
Encoding: 542 542 476
Width: 670
Flags: W
HStem: 0 21G<111 171 111 111 499 559 499 499> 335 51<171 499 171 499> 665 20G<111 171 171 171 499 559 559 559>
VStem: 111 60<0 335 0 386 386 685> 499 60<0 335 335 335 386 685 0 685>
LayerCount: 2
Fore
SplineSet
455 888 m 1
 481 857 l 1
 352 756 l 1
 316 756 l 1
 186 857 l 1
 212 888 l 1
 334 808 l 1
 455 888 l 1
499 0 m 1
 499 335 l 1
 171 335 l 1
 171 0 l 1
 111 0 l 1
 111 685 l 1
 171 685 l 1
 171 386 l 1
 499 386 l 1
 499 685 l 1
 559 685 l 1
 559 0 l 1
 499 0 l 1
EndSplineSet
EndChar
StartChar: uni021F
Encoding: 543 543 477
Width: 581
Flags: W
HStem: 0 21G<105 163 105 105 423 481 423 423> 487 47<299 356.5> 716 20G<105 105> 723 20G<163 163>
VStem: 105 58<0 379 437 736 736 736> 423 58<0 366 366 374 0 408.5>
LayerCount: 2
Fore
SplineSet
311 807 m 1xdc
 275 807 l 1
 145 908 l 1
 171 939 l 1
 293 859 l 1
 414 939 l 1
 440 908 l 1
 311 807 l 1xdc
336 534 m 0
 430 534 481 473 481 374 c 2
 481 0 l 1
 423 0 l 1
 423 366 l 2
 423 451 388 487 325 487 c 0
 254 487 205 443 163 379 c 1
 163 0 l 1
 105 0 l 1
 105 736 l 1xec
 163 743 l 1
 163 437 l 1
 206 496 262 534 336 534 c 0
EndSplineSet
EndChar
StartChar: uni0220
Encoding: 544 544 479
Width: 663
Flags: W
HStem: -197 21G<499 559 499 499> 0 21G<111 171 111 111> 645 51<334 413> 665 20G<111 163 163 163>
VStem: 111 60<0 532 0 685> 499 60<-197 487 487 499 -197 541>
LayerCount: 2
Fore
SplineSet
381 696 m 0xec
 498 696 559 621 559 499 c 2
 559 -197 l 1
 499 -197 l 1
 499 487 l 2
 499 595 455 645 371 645 c 0xec
 280 645 223 595 171 532 c 1
 171 0 l 1
 111 0 l 1
 111 685 l 1
 163 685 l 1xdc
 169 588 l 1
 219 649 287 696 381 696 c 0xec
EndSplineSet
EndChar
StartChar: uni0221
Encoding: 545 545 479
Width: 689
Flags: W
HStem: -11 48<225 300> -11 51<552 595.5 552 609> 157 45<587.5 626.5> 486 48<233 304.5 205 311> 716 20G<474 474> 723 20G<416 416>
VStem: 64 62<187 260 187 339.5> 416 58<134 407 407 407 463 736> 661 53<86.5 124>
LayerCount: 2
Fore
SplineSet
614 202 m 0xb780
 675 202 714 163 714 109 c 0
 714 36 652 -11 566 -11 c 0
 536 -11 507 -4 482 9 c 1
 446 -65 l 1
 405 -48 l 1
 448 37 l 1
 436 51 427 67 422 87 c 1
 391 32 340 -11 260 -11 c 0
 138 -11 64 93 64 259 c 0
 64 420 141 534 269 534 c 0
 340 534 386 500 416 463 c 1
 416 743 l 1xb780
 474 736 l 1xbb80
 474 127 l 2
 474 115 475 105 477 95 c 1
 508 161 547 202 614 202 c 0xb780
269 37 m 0
 338 37 380 72 416 134 c 1
 416 407 l 1
 385 451 343 486 279 486 c 0
 187 486 125 407 126 260 c 0
 126 114 181 37 269 37 c 0
566 40 m 0x7780
 625 40 661 64 661 109 c 0
 661 139 642 157 611 157 c 0
 564 157 539 127 503 54 c 1
 518 45 538 40 566 40 c 0x7780
EndSplineSet
EndChar
StartChar: uni0223
Encoding: 547 547 481
Width: 567
Flags: W
HStem: -11 49<233.5 336 233.5 354> 382 47<238.5 330 238.5 338.5> 716 20G<102 160 160 160 410 468 468 468>
VStem: 64 62<153 257> 102 58<556 736> 410 58<556 736> 441 62<154 260 147.5 263>
LayerCount: 2
Fore
SplineSet
373 409 m 1xec
 458 381 503 310 503 210 c 0
 503 85 424 -11 284 -11 c 0
 147 -11 64 81 64 209 c 0xf2
 64 305 110 379 195 408 c 1
 130 437 102 492 102 556 c 2
 102 736 l 1
 160 736 l 1
 160 556 l 2
 160 485 193 429 284 429 c 0
 376 429 410 487 410 556 c 2
 410 736 l 1
 468 736 l 1
 468 556 l 2
 468 492 437 437 373 409 c 1xec
284 38 m 0xf2
 388 38 441 98 441 210 c 0
 441 316 393 382 284 382 c 0
 177 382 126 315 126 209 c 0
 126 97 183 38 284 38 c 0xf2
EndSplineSet
EndChar
StartChar: uni0225
Encoding: 549 549 484
Width: 416
Flags: W
HStem: -205 48<238 275.5 238 295> 0 50<96 326> 473 50<52 320 52 388>
VStem: 326 57<-74 -71 -71 0 0 0>
LayerCount: 2
Fore
SplineSet
388 523 m 1
 388 478 l 1
 96 50 l 1
 383 50 l 1
 383 -71 l 2
 383 -161 332 -205 258 -205 c 0
 211 -205 178 -188 156 -171 c 1
 180 -134 l 1
 201 -147 221 -157 255 -157 c 0
 296 -157 326 -136 326 -74 c 2
 326 0 l 1
 28 0 l 1
 28 45 l 1
 320 473 l 1
 52 473 l 1
 52 523 l 1
 388 523 l 1
EndSplineSet
EndChar
StartChar: uni0226
Encoding: 550 550 485
Width: 565
Flags: W
HStem: 0 21G<16 77 16 16 485 548 485 485> 187 51<154 409 154 425 137 409> 636 49<282 282> 795 84<269 295.5>
VStem: 239 87<825.5 848.5>
LayerCount: 2
Fore
SplineSet
282 795 m 0
 256 795 239 814 239 837 c 0
 239 860 256 879 282 879 c 0
 309 879 326 860 326 837 c 0
 326 814 309 795 282 795 c 0
485 0 m 1
 425 187 l 1
 137 187 l 1
 77 0 l 1
 16 0 l 1
 245 685 l 1
 320 685 l 1
 548 0 l 1
 485 0 l 1
154 238 m 1
 409 238 l 1
 282 636 l 1
 154 238 l 1
EndSplineSet
EndChar
StartChar: uni0228
Encoding: 552 552 486
Width: 512
Flags: W
HStem: -227 42<275 303 275 317.5> -206 21G -96 32<254 302> 0 50<171 263 302 466 302 302> 330 50<171 414 171 414> 635 50<171 452 171 171>
VStem: 111 60<50 330 380 635> 258.5 43.5 343 51<-156 -125.5>
LayerCount: 2
Fore
SplineSet
466 0 m 1x7f80
 302 0 l 1
 302 -64 l 1
 367 -69 394 -99 394 -140 c 0
 394 -197 346 -227 289 -227 c 0xbf80
 254 -227 227 -218 209 -206 c 1x7f80
 227 -170 l 1
 243 -179 262 -185 288 -185 c 0xbf80
 318 -185 343 -172 343 -140 c 0
 343 -111 317 -96 254 -96 c 1
 263 0 l 1
 111 0 l 1
 111 685 l 1
 459 685 l 1
 452 635 l 1
 171 635 l 1
 171 380 l 1
 414 380 l 1
 414 330 l 1
 171 330 l 1
 171 50 l 1
 466 50 l 1
 466 0 l 1x7f80
EndSplineSet
EndChar
StartChar: uni022B
Encoding: 555 555 489
Width: 571
Flags: W
HStem: -11 49<235 335 235 354> 485 49<236.5 336.5> 633 79<179.5 202.5 368.5 391.5> 772 47<165 406 165 406>
VStem: 64 62<187.5 336 187.5 345> 151 80<661 683> 165 241<772 819 772 819> 340 80<661 683> 446 61<188 336.5>
LayerCount: 2
Fore
SplineSet
406 772 m 1xda80
 165 772 l 1
 165 819 l 1
 406 819 l 1
 406 772 l 1xda80
191 712 m 0xfd80
 214 712 231 694 231 672 c 0
 231 650 214 633 191 633 c 0
 168 633 151 650 151 672 c 0
 151 694 168 712 191 712 c 0xfd80
380 712 m 0
 403 712 420 694 420 672 c 0
 420 650 403 633 380 633 c 0
 357 633 340 650 340 672 c 0
 340 694 357 712 380 712 c 0
286 534 m 0xda80
 425 534 507 434 507 263 c 0
 507 94 423 -11 285 -11 c 0
 146 -11 64 93 64 261 c 0
 64 429 149 534 286 534 c 0xda80
286 485 m 0
 187 485 126 411 126 261 c 0
 126 114 185 38 285 38 c 0
 385 38 446 113 446 263 c 0
 446 410 387 485 286 485 c 0
EndSplineSet
EndChar
StartChar: uni022C
Encoding: 556 556 491
Width: 691
Flags: W
HStem: -11 51<281.5 412 281.5 430> 645 51<280.5 411> 757 47<384.5 414.5 384.5 422> 803 46<275.5 304> 893 48<222 463 222 463>
VStem: 66 63<238.5 445 238.5 454> 222 241<893 941 893 941> 562 63<239 446>
LayerCount: 2
Fore
SplineSet
463 893 m 1xef
 222 893 l 1
 222 941 l 1
 463 941 l 1
 463 893 l 1xef
404 757 m 0
 353 757 321 803 287 803 c 0
 264 803 249 790 231 763 c 1
 195 781 l 1
 217 821 247 849 287 849 c 0xdf
 334 849 365 804 404 804 c 0
 425 804 440 816 460 847 c 1
 496 829 l 1
 472 779 440 757 404 757 c 0
345 696 m 0
 512 696 625 573 625 342 c 0
 625 117 515 -11 345 -11 c 0
 180 -11 66 113 66 341 c 0
 66 567 181 696 345 696 c 0
345 645 m 0
 216 645 129 549 129 341 c 0
 129 136 218 40 345 40 c 0
 479 40 562 136 562 342 c 0
 562 550 477 645 345 645 c 0
EndSplineSet
EndChar
StartChar: uni022D
Encoding: 557 557 492
Width: 571
Flags: W
HStem: -11 49<235 335 235 354> 485 49<236.5 336.5> 601 46<324.5 354.5 324.5 362> 646 47<215.5 244> 673 20G<207 250.5> 737 48<165 406 165 406>
VStem: 64 62<187.5 336 187.5 345> 165 241<737 785 737 785> 446 61<188 336.5>
LayerCount: 2
Fore
SplineSet
406 737 m 1xd780
 165 737 l 1
 165 785 l 1
 406 785 l 1
 406 737 l 1xd780
344 601 m 0xef80
 293 601 261 646 227 646 c 0
 204 646 189 633 171 606 c 1
 135 625 l 1
 157 665 187 693 227 693 c 0xd780
 274 693 305 647 344 647 c 0xe780
 365 647 380 660 400 691 c 1xd780
 436 672 l 1
 412 623 380 601 344 601 c 0xef80
286 534 m 0xd780
 425 534 507 434 507 263 c 0
 507 94 423 -11 285 -11 c 0
 146 -11 64 93 64 261 c 0
 64 429 149 534 286 534 c 0xd780
286 485 m 0
 187 485 126 411 126 261 c 0
 126 114 185 38 285 38 c 0
 385 38 446 113 446 263 c 0
 446 410 387 485 286 485 c 0
EndSplineSet
EndChar
StartChar: uni022F
Encoding: 559 559 494
Width: 571
Flags: W
HStem: -11 49<235 335 235 354> 485 49<236.5 336.5> 669 84<272 298.5>
VStem: 64 62<187.5 336 187.5 345> 242 87<699.5 722.5> 446 61<188 336.5>
LayerCount: 2
Fore
SplineSet
285 753 m 0
 312 753 329 734 329 711 c 0
 329 688 312 669 285 669 c 0
 259 669 242 688 242 711 c 0
 242 734 259 753 285 753 c 0
286 534 m 0
 425 534 507 434 507 263 c 0
 507 94 423 -11 285 -11 c 0
 146 -11 64 93 64 261 c 0
 64 429 149 534 286 534 c 0
286 485 m 0
 187 485 126 411 126 261 c 0
 126 114 185 38 285 38 c 0
 385 38 446 113 446 263 c 0
 446 410 387 485 286 485 c 0
EndSplineSet
EndChar
StartChar: uni0234
Encoding: 564 564 498
Width: 373
Flags: W
HStem: -11 51<236.5 280 236.5 293> 157 45<271.5 311> 716 20G<101 101> 723 20G<159 159>
VStem: 101 58<132 736 736 736> 346 53<86.5 124>
LayerCount: 2
Fore
SplineSet
299 202 m 0xdc
 360 202 399 163 399 109 c 0
 399 36 336 -11 250 -11 c 0
 220 -11 191 -5 167 9 c 1
 130 -65 l 1
 89 -48 l 1
 132 37 l 1
 113 60 101 91 101 132 c 2
 101 736 l 1xec
 159 743 l 1
 159 127 l 2
 159 116 160 106 162 97 c 1
 194 161 233 202 299 202 c 0xdc
250 40 m 0
 310 40 346 64 346 109 c 0
 346 139 327 157 295 157 c 0
 248 157 223 127 188 54 c 1
 202 44 223 40 250 40 c 0
EndSplineSet
EndChar
StartChar: uni0235
Encoding: 565 565 499
Width: 696
Flags: W
HStem: -11 51<559 602.5 559 616> 0 21G<105 163 105 105> 157 45<594.5 634> 487 47<298.5 357> 503 20G<105 155 155 155>
VStem: 105 58<0 379 0 523> 423 58<132 366 366 374> 668 53<86.5 124>
LayerCount: 2
Fore
SplineSet
621 202 m 0xb7
 682 202 721 163 721 109 c 0
 721 36 659 -11 573 -11 c 0
 543 -11 514 -4 489 9 c 1
 453 -65 l 1
 412 -48 l 1
 455 37 l 1
 435 59 423 91 423 132 c 2
 423 366 l 2
 423 452 389 487 325 487 c 0xb7
 254 487 205 443 163 379 c 1
 163 0 l 1
 105 0 l 1
 105 523 l 1
 155 523 l 1x6f
 160 435 l 1
 202 494 261 534 336 534 c 0
 431 534 481 475 481 374 c 2
 481 127 l 2
 481 115 482 105 484 95 c 1
 516 161 555 202 621 202 c 0xb7
573 40 m 0
 632 40 668 64 668 109 c 0
 668 139 650 157 618 157 c 0
 571 157 546 127 510 54 c 1
 525 45 545 40 573 40 c 0
EndSplineSet
EndChar
StartChar: uni0236
Encoding: 566 566 501
Width: 378
Flags: W
HStem: -11 51<243 286 243 299> 157 45<276 315.5> 476 47<18 106 18 106 164 292>
VStem: 106 58<132 476 523 648 648 648> 351 53<84.5 122.5>
LayerCount: 2
Fore
SplineSet
303 202 m 0
 365 202 404 162 404 107 c 0
 404 34 341 -11 257 -11 c 0
 226 -11 196 -5 171 8 c 1
 134 -65 l 1
 94 -48 l 1
 137 36 l 1
 118 58 106 90 106 132 c 2
 106 476 l 1
 18 476 l 1
 18 523 l 1
 106 523 l 1
 106 648 l 1
 164 655 l 1
 164 523 l 1
 299 523 l 1
 292 476 l 1
 164 476 l 1
 164 127 l 2
 164 116 165 106 167 97 c 1
 199 161 238 202 303 202 c 0
257 40 m 0
 315 40 351 62 351 107 c 0
 351 138 332 157 299 157 c 0
 253 157 229 127 193 54 c 1
 208 45 229 40 257 40 c 0
EndSplineSet
EndChar
StartChar: uni0237
Encoding: 567 567 501
Width: 268
Flags: W
HStem: -203 21G<23 23> 503 20G<106 164 164 164>
VStem: 106 58<17 19 19 523>
LayerCount: 2
Fore
SplineSet
164 523 m 1
 164 19 l 2
 164 -121 118 -159 23 -203 c 1
 6 -161 l 1
 75 -127 106 -99 106 17 c 2
 106 523 l 1
 164 523 l 1
EndSplineSet
EndChar
StartChar: uni0239
Encoding: 569 569 503
Width: 846
Flags: W
HStem: -205 21G<396 396> -197 21G<454 454> -11 48<220.5 282.5> 486 48<227.5 292.5 201.5 295.5 573 633.5> 503 20G<404 446 446 446>
VStem: 64 62<187 260 187 339.5> 396 58<-197 75 -197 76 -197 76 135 395> 401.5 47.5 720 62<189 338.5>
LayerCount: 2
Fore
SplineSet
604 534 m 0x7680
 720 534 782 433 782 264 c 0
 782 99 713 -11 593 -11 c 0
 538 -11 489 20 454 75 c 1
 454 -197 l 1x7680
 396 -205 l 1
 396 76 l 1xb680
 365 26 315 -11 250 -11 c 0
 138 -11 64 93 64 259 c 0
 64 420 141 534 262 534 c 0
 323 534 369 498 399 451 c 1x7580
 404 523 l 1
 446 523 l 1x6d80
 452 448 l 1x7580
 490 501 542 534 604 534 c 0x7680
260 37 m 0
 320 37 361 72 396 133 c 1
 396 395 l 1
 365 448 323 486 268 486 c 0
 187 486 125 407 126 260 c 0
 126 114 181 37 260 37 c 0
583 38 m 0
 668 38 720 114 720 264 c 0
 720 413 673 486 594 486 c 0
 532 486 490 446 454 395 c 1
 454 135 l 1
 487 72 531 38 583 38 c 0
EndSplineSet
EndChar
StartChar: uni023A
Encoding: 570 570 504
Width: 565
Flags: W
HStem: 0 21G<16 75 16 16 486 548 486 486> 187 50<152 236 135 249 284 410 152 271> 640 45<282 282> 716 20G<416 416> 725 20G<383 383>
VStem: 16 532<0 0>
LayerCount: 2
Fore
SplineSet
548 0 m 1xec
 486 0 l 1
 426 187 l 1
 271 187 l 1
 204 -70 l 1
 171 -62 l 1
 236 187 l 1
 135 187 l 1
 75 0 l 1
 16 0 l 1
 245 685 l 1
 320 685 l 1
 346 606 l 1
 383 745 l 1xec
 416 736 l 1xf4
 366 546 l 1
 548 0 l 1xec
152 237 m 1
 249 237 l 1
 322 514 l 1
 282 640 l 1
 152 237 l 1
284 237 m 1
 410 237 l 1
 342 453 l 1
 284 237 l 1
EndSplineSet
EndChar
StartChar: uni023B
Encoding: 571 571 505
Width: 550
Flags: W
HStem: -11 53<331 379.5 331 384.5> 645 51<287.5 354 267 354.5> 671 20G<401 401> 716 20G<448 448> 725 20G<416 416>
VStem: 66 63<272.5 452 272.5 460>
LayerCount: 2
Fore
SplineSet
527 60 m 1xcc
 486 21 427 -11 342 -11 c 0
 311 -11 282 -6 254 3 c 1
 236 -70 l 1
 203 -62 l 1
 223 16 l 1
 129 64 66 175 66 343 c 0
 66 577 191 696 343 696 c 0xcc
 365 696 384 694 401 691 c 1
 416 745 l 1xac
 448 736 l 1
 434 683 l 1xd4
 466 672 492 655 519 633 c 1
 487 593 l 1
 464 611 443 624 421 633 c 1
 269 56 l 1
 292 46 318 42 344 42 c 0
 415 42 456 67 496 99 c 1
 527 60 l 1xcc
129 343 m 0
 129 202 172 114 238 72 c 1
 389 641 l 1
 376 644 362 645 347 645 c 0
 228 645 129 561 129 343 c 0
EndSplineSet
EndChar
StartChar: uni023E
Encoding: 574 574 508
Width: 495
Flags: W
HStem: 0 21G<218 277 218 218> 632 53<15 218 15 349 277 277 277 332 385 478 15 367> 716 20G<402 402> 727 20G<370 370>
VStem: 218 59<0 183 183 183 290 360 467 632>
LayerCount: 2
Fore
SplineSet
478 632 m 1xd8
 367 632 l 1
 277 360 l 1
 277 0 l 1
 218 0 l 1
 218 183 l 1
 134 -70 l 1
 102 -59 l 1
 218 290 l 1
 218 632 l 1
 15 632 l 1
 15 685 l 1
 349 685 l 1
 370 747 l 1xd8
 402 736 l 1xe8
 385 685 l 1
 485 685 l 1
 478 632 l 1xd8
277 467 m 1
 332 632 l 1
 277 632 l 1
 277 467 l 1
EndSplineSet
EndChar
StartChar: uni023F
Encoding: 575 575 509
Width: 462
Flags: W
HStem: -205 48<303 348.5 303 352.5> -11 49<226 265 194.5 280.5> -4 21G 486 48<201.5 262.5>
VStem: 60 60<372 425 372 437.5> 354 61<104.5 169>
LayerCount: 2
Fore
SplineSet
394 -140 m 1xdc
 416 -178 l 1
 397 -193 372 -205 333 -205 c 0
 212 -205 221 -56 41 56 c 1
 66 92 l 1
 118 59 161 38 228 38 c 0
 302 38 354 72 354 137 c 0
 354 201 325 224 216 254 c 0
 105 283 60 324 60 398 c 0
 60 477 135 534 234 534 c 0
 301 534 352 514 401 476 c 1
 374 438 l 1
 328 470 289 486 236 486 c 0
 167 486 120 452 120 398 c 0
 120 346 153 324 247 299 c 0
 361 269 415 230 415 141 c 0
 415 44 327 -11 234 -11 c 0xdc
 218 -11 200 -9 181 -4 c 1xbc
 256 -71 270 -157 336 -157 c 0
 361 -157 378 -150 394 -140 c 1xdc
EndSplineSet
EndChar
StartChar: uni0240
Encoding: 576 576 510
Width: 408
Flags: W
HStem: -205 48<308.5 370 308.5 373.5> 0 21G<28 28> 473 50<52 320 52 388>
VStem: 28 409<-178 45 -178 45>
LayerCount: 2
Fore
SplineSet
354 -205 m 0
 213 -205 229 -23 28 0 c 1
 28 45 l 1
 320 473 l 1
 52 473 l 1
 52 523 l 1
 388 523 l 1
 388 478 l 1
 86 38 l 1
 253 4 259 -157 358 -157 c 0
 382 -157 399 -150 415 -140 c 1
 437 -178 l 1
 418 -193 393 -205 354 -205 c 0
EndSplineSet
EndChar
StartChar: uni0241
Encoding: 577 577 511
Width: 461
Flags: W
HStem: 0 21G<157 157 157 217> 645 51<185 266>
VStem: 157 60<0 272 0 305 0 305> 367 63<437 536>
LayerCount: 2
Fore
SplineSet
157 0 m 1
 157 305 l 1
 230 323 l 2
 313 345 367 384 367 490 c 0
 367 582 314 645 218 645 c 0
 152 645 100 619 50 575 c 1
 15 612 l 1
 77 667 139 696 221 696 c 0
 351 696 430 610 430 492 c 0
 430 351 344 305 252 281 c 2
 217 272 l 1
 217 0 l 1
 157 0 l 1
EndSplineSet
EndChar
StartChar: uni0242
Encoding: 578 578 513
Width: 428
Flags: W
HStem: 0 21G<128 128 128 186> 483 51<153 227.5>
VStem: 128 58<0 153 0 185 0 185> 321 61<306 388.5>
LayerCount: 2
Fore
SplineSet
128 0 m 1
 128 185 l 1
 200 204 l 2
 270 222 321 263 321 349 c 0
 321 428 269 483 186 483 c 0
 120 483 80 458 41 427 c 1
 8 463 l 1
 55 506 107 534 188 534 c 0
 306 534 382 455 382 350 c 0
 382 231 301 181 222 162 c 2
 186 153 l 1
 186 0 l 1
 128 0 l 1
EndSplineSet
EndChar
StartChar: uni0243
Encoding: 579 579 514
Width: 601
Flags: W
HStem: 0 50<174 301 174 301> 175 47<23 114 23 114 174 349> 336 48<174 312 312 319 174 312> 635 50<174 267 267 273 174 174>
VStem: 114 60<50 175 50 175 50 175 222 336 384 635> 454 61<470 556> 485 63<139 242>
LayerCount: 2
Fore
SplineSet
390 363 m 1xfa
 472 354 548 308 548 190 c 0xfa
 548 59 452 0 301 0 c 2
 114 0 l 1
 114 175 l 1
 23 175 l 1
 23 222 l 1
 114 222 l 1
 114 685 l 1
 267 685 l 2
 424 685 515 630 515 514 c 0xfc
 515 426 461 376 390 363 c 1xfa
273 635 m 2
 174 635 l 1
 174 384 l 1
 312 384 l 2
 395 384 454 430 454 510 c 0xfc
 454 602 388 635 273 635 c 2
301 50 m 2xfa
 412 50 485 88 485 190 c 0
 485 294 412 336 319 336 c 2
 174 336 l 1
 174 222 l 1
 349 222 l 1
 349 175 l 1
 174 175 l 1
 174 50 l 1
 301 50 l 2xfa
EndSplineSet
EndChar
StartChar: uni0246
Encoding: 582 582 516
Width: 512
Flags: W
HStem: 0 50<171 187 235 466 171 222> 330 50<171 275 171 287 322 414 171 309> 635 50<171 171 171 355 403 452 111 389> 716 20G<416 416> 725 20G<383 383>
VStem: 111 60<50 330 380 635>
LayerCount: 2
Fore
SplineSet
235 50 m 1xec
 466 50 l 1
 466 0 l 1
 222 0 l 1
 204 -70 l 1
 171 -62 l 1
 187 0 l 1
 111 0 l 1
 111 685 l 1
 368 685 l 1
 383 745 l 1xec
 416 736 l 1xf4
 403 685 l 1
 459 685 l 1
 452 635 l 1
 389 635 l 1
 322 380 l 1
 414 380 l 1
 414 330 l 1
 309 330 l 1
 235 50 l 1xec
171 635 m 1
 171 380 l 1
 287 380 l 1
 355 635 l 1
 171 635 l 1
171 50 m 1
 200 50 l 1
 275 330 l 1
 171 330 l 1
 171 50 l 1
EndSplineSet
EndChar
StartChar: uni0247
Encoding: 583 583 518
Width: 535
Flags: W
HStem: -11 49<277.5 317.5 277.5 320.5> 0 21G<212 212> 239 45<126 243 126 255 289 420 126 276> 486 48<234 281.5> 509 20G<323 323>
VStem: 64 62<239 239 239 284 239 340.5> 420 57<284 299 299 341 273 341.5>
LayerCount: 2
Fore
SplineSet
475 239 m 1xb6
 276 239 l 1
 225 50 l 1
 244 42 266 38 289 38 c 0
 346 38 384 56 430 90 c 1
 457 53 l 1
 408 13 355 -11 286 -11 c 0xb6
 259 -11 234 -7 212 0 c 1
 192 -70 l 1
 161 -62 l 1
 181 13 l 1
 107 52 64 137 64 257 c 0
 64 424 145 534 273 534 c 0x76
 291 534 307 532 323 529 c 1
 340 592 l 1
 371 583 l 1
 354 520 l 1xae
 436 487 477 401 477 281 c 0
 477 265 476 249 475 239 c 1xb6
275 486 m 0
 193 486 132 426 126 284 c 1
 255 284 l 1
 311 482 l 1
 300 485 288 486 275 486 c 0
420 299 m 2
 420 384 394 446 341 472 c 1
 289 284 l 1
 420 284 l 1
 420 299 l 2
196 67 m 1
 243 239 l 1
 126 239 l 1
 130 153 156 98 196 67 c 1
EndSplineSet
EndChar
StartChar: uni0248
Encoding: 584 584 518
Width: 301
Flags: W
HStem: 318 50<22 125 22 125 185 286> 665 20G<125 185 185 185>
VStem: 125 60<95 318 368 685>
LayerCount: 2
Fore
SplineSet
286 368 m 1
 286 318 l 1
 185 318 l 1
 185 92 l 2
 185 -30 141 -76 29 -119 c 1
 13 -75 l 1
 104 -35 125 2 125 95 c 2
 125 318 l 1
 22 318 l 1
 22 368 l 1
 125 368 l 1
 125 685 l 1
 185 685 l 1
 185 368 l 1
 286 368 l 1
EndSplineSet
EndChar
StartChar: uni024A
Encoding: 586 586 520
Width: 660
Flags: W
HStem: -205 49<596.5 633 596.5 637> -11 51<273.5 359> 645 51<274 360.5 253.5 365.5> 665 20G<496 549 549 549>
VStem: 66 63<228.5 438 228.5 447.5> 489 60<-71 57 57 57 113 574 574 574>
LayerCount: 2
Fore
SplineSet
691 -133 m 1xec
 716 -171 l 1
 694 -188 660 -205 614 -205 c 0
 540 -205 489 -161 489 -71 c 2
 489 57 l 1
 448 14 393 -11 325 -11 c 0
 181 -11 66 103 66 329 c 0
 66 566 180 696 327 696 c 0
 394 696 450 671 491 627 c 1xec
 496 685 l 1
 549 685 l 1xdc
 549 -72 l 2
 549 -133 577 -156 616 -156 c 0
 650 -156 671 -146 691 -133 c 1xec
329 40 m 0
 397 40 448 66 489 113 c 1
 489 574 l 1
 450 619 399 645 332 645 c 0
 216 645 129 547 129 329 c 0
 129 128 218 40 329 40 c 0
EndSplineSet
EndChar
StartChar: uni024B
Encoding: 587 587 521
Width: 580
Flags: W
HStem: -205 48<501.5 520> -11 48<225.5 297> 486 48<235 307 205.5 311.5> 503 20G<424 474 474 474>
VStem: 64 62<187 260 187 339.5> 416 58<-105 76 76 76 133 408 408 408>
LayerCount: 2
Fore
SplineSet
553 -149 m 1xec
 569 -191 l 1
 553 -199 531 -205 509 -205 c 0
 454 -205 416 -173 416 -105 c 2
 416 76 l 1
 385 26 334 -11 260 -11 c 0
 138 -11 64 93 64 259 c 0
 64 420 141 534 270 534 c 0
 344 534 389 498 420 460 c 1xec
 424 523 l 1
 474 523 l 1xdc
 474 -105 l 2
 474 -140 486 -157 517 -157 c 0
 531 -157 542 -154 553 -149 c 1xec
270 37 m 0
 339 37 381 72 416 133 c 1
 416 408 l 1
 385 452 343 486 280 486 c 0
 190 486 125 407 126 260 c 0
 126 114 181 37 270 37 c 0
EndSplineSet
EndChar
StartChar: uni024C
Encoding: 588 588 522
Width: 592
Flags: W
HStem: 0 21G<114 174 114 114 488 559 488 488> 307 49<23 114 23 114 174 288 288 311> 636 49<174 277 174 174>
VStem: 114 60<0 307 0 307 356 636> 460 63<449 544.5>
LayerCount: 2
Fore
SplineSet
559 0 m 1
 488 0 l 1
 311 307 l 1
 174 307 l 1
 174 0 l 1
 114 0 l 1
 114 307 l 1
 23 307 l 1
 23 356 l 1
 114 356 l 1
 114 685 l 1
 280 685 l 2
 445 685 523 620 523 499 c 0
 523 397 468 343 371 318 c 1
 559 0 l 1
288 356 m 2
 397 356 460 399 460 499 c 0
 460 590 409 636 277 636 c 2
 174 636 l 1
 174 356 l 1
 288 356 l 2
EndSplineSet
EndChar
StartChar: uni024E
Encoding: 590 590 524
Width: 523
Flags: W
HStem: 0 21G<232 292 232 232> 550 45<15 60 15 84 15 60 148 148 148 378 462 509> 550 135<15 80 13 84 15 15 13 148 13 378 445 509>
VStem: 232 60<0 267 267 267>
LayerCount: 2
Fore
SplineSet
509 685 m 1xb0
 462 595 l 1
 509 595 l 1
 509 550 l 1
 439 550 l 1
 292 268 l 1
 292 0 l 1
 232 0 l 1
 232 267 l 1
 84 550 l 1
 15 550 l 1
 15 595 l 1
 60 595 l 1xd0
 13 685 l 1
 80 685 l 1xb0
 125 595 l 1
 400 595 l 1xd0
 445 685 l 1
 509 685 l 1xb0
264 320 m 1
 378 550 l 1
 148 550 l 1
 264 320 l 1
EndSplineSet
EndChar
StartChar: uni024F
Encoding: 591 591 525
Width: 472
Flags: W
HStem: -204 21G<62 62> 0 21G<200 220 200 200> 341 43<19 66 19 81 19 66 140 140 140 335 407 453> 341 182<19 80 18 81 19 19 18 140 18 335 393 453>
VStem: 18 437<523 523>
LayerCount: 2
Fore
SplineSet
455 523 m 1xd8
 407 384 l 1
 453 384 l 1
 453 341 l 1
 393 341 l 1
 275 -2 l 2
 236 -116 189 -179 62 -204 c 1
 55 -159 l 1
 160 -133 186 -92 220 0 c 1
 200 0 l 1
 81 341 l 1
 19 341 l 1
 19 384 l 1
 66 384 l 1xe8
 18 523 l 1
 80 523 l 1xd8
 126 384 l 1
 348 384 l 1xe8
 393 523 l 1
 455 523 l 1xd8
239 43 m 1
 335 341 l 1
 140 341 l 1
 239 43 l 1
EndSplineSet
EndChar
StartChar: Gamma
Encoding: 915 915 529
Width: 508
Flags: W
HStem: 0 21G<111 171 111 111> 632 53<171 489 171 171>
VStem: 111 60<0 632 0 685 0 685>
LayerCount: 2
Fore
SplineSet
498 685 m 1
 489 632 l 1
 171 632 l 1
 171 0 l 1
 111 0 l 1
 111 685 l 1
 498 685 l 1
EndSplineSet
EndChar
StartChar: Epsilon
Encoding: 917 917 531
Width: 512
Flags: W
HStem: 0 50<171 466 171 466> 330 50<171 414 171 414> 635 50<171 452 171 171>
VStem: 111 60<50 330 380 635>
LayerCount: 2
Fore
SplineSet
459 685 m 1
 452 635 l 1
 171 635 l 1
 171 380 l 1
 414 380 l 1
 414 330 l 1
 171 330 l 1
 171 50 l 1
 466 50 l 1
 466 0 l 1
 111 0 l 1
 111 685 l 1
 459 685 l 1
EndSplineSet
EndChar
StartChar: uni0396
Encoding: 918 918 532
Width: 516
Flags: W
HStem: 0 53<104 454> 633 52<73 402 73 468>
VStem: 35 433
LayerCount: 2
Fore
SplineSet
468 685 m 1
 468 636 l 1
 104 53 l 1
 462 53 l 1
 454 0 l 1
 35 0 l 1
 35 50 l 1
 402 633 l 1
 73 633 l 1
 73 685 l 1
 468 685 l 1
EndSplineSet
EndChar
StartChar: Eta
Encoding: 919 919 533
Width: 670
Flags: W
HStem: 0 21G<111 171 111 111 499 559 499 499> 335 51<171 499 171 499> 665 20G<111 171 171 171 499 559 559 559>
VStem: 111 60<0 335 0 386 386 685> 499 60<0 335 335 335 386 685 0 685>
LayerCount: 2
Fore
SplineSet
499 0 m 1
 499 335 l 1
 171 335 l 1
 171 0 l 1
 111 0 l 1
 111 685 l 1
 171 685 l 1
 171 386 l 1
 499 386 l 1
 499 685 l 1
 559 685 l 1
 559 0 l 1
 499 0 l 1
EndSplineSet
EndChar
